<svg xmlns="http://www.w3.org/2000/svg">
<defs>
<font id="AxureHandwriting-BoldItalic" horiz-adv-x="556" >
  <font-face 
    font-family="Axure Handwriting"
    font-weight="700"
    font-style="italic"
    font-stretch="normal"
    units-per-em="1000"
    panose-1="2 11 8 2 2 2 2 9 2 4"
    ascent="726"
    descent="-274"
    x-height="502"
    cap-height="675"
    bbox="-249.195 -286 1091 946.84"
    underline-thickness="50"
    underline-position="-100"
    slope="-12"
    stemh="120"
    stemv="136"
    unicode-range="U+0020-FB02"
  />
<missing-glyph horiz-adv-x="600" 
d="M66 -54l-10 2c-23 5 -37 22 -38 44c-2 2 -4 5 -6 9c-2 5 -2 9 -1 14c-5 10 -5 21 -2 30l-2 29l8 1c2 8 4 16 7 22c2 3 3 8 4 10c0 0 -7 5 -9 15c7 6 11 16 11 16s2 3 1 9l-1 7l4 4c1 1 2 7 3 11c2 7 4 15 8 23c2 3 4 6 7 8l-2 3l3 7c3 7 4 16 5 25c1 8 2 17 5 24
c-1 20 3 39 6 55c1 7 2 14 3 20l1 7l4 4c3 3 5 6 4 8l-3 6l2 8c5 19 7 40 5 66v3l4 23l3 4c7 9 9 26 4 33l-1 1v0c-6 14 -6 26 -5 37c0 7 1 12 -1 14c-9 18 -6 40 6 54c-1 2 -1 4 -2 6c-6 4 -12 10 -16 17l-3 4v5c0 17 9 30 16 40l4 4l1 2l1 1c9 9 21 12 32 12s21 -2 30 -5
c6 -2 11 -3 14 -3h1h5l4 -1v0h5c3 1 7 2 12 2c6 0 11 -2 16 -4l2 -1l1 -2v0c4 0 9 2 13 3l2 1l13 1h31v-7h2h7c4 0 8 0 12 1c0 0 29 8 35 7c-1 -3 0 -6 0 -6l4 1h3c5 0 10 -1 15 -1c3 -1 6 -1 8 -1h1h1h95l35 -8c6 7 10 12 12 16l2 11l39 8h19l7 -30l-13 -28l-10 -15l2 -2
l1 -3c19 -23 18 -41 14 -53l-2 -7l-5 -3c-1 -1 -3 -2 -4 -3v-1l-2 -7c-2 -7 -6 -19 -4 -32c4 -14 1 -26 -1 -35c-1 -3 -2 -6 -2 -9v-1v0c-2 -5 -3 -10 -5 -14c-1 -4 -4 -12 -4 -14c0 0 4 -7 8 -9c1 -4 -7 -14 -7 -14c-1 -1 -1 -4 -1 -6c-1 -6 -3 -14 -8 -21
c1 -9 -2 -18 -3 -26c-1 -3 -2 -6 -2 -8c-1 -8 -3 -14 -5 -20c-3 -10 -4 -16 -2 -19l3 -4v-5c1 -16 -1 -33 -5 -48c0 -10 -4 -17 -6 -25c-3 -9 -4 -15 -3 -18l3 -6l-1 -7c-1 -3 -2 -6 -2 -7c-1 -5 -2 -10 -1 -12l3 -7l-3 -8c0 -1 0 -3 -1 -5c-5 -14 -11 -27 -8 -39

<glyph glyph-name="fi" unicode="fi" horiz-adv-x="611" 
d="M402 -41c-14 0 -25 6 -34 16c-13 13 -20 35 -18 59c0 22 4 45 8 65v3v0c4 20 7 38 10 58c6 38 11 78 24 118l1 14l1 6l1 12c1 20 8 40 15 59c6 16 12 34 12 51c0 0 0 11 1 14c3 6 9 4 9 4c0 4 1 7 2 10c0 1 1 2 1 3v2l-1 11l1 14l6 14s11 20 17 23c6 2 17 -7 17 -7
s11 6 19 3c1 -12 8 -16 8 -16c3 -1 8 -2 16 -3h11c3 -2 2 -5 2 -5s12 5 23 0c1 -13 -5 -27 -5 -27c-1 -5 -3 -9 -5 -12c-2 -5 -5 -11 -4 -13c0 0 3 -11 1 -15c-8 -1 -11 -8 -11 -8c-1 -1 -1 -1 -1 -2c-2 -2 -4 -5 -6 -8v-5v-2l6 -7l-3 -9c-1 -7 -4 -15 -7 -23
c-4 -13 -8 -26 -8 -36v-2v-1c-1 -7 -4 -12 -6 -17c-1 -2 -2 -4 -2 -6c0 0 -4 -11 6 -16c-10 -2 -11 -14 -11 -14c-1 -1 -1 -3 -2 -5c-1 -5 -3 -11 -6 -17l-2 -2c1 -4 2 -8 2 -11c1 -9 -1 -19 -4 -29c0 0 7 -4 7 -9s-8 -17 -8 -17c-2 -8 -4 -18 -6 -28c-2 -9 -3 -17 -7 -27
l7 -1l-2 -18c-1 -10 -2 -18 -3 -28c-1 -20 -3 -39 -6 -59l-2 -8l-5 -4c0 -1 -1 -3 -2 -4c-3 -7 -10 -25 -30 -26l-3 -8l-10 -2c-5 -2 -9 -2 -14 -2zM178 -10c-2 -1 -5 -1 -8 -1c-5 0 -10 1 -14 2c0 0 -12 6 -13 10s4 16 4 16v2c-1 2 -4 4 -6 4c0 0 -16 2 -17 3
c-2 2 -2 15 -2 15c0 35 6 65 19 93c-7 19 -2 39 5 54c0 0 -9 0 -13 10c3 8 11 20 11 20c7 11 10 23 13 39c2 10 4 21 7 29c0 0 -10 0 -10 9c2 6 9 18 9 18c1 1 2 5 2 8c2 6 3 15 10 23c-3 23 3 43 11 63l-10 -1l-6 9c-5 -1 -11 -2 -17 -2c-7 0 -13 1 -22 4l-10 3l-3 7
s-4 2 -7 5c-2 2 0 24 0 24v1v1c-8 14 -3 29 0 39c0 1 0 2 1 3l2 7l6 4c9 6 20 9 31 9c6 0 12 -1 18 -1c4 -1 9 -1 13 -1c5 0 9 0 11 2l4 2h7l5 -1c4 9 6 20 8 31c4 16 8 33 17 51l3 8l4 1c-2 14 3 26 8 35c2 5 5 9 5 11l1 7l6 5c3 2 6 4 9 5c4 31 32 49 51 62l3 2s10 6 14 6
c6 0 6 -5 6 -5c10 2 21 4 32 4c34 0 68 -16 88 -41c9 -10 14 -23 17 -35c0 2 1 2 1 4l3 10l2 1c0 1 1 1 1 2c1 8 6 16 9 22c2 2 4 5 4 7l3 11l55 11l16 -10l2 -2l8 2l6 -4c3 -1 6 -3 9 -4c4 -3 8 -5 12 -6c0 0 13 -7 13 -13c0 -5 -6 -18 -6 -18c-1 0 -2 -2 -2 -3
c-1 -4 -3 -8 -6 -13c1 -15 -5 -28 -11 -39c-3 -5 -6 -10 -6 -15l-2 -17l-14 -1c-5 0 -12 -5 -19 -9c-10 -7 -23 -14 -37 -14c-5 0 -9 0 -14 2l-12 2l-2 13c-1 7 -4 15 -7 23c-2 7 -4 15 -7 24c0 -2 0 -3 -1 -5l-4 -15l-17 2c-21 1 -56 5 -75 32c-37 0 -51 -59 -55 -89
c0 -8 -3 -14 -8 -19v-12c3 -3 7 -5 11 -8h8c18 0 36 -5 49 -11l8 -4s9 -1 11 -3c1 -2 1 -18 1 -18c0 -12 -8 -24 -20 -31v0v-4c0 0 -2 -13 -5 -15s-16 -1 -16 -1h-5c-4 0 -6 -1 -6 -1v0l-6 -10l-11 1h-4c-5 0 -10 0 -15 -1c-6 0 -12 -1 -18 -1c-4 0 -7 1 -11 1
c-2 -19 -4 -38 -7 -56c-4 -35 -9 -70 -23 -102c4 -56 -11 -110 -23 -162c-2 -8 -4 -16 -6 -23c9 -33 -3 -68 -31 -89c0 0 -9 -7 -11 -6c-4 0 -12 6 -12 6z" />
    <glyph glyph-name="fl" unicode="fl" horiz-adv-x="611" 
d="M404 -27h-1c-1 -1 -3 -2 -4 -2l-7 -4l-8 3c-10 5 -19 14 -21 25c-1 2 -1 6 -1 9c-11 4 -19 12 -21 25l-1 8l5 5c2 3 4 6 7 9s8 10 9 13l-7 9l4 10c32 84 51 174 68 261c1 6 2 11 3 16v8c0 15 1 36 14 53c-3 16 -3 36 4 55c0 0 -6 2 -4 8c3 7 21 45 21 45l1 2l-3 5l5 20
c1 6 2 13 3 19c3 19 5 43 21 59c-2 14 -3 29 0 41c1 8 5 17 9 24l-2 6l9 16c1 1 2 2 3 4c4 8 13 27 34 27h5l4 -2c1 -1 1 -1 2 -1c6 -3 13 -6 18 -12l11 -7l7 -12l-1 -4l5 -3l2 -9c5 -16 -1 -28 -5 -37c-2 -4 -5 -10 -4 -12l3 -10l-9 -12l4 -7v-15l-9 -7v-7l3 -5l-6 -18
c-4 -18 -5 -37 -5 -55c0 -5 -1 -12 -1 -18l-1 -8l-6 -5c-3 -3 -3 -6 -1 -20s5 -31 -4 -46l-2 -3l-4 -3c-1 -1 -2 -4 -4 -7l-3 -6c3 -10 4 -19 2 -30c-2 -13 -7 -25 -15 -34c-2 -20 -4 -42 -6 -61c-3 -27 -5 -50 -5 -76v-5l-2 -4c-7 -13 -10 -31 -13 -50
c-3 -15 -6 -33 -12 -50l-2 -5l-5 -3c-8 -6 -12 -17 -10 -23l2 -5l-1 -5c-4 -34 -22 -63 -48 -78c0 0 -12 -9 -16 -9c-3 1 -8 10 -8 10zM181 -12v0c-3 0 -6 -1 -9 -1c-4 0 -8 1 -11 2c0 0 -15 2 -17 7c-2 4 5 18 5 18v2c-2 2 -5 5 -9 5c0 0 -14 1 -16 2c-1 2 -1 17 -1 17
c0 36 6 66 16 93c-6 18 -2 37 6 53c0 0 -9 0 -12 6c-1 5 10 23 10 23c8 11 11 24 13 39c2 11 4 22 8 31c0 0 -1 6 -8 9c0 5 8 18 8 18c1 2 2 5 2 7c1 7 3 15 9 23c-3 23 3 44 9 64l-8 -2l-7 10c-5 -1 -10 -2 -16 -2c-8 0 -16 1 -23 4l-10 3l-2 7l-1 -1l-7 31
c-7 13 -4 24 -2 33c0 2 1 4 1 6l1 10l8 5c10 6 19 9 32 9c6 0 12 -1 18 -1c4 -1 9 -1 13 -1c3 0 7 0 10 2l5 3h7h4c3 7 5 16 7 25c5 19 10 36 18 55l2 8l3 1c-2 16 6 28 11 37c2 5 5 9 6 12l1 5l4 4l9 6c5 33 36 52 54 64l13 9l8 -9c10 3 21 4 32 4c34 0 67 -16 87 -40
c15 -22 20 -47 13 -75l-2 -15l-17 2c-22 3 -57 7 -77 33c-33 0 -51 -54 -52 -89c0 -8 -3 -15 -8 -20v-11c4 -2 8 -4 9 -7h8c19 0 37 -6 50 -13l10 -4s6 0 10 -3s2 -29 2 -29l-16 -18l-5 -2v-4c0 0 -2 -13 -5 -15c-2 -2 -15 -1 -15 -1h-4h-6l-6 -12l-14 1h-5h-12
c-5 -1 -10 -1 -15 -1s-10 0 -14 1c-4 -19 -6 -38 -9 -56c-3 -33 -7 -70 -21 -103c3 -50 -9 -98 -20 -144c-3 -15 -7 -28 -9 -41c8 -34 -2 -69 -27 -89c0 0 -12 -8 -16 -8s-8 8 -8 8z" />
    <glyph glyph-name=".notdef" horiz-adv-x="600" 
d="M66 -54l-10 2c-23 5 -37 22 -38 44c-2 2 -4 5 -6 9c-2 5 -2 9 -1 14c-5 10 -5 21 -2 30l-2 29l8 1c2 8 4 16 7 22c2 3 3 8 4 10c0 0 -7 5 -9 15c7 6 11 16 11 16s2 3 1 9l-1 7l4 4c1 1 2 7 3 11c2 7 4 15 8 23c2 3 4 6 7 8l-2 3l3 7c3 7 4 16 5 25c1 8 2 17 5 24
c-1 20 3 39 6 55c1 7 2 14 3 20l1 7l4 4c3 3 5 6 4 8l-3 6l2 8c5 19 7 40 5 66v3l4 23l3 4c7 9 9 26 4 33l-1 1v0c-6 14 -6 26 -5 37c0 7 1 12 -1 14c-9 18 -6 40 6 54c-1 2 -1 4 -2 6c-6 4 -12 10 -16 17l-3 4v5c0 17 9 30 16 40l4 4l1 2l1 1c9 9 21 12 32 12s21 -2 30 -5
c6 -2 11 -3 14 -3h1h5l4 -1v0h5c3 1 7 2 12 2c6 0 11 -2 16 -4l2 -1l1 -2v0c4 0 9 2 13 3l2 1l13 1h31v-7h2h7c4 0 8 0 12 1c0 0 29 8 35 7c-1 -3 0 -6 0 -6l4 1h3c5 0 10 -1 15 -1c3 -1 6 -1 8 -1h1h1h95l35 -8c6 7 10 12 12 16l2 11l39 8h19l7 -30l-13 -28l-10 -15l2 -2
l1 -3c19 -23 18 -41 14 -53l-2 -7l-5 -3c-1 -1 -3 -2 -4 -3v-1l-2 -7c-2 -7 -6 -19 -4 -32c4 -14 1 -26 -1 -35c-1 -3 -2 -6 -2 -9v-1v0c-2 -5 -3 -10 -5 -14c-1 -4 -4 -12 -4 -14c0 0 4 -7 8 -9c1 -4 -7 -14 -7 -14c-1 -1 -1 -4 -1 -6c-1 -6 -3 -14 -8 -21
c1 -9 -2 -18 -3 -26c-1 -3 -2 -6 -2 -8c-1 -8 -3 -14 -5 -20c-3 -10 -4 -16 -2 -19l3 -4v-5c1 -16 -1 -33 -5 -48c0 -10 -4 -17 -6 -25c-3 -9 -4 -15 -3 -18l3 -6l-1 -7c-1 -3 -2 -6 -2 -7c-1 -5 -2 -10 -1 -12l3 -7l-3 -8c0 -1 0 -3 -1 -5c-5 -14 -11 -27 -8 -39
c6 -12 4 -25 3 -32v-1l1 -1c1 -2 3 -3 5 -5c8 -7 21 -17 27 -33l2 -4l-1 -5c-5 -26 -27 -46 -59 -55c-1 -1 -2 -2 -4 -2c-10 -7 -21 -15 -38 -16h-4l-4 1c-16 7 -35 9 -59 10h-4l-6 4c0 1 -2 2 -8 2c-4 0 -8 0 -12 -1h-2c-9 -1 -18 -2 -27 -2c-8 0 -16 0 -24 1h-20
c-13 0 -24 -1 -33 -3l-8 -3l-6 5c-4 3 -10 4 -16 4s-11 -2 -13 -5l-5 -7l-9 -1c-17 -2 -35 -5 -53 -9c-8 -2 -18 -4 -27 -5c-5 -6 -12 -11 -17 -15c-1 -1 -3 -2 -3 -3zM176 74c6 -1 12 -2 18 -2c12 0 22 2 30 6l3 1l2 1c15 2 29 2 40 2c15 0 28 0 41 3l4 1l6 -3
c5 -2 10 -2 18 -2h5h6c5 0 12 0 17 -1l7 -1c3 1 7 3 10 4l-1 5c-1 8 -5 17 -10 25l-11 11l1 12c0 1 -1 2 -1 3l-4 5v7v5c-3 2 -9 5 -17 9l-9 3l-2 9c-2 5 -2 10 -2 14c-14 9 -24 21 -28 37c-1 3 -3 6 -5 10c-1 2 -2 5 -4 7c-2 -2 -4 -5 -6 -7c-3 -4 -7 -9 -11 -13
c-3 -3 -5 -7 -8 -10c-6 -10 -14 -20 -21 -31v0v0c-7 -10 -14 -18 -21 -26c-7 -6 -12 -14 -17 -21v-1v0c-2 -3 -3 -7 -4 -12c-1 -8 -3 -17 -9 -25c-5 -8 -11 -17 -17 -25zM169 333c4 -24 -1 -45 -3 -67c-4 -16 -8 -34 -6 -50v-5l-2 -5c-2 -3 -4 -7 -6 -11
c-3 -6 -6 -12 -8 -18l3 3l1 2l3 2c10 7 15 21 19 36c4 9 7 19 12 28c7 13 18 24 28 33c5 6 10 12 14 18c5 5 10 11 15 16l7 7c-9 20 -17 38 -25 58c-4 10 -4 19 -5 28c0 7 0 13 -1 18v1l-1 1c-2 9 -7 18 -12 25c-3 7 -7 13 -10 20v-3c-1 -6 -2 -13 -1 -16c0 0 5 -18 4 -21
c-5 -1 -8 -4 -8 -4c4 -30 -6 -59 -14 -83c-1 -4 -2 -9 -4 -13zM350 299c6 -11 13 -20 23 -29c13 -12 27 -23 36 -41v-1v0c1 -4 2 -8 4 -11c0 5 1 12 4 18l1 2v0v2c-1 2 -1 4 -1 6c-2 11 -2 24 0 34c2 8 6 15 11 21l-2 7c-6 39 5 73 15 105c7 25 14 46 15 70c-1 2 -1 4 -1 6
c-12 -21 -26 -42 -41 -66v0c-8 -14 -16 -28 -25 -43c-14 -24 -27 -47 -44 -71c2 -3 3 -6 4 -7c0 -1 1 -2 1 -2zM296 431l7 -3l1 -18c1 0 1 1 1 1c8 14 18 28 28 39c13 16 25 32 33 47c8 16 17 31 25 45c7 10 14 22 19 34l1 2v0c-2 2 -5 4 -7 7c-4 4 -9 5 -13 5h-3
c-6 -1 -11 -3 -15 -5l-4 -2h-11l-12 4l-7 1h-13c-18 0 -37 -1 -58 -3c-9 -1 -21 -2 -32 -2c10 -18 21 -38 26 -60c1 -1 1 -2 1 -3c1 -4 1 -8 2 -10l8 -4l12 -9l2 -3c10 -16 3 -30 0 -38c-1 -1 -1 -2 -2 -3l13 -7z" />
    <glyph glyph-name="space" unicode=" " horiz-adv-x="278" 
 />
    <glyph glyph-name="exclam" unicode="!" horiz-adv-x="333" 
d="M122 -22c-25 0 -44 18 -51 41v1v1c-5 33 -3 59 6 82l1 1l2 3c3 5 6 7 9 11v9l7 15s6 11 13 14s11 0 11 0v0l8 4v0c7 3 12 5 19 5c37 0 60 -35 64 -68v-4l-1 -2c-12 -44 -39 -80 -63 -104l-3 -3l-4 -1c-4 -3 -11 -5 -18 -5zM154 205c0 0 -14 0 -18 5c-2 3 -2 15 -2 15
c-1 9 -4 18 -8 27c0 0 -2 4 -2 8c0 5 2 8 2 8c12 30 20 66 29 100c7 26 15 57 26 84c0 3 0 5 1 7v3v2l3 14l2 7v1c-2 14 -2 28 3 41c0 0 -4 4 -5 9c0 7 4 15 4 15c4 6 11 18 8 28c0 0 -2 11 0 17c5 1 7 6 7 6c0 9 4 20 10 28c0 0 -5 6 -5 13c9 6 9 15 9 15c-2 17 2 36 16 50
v9l4 12s9 16 19 19c11 -8 17 -7 17 -7s8 3 12 1c6 -3 10 -11 10 -11l1 -1l21 -3c6 0 11 -1 16 -2c0 0 11 -2 13 -4c3 -2 3 -13 3 -13c3 -89 -26 -174 -57 -252c-11 -31 -22 -66 -32 -97c-2 -11 -6 -21 -9 -28c-7 -23 -14 -42 -11 -63l1 -12l-8 -7c-2 -3 -5 -8 -8 -15
c-2 -4 -3 -8 -5 -11l-3 -6l-5 -4c-6 -2 -11 -5 -15 -7c-7 -2 -12 -5 -14 -8c0 0 -8 -5 -14 -5c-6 8 -16 12 -16 12z" />
    <glyph glyph-name="quotedbl" unicode="&#x22;" horiz-adv-x="474" 
d="M200 426c-43 15 -58 61 -41 125v0v1c11 39 28 77 43 113c9 19 17 38 24 57l5 12l13 1h12c15 0 37 -1 55 -10c23 -10 36 -29 37 -52v-4l-1 -3c-11 -34 -27 -64 -43 -93c-19 -35 -36 -67 -45 -103l-1 -4l-2 -3c-6 -8 -14 -13 -21 -17c-5 -3 -8 -5 -9 -7c0 0 -2 -11 -8 -14
s-18 1 -18 1zM371 423c-12 0 -23 7 -29 18v1s-7 -1 -11 2c-3 3 -6 13 -6 13c-17 63 10 115 36 166c13 26 26 50 33 76l3 13l14 2c4 0 9 1 14 1c28 0 57 -9 91 -29l13 -7l-4 -15c-2 -8 -5 -15 -10 -25c-1 -3 -3 -6 -5 -11v0v0l7 -12l-10 -11c-26 -30 -46 -64 -67 -98
c-9 -16 -19 -32 -29 -47c-3 -7 -8 -11 -11 -14c-1 -1 -3 -3 -3 -4l-1 -10l-10 -5c-5 -2 -10 -4 -15 -4z" />
    <glyph glyph-name="numbersign" unicode="#" 
d="M341 -40c-10 0 -18 4 -25 6c-4 2 -9 4 -11 4v0s-10 -4 -15 -1c-6 2 -10 13 -10 13c-18 56 -3 107 12 158c6 28 14 53 17 80c-8 -1 -14 -1 -21 -2c-16 -1 -30 -1 -40 -8c-4 -17 -8 -33 -12 -53c-11 -53 -23 -113 -74 -150c0 0 -12 -9 -20 -7c-7 13 -16 10 -16 10l-6 -5
l-11 20c-22 40 -10 83 -1 120c5 16 9 32 11 46c-4 0 -8 -1 -9 -2l-5 -5l-5 -1c-6 -1 -13 -2 -20 -2c-18 0 -34 4 -48 14c-16 11 -25 28 -28 44c-7 21 4 38 10 46c3 4 6 8 6 11l2 7l6 4c14 10 28 12 38 12c4 0 8 -1 13 -1h10c11 0 13 2 16 6c0 0 4 5 9 5c4 2 12 0 12 0
c7 -1 13 -2 18 -2c4 0 7 0 9 2c11 12 15 24 16 35c-7 -2 -14 -3 -20 -3c-12 0 -24 3 -34 10l-3 2l-2 2c-22 29 -20 54 -17 80l1 4l13 21l8 2c15 3 31 5 44 8c15 2 30 4 42 7c19 47 33 96 46 144c7 28 16 57 25 84l2 8l8 4c7 3 19 10 35 10c15 0 27 -5 35 -15l1 -2l1 -1
c18 -26 18 -50 18 -66v-3v-4l-1 -3c-2 -5 -4 -9 -6 -14c-8 -17 -16 -36 -12 -50l4 -12l-9 -7c-15 -15 -23 -37 -30 -62c11 1 23 3 32 4c13 2 26 4 40 5l3 3c-1 4 -1 9 0 15v2l1 1c8 18 12 38 15 61c2 12 4 24 6 35l1 1c1 4 2 8 3 13c4 18 9 36 17 52c12 24 33 31 48 31h2h2
c21 -3 29 -19 34 -30c3 -5 5 -10 7 -11l12 -7l-4 -14c-4 -21 -9 -43 -13 -63s-8 -38 -13 -58l10 -5c3 -1 6 -1 9 -1c6 0 11 1 18 2c8 2 17 4 27 4c14 0 25 -5 36 -14l10 -8c-6 -5 -4 -11 -4 -11c12 -6 18 -13 22 -22c0 0 5 -12 3 -17c-2 -3 -10 -8 -10 -8
c-4 -2 -7 -3 -11 -5c0 -2 -1 -3 -1 -5c-1 -2 -2 -5 -3 -8l-2 -9l-9 -3c-24 -11 -50 -13 -73 -16c-16 -2 -32 -5 -44 -8c-3 -14 -7 -27 -12 -38l-6 -18c5 2 10 3 16 3h4c6 4 14 6 22 6c29 0 48 -29 63 -48c3 -5 6 -9 9 -13c0 0 5 -9 5 -13c0 -5 -12 -18 -12 -18
c0 -1 0 -2 -1 -3c-2 -14 -13 -21 -20 -26c-2 -1 -4 -3 -5 -4c0 0 0 -9 -1 -9c-2 -2 -12 -5 -12 -5c-6 -2 -13 -3 -21 -3c-13 0 -25 2 -35 5c-9 1 -18 3 -25 3c-5 0 -9 -1 -13 -2c-12 -24 -20 -50 -30 -79c-5 -19 -10 -39 -14 -60c-2 -8 -4 -16 -6 -26c-1 -4 -1 -9 -1 -14
c-3 -29 -8 -66 -42 -89l-4 -3h-4h-3zM287 388c-11 -19 -20 -42 -26 -64c30 1 59 4 86 10c9 23 18 44 21 68h-5c-17 0 -33 -4 -52 -9c-8 -1 -15 -4 -24 -5z" />
    <glyph glyph-name="dollar" unicode="$" 
d="M186 -88c-1 6 -3 13 -5 22c-2 12 -5 25 -5 38c-29 1 -51 13 -75 26c-15 8 -26 15 -40 18l-5 1l-4 4c-41 47 -55 116 -34 175l3 10l11 3c4 2 8 2 13 2c17 2 20 4 21 9l3 13l12 3h6c11 0 19 -5 24 -9h2c0 0 5 6 13 5c4 -1 10 -14 10 -14c14 -21 10 -52 -6 -70
c0 -7 2 -14 4 -20c15 -2 25 -12 32 -18l6 -6c7 3 13 4 20 4h7c20 22 27 54 31 86c6 24 11 52 24 75c-4 22 2 40 8 55c-5 4 -14 7 -25 10c-18 6 -45 14 -55 41c-25 22 -37 53 -32 90c4 39 23 74 32 90l1 2l5 5l1 10l3 4c9 12 20 20 30 27c4 2 7 5 10 8l1 5l4 11l4 3
c18 15 37 21 57 26c21 6 38 12 49 29c0 0 3 5 6 8c3 1 13 1 13 1c3 11 9 23 13 33c6 11 11 21 13 30l2 11l11 5c13 5 25 8 38 8c15 0 28 -4 39 -11l7 -4l2 -7c5 -15 2 -30 0 -42c-1 -5 -2 -9 -2 -13v-2l-1 -2c-1 -2 0 -4 2 -6c1 -1 4 -2 6 -2h3l10 2l8 -5
c31 -25 55 -56 79 -86l11 -12l-4 -11c-1 -2 -1 -6 -1 -11c0 -6 0 -15 -3 -22l-1 -3l-2 -2c-10 -14 -25 -21 -40 -21c-28 0 -51 19 -58 42c-7 14 -23 23 -36 23c-5 0 -10 -1 -14 -3c-15 -33 -18 -69 -22 -106c-2 -22 -3 -44 -6 -67c5 -3 11 -6 17 -11c9 -6 14 -10 20 -10v0
s11 1 14 -3c0 -8 4 -12 4 -12c1 -1 2 -2 3 -2c4 -3 10 -8 14 -14c19 -9 37 -27 46 -62c5 -23 5 -48 1 -81l-1 -4l-4 -4c-3 -3 -6 -8 -9 -12c-5 -11 -12 -23 -26 -30c-13 -35 -36 -65 -70 -93c-26 -19 -58 -38 -100 -55c-10 -12 -13 -29 -18 -49c-6 -25 -12 -53 -36 -74
l-3 -3l-3 -1c-6 -2 -11 -3 -17 -3c-9 0 -17 3 -24 5c-4 1 -8 3 -12 3c-1 0 -2 -1 -3 -1c0 0 -13 -6 -20 0s-7 18 -7 18zM356 179c0 -8 -2 -14 -3 -18c-1 -1 -1 -2 -1 -3c12 7 24 14 38 19c5 8 11 16 16 24c13 16 22 32 22 49c-6 5 -13 11 -21 16c-10 9 -21 18 -30 18h-2
l1 -5v-10l-1 -4c-5 -10 -7 -23 -8 -38c-2 -15 -4 -31 -11 -48zM324 551c-9 -5 -18 -14 -28 -22c-3 -4 -6 -7 -10 -10l-1 -2l-3 -1c-19 -11 -17 -32 -14 -41c3 -16 12 -29 27 -35c14 36 24 73 29 111z" />
    <glyph glyph-name="percent" unicode="%" horiz-adv-x="889" 
d="M422 7c0 0 -3 8 -9 9c-3 10 1 20 2 28c2 9 1 25 -4 29c4 14 8 17 10 20c0 21 9 36 17 48c10 16 13 23 10 32l-4 8l7 9c5 10 12 19 19 30c9 12 19 26 29 39l1 1l1 1c0 1 0 2 1 3v8l12 4c3 1 7 2 11 4c13 5 25 10 30 20l4 8l10 2c6 1 15 6 23 11c11 6 27 16 44 16
c9 0 16 -3 24 -8c3 1 7 3 10 5c4 1 8 3 12 5l8 3l10 -6s12 0 19 -4c6 -4 9 -11 9 -11l2 -4c13 -1 26 -8 36 -20c11 -11 18 -26 20 -42h1l7 -7l2 -11v-7v-4c0 0 3 -5 1 -14s-10 -21 -12 -24c4 -11 1 -26 -9 -37l-2 -2l-2 -10s2 -6 1 -9c-1 -2 -18 -12 -18 -12
c-8 -4 -12 -12 -18 -21c-5 -7 -10 -14 -17 -20l-4 -4l-4 -1l-2 -7l-7 -4c-2 -2 -4 -3 -6 -4s-5 -3 -7 -5l1 -11l-11 -6c-9 -5 -18 -12 -26 -21c-6 -5 -9 -11 -15 -16l-3 -2h-11l2 -7c-6 -18 -24 -22 -30 -24c-2 -1 -5 -2 -6 -2l-6 -8h-10h-4c0 0 -17 -15 -23 -15
c-9 0 -11 6 -11 6c-2 0 -6 -1 -9 -2c-6 -2 -12 -4 -19 -4s-12 2 -17 6c-3 -1 -16 -3 -24 0c-5 1 -5 6 -5 6s-11 5 -22 2c-5 7 -4 18 -4 18v4h-1l-8 4l-2 8c-2 3 -2 8 -3 12c0 2 0 6 -1 7zM544 131c-14 -22 -17 -44 -10 -63h2c31 0 58 34 66 50l3 3l3 3c33 18 62 56 62 95
c-4 0 -9 0 -14 2l-6 -7l-20 5l-5 1c-6 -6 -11 -12 -11 -16l-1 -12l-10 -5c-24 -12 -48 -34 -59 -56zM860 713c1 -7 -2 -17 -2 -17c-1 -2 -2 -4 -2 -6c-5 -12 -12 -29 -27 -37c-3 -11 -11 -19 -17 -24c-2 -3 -7 -8 -7 -9c0 0 -1 -11 -4 -14s-12 -4 -12 -4
c-13 -2 -24 -12 -36 -25c-9 -9 -20 -19 -35 -27c-1 -4 -2 -8 -4 -12l-3 -6l-6 -3c-20 -10 -37 -27 -55 -47c-14 -15 -31 -33 -52 -47c-12 -15 -26 -32 -40 -48c-41 -50 -84 -102 -117 -159v0v0c-8 -10 -15 -22 -22 -33c-20 -31 -42 -64 -61 -98c3 -1 6 -1 12 -1h6h6
c0 0 13 0 17 -1c1 -4 3 -15 3 -29c0 -15 5 -24 5 -24c-5 -11 -11 -23 -5 -34l-17 -6c-12 -4 -24 -13 -35 -21c-20 -14 -42 -31 -73 -31h-5l-12 1l-2 6c-2 0 -4 0 -5 -1c0 0 -12 -3 -20 2c0 10 -6 16 -6 16h-9v18v3l-7 7l1 10c4 54 27 101 48 147c8 16 16 30 23 47l1 2l1 2
c17 20 29 44 43 67c24 40 46 80 82 110c0 0 8 16 13 21c6 6 10 6 10 6c13 18 27 36 49 47c12 33 38 55 62 73c6 6 13 12 20 18c-5 -1 -9 -2 -14 -4c-14 -4 -29 -9 -47 -9c-5 0 -12 1 -18 3l-2 -1l-5 -21l-8 -3c-1 -4 -3 -9 -5 -13l-1 -1l-4 -6l4 -8l-6 -9
c-15 -30 -35 -58 -52 -81l-2 -3s-16 -13 -34 -18c-5 1 -9 3 -9 3c-41 -36 -86 -63 -132 -77h-1c-12 -4 -23 -5 -37 -5c-17 0 -39 2 -61 16c-21 11 -34 31 -37 56l-1 7l6 7c2 3 3 5 3 6c0 2 -1 3 -1 5c-1 7 -3 17 0 26l-4 5l13 19c1 1 1 2 1 2s3 9 -3 13c3 7 9 10 9 10
c8 8 12 21 17 36c1 4 2 8 4 11c0 0 3 11 3 18c3 8 8 10 8 10h10l6 5c4 9 10 16 15 22c3 3 5 6 7 9l3 4l5 3c11 5 16 18 22 29c2 3 3 7 5 11c0 0 4 8 8 11c6 2 13 -1 13 -1c5 4 9 7 13 9l3 3c0 0 3 3 4 12c3 4 14 4 14 4c9 0 18 2 27 4c6 2 15 4 23 5l-1 7c10 3 19 9 28 17
c0 0 5 8 11 8c11 -2 21 -17 21 -17s4 3 8 2c2 -4 5 -7 5 -7l1 -1v1c3 2 4 5 6 7c0 0 9 8 20 7c5 -11 13 -14 13 -14c13 -4 22 -11 31 -18c7 -3 13 -7 18 -9c12 5 22 6 35 6h5h4c17 0 18 2 18 5c0 0 2 11 9 13s18 -2 18 -2c6 -3 12 -5 18 -5c12 0 27 7 42 14
c17 8 37 17 59 17h4l8 8l10 -2c8 6 18 8 25 11c4 1 6 2 8 3c4 2 8 5 12 9c11 9 24 20 41 21h4h4c8 -2 14 -7 18 -11c1 -1 2 -1 2 -2c0 0 6 -8 13 -5c7 -10 5 -19 5 -19s2 -5 11 -7zM367 537c4 9 2 20 -3 28c-4 4 -8 4 -9 4c-22 -24 -45 -36 -67 -36h-2
c-5 -6 -10 -12 -15 -16c-25 -27 -42 -46 -37 -71l1 -5l-1 -8l4 -2l6 -1c12 7 24 12 37 17c19 8 36 15 50 25c19 21 30 43 36 63v1v1z" />
    <glyph glyph-name="ampersand" unicode="&#x26;" horiz-adv-x="722" 
d="M209 -23c-7 7 -17 14 -25 14h-1s-9 0 -11 2c-3 2 -7 10 -7 10v1c-1 1 -8 2 -12 3c-2 1 -4 1 -6 2l-15 3v8s-14 -2 -17 14c-3 15 -12 15 -12 15c-1 2 -2 3 -3 5c-3 9 -8 19 -10 30l-9 15c-34 56 -1 117 22 161c1 2 2 4 3 5l6 11h9c11 29 26 58 47 85l6 7h8c7 0 11 4 21 18
c8 12 17 26 30 34c2 5 5 10 8 11c3 3 6 6 9 8c4 14 14 25 22 33c-9 18 -14 41 -14 64c1 27 9 54 20 79l2 2l11 10c5 17 19 29 33 38v6l13 9c6 7 14 12 20 16c9 6 14 10 18 18c3 6 5 11 11 16c13 4 19 -7 19 -7c3 1 5 2 8 3c6 5 14 9 21 14l9 7l15 -6c2 0 3 -1 4 -1h4h15v-4
c4 1 8 1 12 1h7l5 -1l4 -3c11 -8 25 -15 39 -22c9 -5 17 -10 25 -16l8 -4l2 -9c1 -5 2 -9 3 -14c6 -23 12 -47 7 -75l-2 -7l-5 -5c-29 -22 -58 -49 -84 -74c-27 -25 -53 -49 -83 -73c0 -7 1 -12 2 -12l11 -6v-12v-2c0 -2 1 -5 1 -8c14 -17 24 -39 34 -60
c8 -20 18 -42 34 -57c5 3 9 8 14 19c4 9 9 17 16 25h1v0c7 7 14 12 21 15c6 4 10 8 13 12c7 7 13 16 19 26c5 8 10 14 16 22l4 5l7 3c1 2 2 5 2 8c2 10 6 22 17 32c0 0 2 7 -1 14c3 5 13 9 13 9c5 2 9 3 13 3c8 0 16 -4 22 -9h7c9 0 18 -4 23 -11s9 -15 8 -23v-2l1 -1
c3 -2 8 -5 13 -7l12 -6l-1 -14c-1 -14 -5 -27 -11 -41c0 0 -5 -13 -12 -16c-5 5 -11 4 -11 4c-1 -6 -4 -11 -6 -15c-1 -5 -3 -9 -3 -12c0 0 -4 -14 -6 -18c-4 -3 -10 -4 -10 -4c-4 -13 -12 -23 -19 -34c-6 -8 -12 -16 -14 -23l-4 -9l-10 -2v-10l-9 -5l-8 -8
c-6 -7 -15 -16 -29 -18c-4 -9 -8 -22 -18 -32c0 0 6 -3 14 -2c4 -2 3 -17 3 -17c0 -17 15 -31 30 -44c4 -3 9 -7 13 -11l10 -9l-6 -13c-4 -8 -9 -14 -13 -19c-4 -4 -7 -9 -8 -13l-3 -15l-16 1c-32 1 -63 18 -80 43c-5 5 -9 11 -13 16c-5 5 -9 10 -13 13c-8 0 -15 -7 -22 -17
l-11 -11l-8 4c-19 -16 -40 -27 -62 -38c-5 -3 -10 -5 -15 -8h-1v-1c-7 -3 -16 -7 -24 -10c-21 -9 -41 -18 -65 -18c-5 0 -9 1 -13 1c0 0 -3 -9 -7 -11c-5 -2 -17 2 -17 2c-2 1 -5 1 -7 2c0 0 -4 -9 -12 -10c-6 0 -16 8 -16 8zM208 109c9 -7 17 -10 28 -10v0
c26 0 54 14 78 26c1 0 2 1 3 1c13 16 34 27 52 37c12 7 24 14 33 23v0c-8 3 -18 9 -26 19l-1 1v0c-11 21 -19 41 -22 63c-11 6 -19 17 -23 34c-9 8 -10 20 -11 30c-80 -79 -115 -152 -111 -224zM384 567c5 3 12 1 14 1c16 0 28 16 36 34c0 0 2 6 6 8c3 3 13 5 13 5l2 2l6 9
l1 1l-7 -3l-16 -1c-24 -14 -50 -30 -64 -51l-5 -12z" />
    <glyph glyph-name="quoteright" unicode="&#x2019;" horiz-adv-x="278" 
d="M149 434c-6 0 -13 2 -19 6c0 0 -12 6 -12 10c-1 4 3 15 3 15c4 9 10 17 15 25c4 7 8 13 10 19c-1 19 8 33 16 45c3 5 6 10 8 15l-7 11l-2 19l4 13c5 24 15 43 31 59l1 2l2 1c9 6 19 13 28 20c0 0 10 8 14 9c11 -1 17 -9 17 -9c9 2 18 4 28 5l9 1l6 -6
c12 -10 25 -29 20 -59c-3 -18 -11 -35 -19 -50c-2 -3 -3 -7 -5 -10l-1 -2l-1 -2c-5 -6 -9 -13 -13 -21c-12 -20 -26 -42 -50 -55c-5 -12 -15 -18 -22 -23c-3 -2 -8 -5 -9 -6l-2 -9l-9 -4c-2 -1 -5 -3 -8 -5c-8 -6 -19 -14 -33 -14z" />
    <glyph glyph-name="parenleft" unicode="(" horiz-adv-x="333" 
d="M177 -231c-5 0 -12 2 -19 5l-7 2l-3 7c-16 31 -36 78 -38 129c-24 35 -32 77 -39 117c-1 4 -2 8 -3 11c-10 42 -10 85 -8 121v0c3 49 9 91 16 128c2 13 5 24 8 35c4 13 8 26 7 38v6l2 5c7 12 11 27 15 42l1 5l27 30c3 26 15 47 26 69c7 11 13 23 17 36l4 10l17 4
c6 5 9 11 14 23c3 8 7 17 11 26l1 1l1 1c6 6 12 10 18 13c2 1 4 3 6 4v5l6 18l15 5l1 2l3 10l8 13l14 9c17 21 43 49 79 49h4l11 -1l6 -10c2 -3 6 -7 10 -11c8 -6 17 -15 22 -29l3 -8l-4 -8c-10 -18 -19 -37 -35 -53l-12 -11l-18 -1c-9 -9 -10 -11 -19 -23
c-8 -11 -16 -22 -26 -33c0 -7 -2 -15 -6 -22l-2 -2l-1 -2c-20 -17 -33 -41 -46 -66c-11 -20 -22 -39 -37 -58c-4 -12 -7 -24 -10 -36c-7 -24 -13 -47 -25 -70c-9 -89 -16 -176 8 -257l1 -3v-2c2 -30 10 -59 19 -90c5 -23 12 -47 16 -71c12 -14 10 -32 9 -43v-11v-9l-6 -6
c-3 -3 -5 -6 -9 -10c-11 -13 -27 -33 -53 -33z" />
    <glyph glyph-name="parenright" unicode=")" horiz-adv-x="333" 
d="M25 -232c-27 0 -52 22 -56 49v1v1c-1 27 16 50 26 63c2 3 3 6 5 8c8 16 15 30 24 45v1l1 1c1 2 2 3 4 7c2 5 5 11 10 18c1 2 3 5 5 8c15 24 31 50 39 76l1 3l2 3c4 5 7 9 11 13s8 8 11 13c4 8 7 16 10 25c4 11 8 23 14 34c3 5 5 10 7 16c1 4 3 8 4 12c5 11 9 21 14 31
c9 22 18 41 22 62c1 11 2 22 3 32c4 47 8 96 7 144c-12 58 -31 131 -80 181c-19 10 -27 29 -33 45l-6 12c0 0 -3 6 -3 9c0 2 4 9 4 9l6 12c8 16 20 40 49 44c3 0 6 1 9 1c38 0 59 -38 70 -56v-1v0c2 -4 2 -8 4 -13l4 -12l2 -7l5 -3l12 -9l2 -5c44 -95 65 -184 60 -266v-2v-1
c-3 -13 -1 -29 1 -40v-5l-1 -4c-4 -9 -4 -19 -3 -30v-10v-1l-1 -3c-2 -10 -3 -20 -4 -32c-2 -22 -4 -49 -20 -71c-2 -7 -4 -15 -6 -23c-4 -19 -8 -39 -17 -58c-2 -5 -4 -10 -5 -16c-5 -16 -11 -35 -29 -47c-6 -13 -12 -27 -19 -41c-5 -12 -11 -25 -18 -38l-9 -15
s-12 -1 -13 -2c-1 -3 -2 -5 -3 -7c-4 -10 -10 -19 -16 -25c-16 -42 -43 -78 -69 -112c-3 -5 -6 -9 -10 -14l-4 -5l-5 -2c-6 -2 -12 -3 -18 -3z" />
    <glyph glyph-name="asterisk" unicode="*" horiz-adv-x="389" 
d="M205 340h-5c0 0 -11 1 -14 4c-4 4 -5 14 -5 14s-4 2 -9 2c-1 6 -3 15 -3 15c-4 23 3 48 9 66c2 7 4 13 5 19l-9 -3c-15 -4 -28 -8 -44 -8c-11 0 -21 2 -29 5l-10 4l-2 11c0 2 0 4 -1 6c-1 5 -2 12 -5 16c0 0 -6 8 -6 12s5 11 5 11c2 2 3 3 4 5c0 0 0 8 3 9c2 1 14 2 14 2
c19 1 38 2 49 12l3 3l5 1c17 3 28 6 36 12c-21 17 -44 30 -67 40l-8 3l-3 8c-4 8 -6 16 -7 21c-1 9 -3 16 -5 20c0 0 -6 6 -6 9c-1 4 5 31 9 34c5 3 17 1 17 1c43 -6 84 -26 113 -59l3 6c8 23 18 41 19 64c0 0 1 12 1 13c3 3 8 4 8 4l4 8c2 5 4 9 6 12l2 2s5 7 4 17
c7 4 18 1 18 1c14 -3 26 -10 36 -17c5 -5 11 -9 18 -11l12 -4l1 -12c2 -25 -3 -47 -9 -69v1l14 -4h1c2 0 6 3 10 5c4 4 9 8 16 10l14 4l8 -12c3 -3 8 -7 12 -11c11 -10 29 -20 29 -45v-11l-10 -6c-24 -14 -54 -27 -80 -39c-13 -5 -26 -11 -36 -13c0 0 7 -1 10 -4
c0 -4 1 -11 1 -11c3 -10 11 -19 20 -28c5 -5 11 -9 16 -16c9 -14 12 -31 6 -44c-6 -21 -31 -37 -52 -37h-2l-14 1s-3 6 -6 7c-4 2 -11 2 -11 2l-4 9c-4 8 -9 22 -22 26c-7 -12 -9 -30 -11 -48c-1 -3 -2 -7 -2 -12l-1 -8l-7 -5c-14 -13 -35 -20 -56 -20z" />
    <glyph glyph-name="plus" unicode="+" horiz-adv-x="584" 
d="M292 82c-31 0 -53 29 -54 60c-3 32 -2 65 15 97c-2 7 -1 17 0 26v5c-11 -4 -23 -6 -33 -7c-15 -3 -27 -5 -34 -13l-8 -8l-10 2c-3 0 -5 1 -9 1c-7 0 -16 -1 -24 -2c-10 -1 -18 -3 -28 -3c-4 0 -8 1 -11 1l-11 1l-5 8c-9 23 -13 44 -15 65l-1 9l4 7c24 31 60 42 94 51
c17 5 35 8 50 16l6 5l10 -4c4 -2 9 -3 15 -3c9 0 19 2 28 7c0 3 0 7 1 11c0 13 1 31 17 44c5 15 9 28 13 45c8 31 13 67 36 94c0 7 1 13 5 19s10 10 15 14c2 1 3 3 3 3l6 10l11 -1c19 -1 32 -6 47 -10l12 -4l3 -7c17 -42 4 -81 -8 -115c-7 -21 -14 -38 -15 -58v-7l-12 -15
s0 -1 -1 -2h2c12 0 28 2 45 4c14 1 32 3 49 3c30 0 76 -6 106 -52c0 0 3 -8 3 -12c0 -5 -4 -12 -4 -12c-26 -31 -68 -52 -112 -52c-15 0 -29 2 -40 6c-19 -11 -42 -18 -67 -19c-7 -8 -8 -24 -5 -37l3 -9l-6 -5c-16 -20 -12 -48 -9 -63l2 -6l-3 -7c-1 -1 -2 -3 -3 -5
c-10 -24 -24 -55 -53 -71v-1l-2 -1c-6 -2 -12 -3 -18 -3z" />
    <glyph glyph-name="comma" unicode="," horiz-adv-x="278" 
d="M42 -167c-9 0 -18 3 -26 8c0 0 -9 6 -10 13c-2 8 6 17 6 17c23 26 37 60 50 99c-6 3 -10 4 -15 4l-11 2l-3 9c-19 40 -9 92 22 125v0l1 1c8 7 18 11 26 16c2 2 5 4 8 6c21 14 44 32 76 32h3h5l5 -3c18 -13 28 -33 29 -57c1 -20 -3 -39 -7 -57c-2 -8 -3 -15 -4 -21v-1
l-1 -1c-3 -12 -11 -24 -16 -34c-2 -4 -4 -8 -6 -11c-3 -11 -7 -26 -15 -42h-1v-1c-6 -9 -14 -14 -21 -19c-5 -4 -7 -7 -10 -11s-5 -9 -8 -15c-3 -7 -6 -13 -10 -18l-2 -2l-1 -1c-15 -15 -36 -38 -64 -38v0z" />
    <glyph glyph-name="hyphen" unicode="-" horiz-adv-x="333" 
d="M15 217c9 19 24 34 39 49c10 10 18 18 25 28l2 3l5 3c35 19 74 21 109 22c22 1 44 2 65 7l6 2l7 -4c4 -2 9 -3 12 -3s4 0 4 1c0 0 6 5 9 6c2 1 11 -2 11 -2c5 -2 11 -2 18 -3c10 -1 25 -3 33 -6c5 -2 12 -4 15 -9c-2 -6 -4 -9 -3 -16c0 -7 7 -11 7 -11
c-7 -6 -11 -18 -13 -24c-1 -6 -2 -12 -5 -18v0v-1c-21 -29 -54 -44 -99 -44c-14 0 -29 1 -45 4c-56 -11 -115 -12 -171 -13h-15c0 0 -18 -1 -21 6s5 23 5 23z" />
    <glyph glyph-name="period" unicode="." horiz-adv-x="278" 
d="M82 -34c-15 0 -28 6 -38 18c0 0 -5 5 -5 7c-1 3 1 11 1 11c3 9 2 20 2 31c-1 8 -1 19 0 30l1 5l3 4c4 6 8 14 10 22c6 12 12 24 20 35c12 12 26 19 40 19c11 8 23 11 36 11c14 0 31 -4 49 -14l9 -5l2 -8c6 -39 -12 -69 -27 -94c-7 -11 -13 -22 -18 -32l-3 -9l-9 -2
c-5 -2 -13 -6 -22 -10c-16 -9 -32 -19 -51 -19z" />
    <glyph glyph-name="slash" unicode="/" horiz-adv-x="278" 
d="M97 -25c-7 5 -14 11 -21 15c-11 9 -19 18 -31 22l-14 6l1 15c7 82 28 167 62 260c-1 0 -1 1 -2 2c-3 6 -7 16 -8 23c0 7 0 12 5 18c9 -1 15 3 15 3c-1 3 -1 6 -2 8l-1 6l2 6c4 11 9 18 15 21c3 3 6 5 7 7c2 12 3 25 3 40v1v1c3 12 10 21 15 28c3 3 5 6 7 9c0 2 -1 5 -1 7
c-1 5 -3 15 1 26c5 14 10 26 16 37s11 21 15 32v3c1 14 1 34 14 49c1 11 7 22 14 29c1 19 10 34 18 49c6 9 10 17 13 24l2 10l10 4c5 2 11 3 18 3c27 0 46 -17 56 -26l4 -5l1 -6c6 -46 -9 -86 -25 -126c-10 -31 -21 -59 -21 -92v-5l-3 -4c-23 -39 -30 -82 -23 -118
c0 0 4 -12 2 -15c-5 -2 -9 -8 -9 -8s5 -4 4 -7c-1 -4 -10 -13 -10 -13c-2 -3 -5 -5 -9 -8c-1 -11 -4 -21 -7 -29l-1 -5l-1 -2c-9 -14 -10 -24 -7 -27c0 0 8 -9 8 -11c0 -4 -8 -13 -8 -13c-28 -35 -44 -86 -39 -134l1 -12l-8 -5c1 -2 1 -3 1 -4c0 -4 1 -8 1 -12v-9l-6 -5
c-5 -3 -9 -11 -12 -20c-7 -19 -18 -42 -48 -47l-7 -1z" />
    <glyph glyph-name="zero" unicode="0" 
d="M286 -28c-32 0 -63 8 -91 16l-7 1l-4 5c-2 2 -3 4 -5 7c-18 4 -28 19 -36 30c-4 5 -8 10 -12 12v0l-1 1c-13 9 -23 19 -28 29c-6 9 -9 17 -8 27c0 0 -11 4 -12 10c1 5 4 15 4 15c3 10 -2 21 -10 39c-5 12 -11 23 -13 38v1v0c-1 18 2 32 6 48c4 21 8 37 -1 52l-4 9l4 9
c21 43 36 87 54 130c12 29 24 60 35 89l2 6l6 3c17 10 23 27 31 54l2 11l9 2c4 1 7 5 12 12c7 8 14 19 27 25c11 30 41 45 64 57c10 4 20 9 28 13l3 3l4 1h7c7 0 13 -1 18 -2c3 -1 7 -2 9 -2v0s6 8 16 9c6 -8 14 -10 14 -10l6 4l9 -3c3 -1 6 -2 8 -4c7 -1 12 -4 17 -4
c1 0 2 0 3 1c0 0 8 3 15 3c6 -1 12 -11 12 -11c8 -16 22 -29 45 -38l8 -3l3 -8c21 -68 32 -138 42 -204l3 -23l-10 -12c-8 -72 -15 -132 -51 -194c-4 -32 -22 -57 -36 -81c-3 -5 -6 -9 -9 -12c-5 -8 -9 -17 -13 -26c-9 -17 -17 -33 -27 -49l-2 -3l-18 -11l-6 -5
c-1 -7 -5 -15 -12 -22c-5 -5 -13 -9 -19 -12c-2 0 -3 -1 -4 -2c-23 -20 -52 -31 -87 -31zM192 180c3 -45 28 -88 67 -110c18 0 35 7 46 17c1 1 1 3 1 5c2 5 3 11 7 17v0v1c4 5 8 9 12 12v0l-1 11l11 9c3 2 6 5 9 7c2 3 6 7 11 10c10 31 24 63 37 93c23 57 46 110 49 169
c-4 21 -3 43 -1 62c0 13 1 26 1 37v0l-16 13c-3 3 -6 6 -10 9c-12 10 -27 24 -33 42c-2 1 -5 2 -8 5l-3 2s-4 11 -4 12l-3 -3l-4 -4l-4 -1c-49 -15 -67 -61 -88 -111c-10 -21 -20 -46 -31 -66c0 -4 1 -9 0 -15c0 0 -1 -10 -4 -13c-4 -3 -12 -4 -12 -4c-1 -4 -2 -7 -3 -10
c-17 -54 -33 -110 -21 -164v-2v-2c0 -9 -2 -18 -4 -25c0 0 -1 -2 -1 -3z" />
    <glyph glyph-name="one" unicode="1" 
d="M204 -34c-21 0 -37 10 -49 28c-15 21 -19 53 -10 78c0 2 1 3 1 4v0s-1 9 4 14c5 3 19 4 19 4c3 0 6 2 10 5c8 4 18 9 30 9h3h1h2c1 4 2 9 3 14c1 4 2 9 3 13c2 12 3 26 4 40c2 13 3 28 6 44v0c4 13 7 25 11 39c3 12 7 24 9 36l1 1c1 6 2 13 2 19v3l1 2c2 9 4 16 6 26
c5 22 11 42 17 64l1 2l8 10l5 6l4 14l1 12l2 3c4 14 6 27 8 43c0 6 1 11 2 17c-9 -5 -19 -9 -32 -9v0h-5v0c-12 0 -24 5 -33 15c-15 13 -17 35 -16 50v6l4 6c23 24 45 48 56 79l2 4l14 14l6 -2c16 26 39 42 62 55c3 3 5 5 8 7c0 0 7 2 13 2s11 -4 11 -4c3 -3 7 -6 11 -9
c18 -14 47 -35 41 -70c-1 -6 -2 -12 -4 -18c-1 -4 -2 -9 -2 -13v-2l-1 -2c-2 -5 -2 -12 -2 -21c1 -7 1 -15 0 -23v-1v-1c-12 -63 -26 -128 -41 -191c-14 -58 -29 -116 -38 -176v0h-1c-6 -30 -12 -63 -16 -96c14 -2 25 -7 36 -14c18 -12 28 -28 29 -49v-5l-2 -4
c-15 -31 -46 -54 -84 -60l-4 -1l-9 4c-5 -1 -10 -3 -15 -4c-26 -8 -55 -16 -84 -16c-3 0 -6 -1 -9 -1z" />
    <glyph glyph-name="two" unicode="2" 
d="M108 -30c-11 0 -19 1 -30 3l-10 2l-5 9c-2 6 -6 13 -9 20c-10 21 -20 41 -19 69v8l6 4c7 7 13 18 20 29c13 18 26 38 47 50v3l4 5c2 4 6 9 11 12c1 3 1 6 2 8l3 6l4 3c13 11 24 25 37 39c17 22 32 42 59 56c18 37 48 65 76 91c33 30 62 57 76 95l3 7l5 4c6 3 23 11 26 21
l3 8l18 7h1c3 10 7 18 11 25c6 13 9 17 7 22l-6 14l8 7c-4 2 -10 4 -17 7c-3 1 -5 2 -7 3c-5 -2 -11 -3 -17 -3h-8h-4c0 0 -6 -6 -9 -6s-11 4 -11 4s-1 0 -1 1c-3 1 -6 2 -8 4c-33 -8 -58 -24 -72 -45h-1v-1c-14 -22 -36 -51 -70 -56l-1 -1s0 -8 -10 -10c-5 0 -16 6 -16 6
c-12 7 -14 19 -15 24c-1 0 -1 1 -1 1c-1 2 -2 3 -3 5c-11 17 -27 41 -14 69l2 4l3 3c6 6 12 12 17 19c13 17 28 36 51 42v2c0 0 0 11 4 16s17 3 17 3h3c5 0 31 1 37 19c0 0 3 11 10 16c15 -2 22 -8 22 -8l11 3h5s7 4 14 5c6 -2 9 -7 9 -7c2 1 4 1 5 2h1s5 3 6 14
c10 0 22 -6 22 -6c2 -2 5 -2 10 -3c3 -1 6 -2 10 -3c5 4 11 6 18 6c0 0 8 0 10 -2c3 -1 7 -6 7 -6v0c30 0 53 -19 71 -36c11 -9 21 -17 32 -21l7 -4l2 -8c14 -41 11 -82 -6 -127c-17 -36 -42 -68 -68 -100c-20 -27 -39 -51 -53 -78l-3 -6l-6 -3c-16 -9 -30 -25 -44 -44
c-14 -18 -30 -39 -55 -53c-14 -30 -40 -54 -63 -74c-11 -11 -22 -20 -31 -30c19 6 40 18 61 35l5 4h7c3 0 6 0 8 -1h2h14l3 -11c6 1 14 2 21 4c11 2 20 4 32 4c10 0 19 -2 28 -5c17 7 39 11 57 11c21 0 40 -4 54 -12c20 -9 34 -24 43 -41c0 0 5 -10 4 -17
c-6 -5 -8 -10 -8 -10v-1c4 -14 -5 -27 -12 -35c-1 -1 -1 -2 -2 -2l-1 -1l-1 -1c-19 -17 -33 -23 -50 -28h-1h-1h-5c-10 0 -19 3 -25 5c-5 1 -11 3 -14 3h-1v0l-1 -1c0 0 -4 -5 -9 -8c-3 -1 -13 2 -13 2c-10 3 -23 4 -37 4c-22 0 -46 -4 -69 -8c-16 -3 -33 -6 -49 -8
c-23 -4 -47 -12 -70 -21c-34 -12 -71 -25 -110 -25z" />
    <glyph glyph-name="three" unicode="3" 
d="M205 -27c-32 0 -64 7 -93 20c0 0 -10 5 -11 7s0 13 0 13c1 8 -7 15 -18 25c-2 2 -4 3 -7 5v1v0c-26 26 -31 60 -14 96l4 11h6c1 8 3 21 14 28c0 0 15 10 21 10s13 -6 13 -6c1 -1 1 -1 2 -1c0 0 8 8 15 9s6 -9 6 -9h2c0 0 13 2 18 1c9 -6 6 -21 6 -21s6 0 13 1
c6 -3 10 -17 10 -17c2 -15 -3 -30 -13 -42c5 -2 13 -3 21 -3c22 0 43 7 66 14c9 2 17 5 26 7c33 22 56 54 79 82l3 6l6 1c10 3 16 13 25 28c5 8 9 16 15 24l9 14c-1 1 -1 2 -1 3c-2 10 -5 27 3 42c-9 28 -43 32 -57 32c-28 0 -55 -11 -72 -26l-7 -5l-10 1c-4 1 -8 1 -14 1
c-5 0 -12 0 -18 -1h-20h-7c0 0 -17 0 -20 4c-2 4 2 19 2 19c2 7 -2 16 -8 23c0 0 -10 7 -10 12c0 4 9 14 9 14c1 1 1 6 0 11c0 7 -1 17 2 25l6 11l11 3c26 3 48 24 68 44l15 15l3 2l3 1c44 18 102 55 131 112c-6 6 -14 8 -26 8c-13 0 -27 -2 -38 -5c-15 -1 -30 -4 -45 -4h-1
c-6 -2 -14 -8 -22 -14c-12 -9 -24 -19 -39 -23c-2 -11 -9 -20 -14 -28c0 0 -5 -8 -9 -10c-3 -1 -12 0 -12 0c-24 5 -46 22 -56 43c-12 23 -13 47 -3 70l2 6l5 2c17 10 36 19 52 27c22 11 43 21 61 32l8 5l10 -3c7 -3 15 -4 21 -4c14 0 27 3 42 5c13 3 29 6 46 6h10h1h1
c5 -1 11 -2 17 -2c9 0 20 0 28 -3h1v0c36 -11 61 -36 71 -64v-1l1 -2c9 -57 -19 -96 -40 -122c-15 -25 -37 -44 -59 -62c-6 -4 -13 -8 -19 -13c31 -4 61 -13 81 -42c4 -5 8 -10 12 -16c10 -11 21 -24 27 -37c7 -17 7 -34 -1 -48c2 -37 -12 -68 -26 -97
c-6 -16 -12 -30 -16 -43l-4 -14l-18 -6c-25 -49 -63 -89 -110 -125c-54 -42 -114 -63 -172 -63z" />
    <glyph glyph-name="four" unicode="4" 
d="M294 -36c-30 51 -15 106 -3 155c2 10 5 18 7 28l1 1c3 14 8 28 14 39c5 13 10 26 13 39c-1 2 -2 4 -8 6c-8 2 -20 3 -29 4h-15c-26 0 -44 -2 -59 -3c0 0 -5 -1 -9 -1c-3 8 -11 12 -18 9c0 0 -6 -4 -8 -10c-4 -1 -15 4 -15 4c-2 1 -4 1 -6 1c-6 0 -14 -3 -23 -5
c-10 -5 -23 -11 -38 -11c-7 0 -12 1 -17 3l-12 4l-1 11c-1 10 -4 20 -7 31c-7 20 -15 46 -4 72l3 8l11 5v7v11l10 6h2l3 3c1 4 1 10 2 15l1 5l4 4c29 27 45 63 65 100c9 18 19 36 28 54l9 14l8 2c14 39 32 72 61 110c0 0 5 8 10 10c5 1 12 -4 12 -4c4 -1 9 -2 15 -2
c0 0 13 0 16 -2c3 -3 4 -14 4 -14c1 -1 4 -3 6 -5c2 -3 7 -7 11 -13c2 -3 3 -7 4 -10c0 0 14 -2 17 -7s-2 -19 -2 -19c-11 -28 -24 -51 -39 -75c0 0 1 -7 9 -10c-2 -9 -13 -17 -13 -17c-24 -21 -37 -48 -53 -78c-12 -20 -24 -42 -37 -61c6 -1 15 -1 27 -1h6h6
c16 0 33 -1 50 -9c6 3 13 4 19 4c5 0 10 -1 15 -1c4 -1 8 -1 12 -1v0c46 82 66 177 85 269c7 31 14 63 23 94c0 0 3 16 8 18c9 4 21 -7 21 -7c11 -8 24 -13 37 -18c2 0 5 -1 7 -2l10 -3l3 -8c4 -12 2 -24 1 -33c-2 -10 -2 -13 1 -14c0 0 6 -6 7 -9c0 -4 -2 -11 -2 -11
c-7 -27 -13 -56 -19 -83c-11 -56 -21 -115 -48 -168c0 -4 -1 -8 -2 -12c-2 -11 -4 -24 -1 -35c14 -15 28 -19 44 -22c0 0 17 -3 19 -7s-4 -20 -4 -20c-5 -12 -11 -21 -17 -31c-4 -7 -8 -13 -10 -20l-5 -12l-13 1v0c-7 0 -14 -4 -22 -6c-9 -6 -20 -12 -34 -12
c-18 -41 -30 -89 -41 -151l-2 -10l-6 -3c0 -14 -4 -29 -13 -46v0l-1 -2c-6 -10 -10 -20 -17 -27c-10 -13 -22 -19 -34 -19h-5c-3 -2 -7 -4 -12 -5c0 0 -10 -4 -14 -3s-9 11 -9 11z" />
    <glyph glyph-name="five" unicode="5" 
d="M169 -23h-9c0 0 -6 0 -11 2c-4 11 -15 15 -19 18c-8 3 -15 7 -21 14c-4 4 -8 9 -10 16c-6 3 -10 6 -14 9c-1 1 -2 2 -3 2c0 0 -12 4 -16 12c-1 9 3 17 3 17c-5 7 -11 15 -15 23c-4 10 -5 19 -3 28c-1 0 -2 1 -3 1l-8 7l1 9c2 22 9 32 16 42l5 9l6 -2l2 9l28 5s7 8 14 7
c6 -4 12 -11 12 -11c1 -2 4 -3 7 -3c4 0 8 1 11 3c0 0 13 8 19 6c7 -1 9 -17 9 -17s8 -5 21 -5c3 -11 -6 -23 -6 -23c0 -1 0 -4 1 -6c0 -5 0 -12 -1 -18c-1 -2 -3 -6 -6 -10c5 -9 16 -15 26 -15c2 0 4 1 6 1v0c36 9 63 24 90 50l9 12l7 -5c7 5 13 8 19 12c10 5 18 9 23 17
c3 5 5 11 8 18c4 11 9 22 19 34l1 1h1c15 13 11 35 8 47c-10 13 -16 27 -21 38c-13 3 -24 10 -34 20c-16 4 -32 6 -46 6c-28 0 -51 -6 -72 -18v-1h-1c-8 -4 -15 -9 -24 -13c-28 -16 -55 -33 -87 -38l-11 -1l-7 7c-14 16 -23 34 -25 55c-1 21 2 38 13 54c1 46 26 86 45 115
c2 9 5 19 7 30c12 48 25 104 66 142c0 0 7 5 10 6c4 0 11 -3 11 -3c6 -3 10 -7 13 -11c7 2 13 4 19 4c8 2 19 10 22 16c6 3 17 -2 17 -2c4 -2 9 -3 14 -3c8 0 19 3 30 6c14 4 26 8 41 8c11 0 21 -3 29 -7c3 1 7 2 11 4c9 3 19 6 29 8l22 3c3 1 7 2 10 3c0 0 10 1 14 -2
c4 -2 4 -4 4 -4c11 4 26 8 42 8c8 0 14 -1 21 -3l11 -3l4 -2c10 -3 21 -8 28 -16l9 -10l-6 -13c-1 -1 -1 -2 -2 -3c6 -4 11 -8 16 -13c0 0 5 -8 5 -13s-5 -11 -5 -11c-24 -32 -62 -36 -90 -36c-10 0 -20 1 -28 1c-7 0 -14 1 -20 1c-24 -11 -47 -13 -69 -15
c-7 -1 -14 -2 -22 -3v0c-1 0 -2 -1 -2 -2c0 0 1 -12 -10 -14c-7 -2 -19 3 -19 3c-5 5 -14 7 -22 7c-7 0 -20 -2 -27 -12c0 0 -2 -7 -5 -9s-13 0 -13 0c-5 1 -10 1 -15 1c-8 0 -17 0 -24 -2c-14 -18 -21 -39 -19 -60l1 -8l-5 -6c-7 -9 -12 -16 -16 -23c46 17 91 26 134 26
c17 0 36 -2 55 -5l15 -4l1 -10c4 -1 8 -2 11 -2h11l6 -9c6 -10 15 -14 32 -19c9 -2 18 -5 25 -9c0 0 14 -5 16 -11c2 -7 -8 -15 -8 -15c14 -15 18 -34 20 -50c2 -9 3 -18 6 -24c0 0 4 -7 3 -10c-1 -4 -7 -10 -7 -10c-6 -6 -5 -16 1 -33l2 -5l-2 -6c-2 -11 -6 -21 -10 -32
c-5 -11 -10 -24 -11 -37l-1 -8l-7 -5c-8 -7 -13 -20 -17 -33l-2 -7l-6 -4c-2 -1 -4 -3 -6 -4c-5 -3 -10 -6 -17 -9c-31 -44 -73 -82 -123 -107c-52 -28 -109 -40 -165 -40z" />
    <glyph glyph-name="six" unicode="6" 
d="M232 -29v0c-2 -1 -6 -3 -11 -3h-2h-3c-37 10 -70 32 -94 70c-17 25 -26 43 -35 80l-13 12l-3 15c-22 127 27 249 73 343l1 4l3 3c13 10 23 25 33 41c12 18 22 36 40 50c5 17 17 28 26 35s14 12 15 18l3 11l11 4c14 5 25 15 36 31l5 7l8 1c2 1 6 2 9 3c4 1 7 3 10 4
c24 21 55 34 87 34c17 0 34 -4 50 -12l1 -1l1 -1c46 -31 68 -81 60 -129c5 -8 7 -18 4 -26l-2 -7l-8 -5s0 -15 -4 -26c-3 -5 -20 -1 -20 -1c-1 1 -2 1 -3 1c-3 0 -6 -1 -10 -1s-9 -1 -13 -1c-3 0 -8 1 -12 1c0 0 -15 4 -17 11c-3 6 2 14 2 14c-6 6 -10 13 -12 20
c-3 11 -3 23 -3 34c1 13 1 20 -2 25c-26 -11 -54 -22 -66 -46l-4 -7l-7 -3c-23 -7 -36 -28 -52 -50c-8 -8 -11 -14 -20 -24c0 0 2 -12 -2 -20c-3 -3 -9 -7 -9 -7c-35 -23 -47 -61 -62 -101c-4 -10 -7 -20 -11 -30c5 3 10 6 16 8l2 10l7 5c7 5 13 6 18 7h3l4 3l7 2
c2 0 4 0 5 1c0 0 8 3 8 17c11 5 19 0 19 0c3 2 6 6 8 9s4 6 7 9l9 10l12 -4c2 -1 4 -1 6 -1c5 0 14 5 19 9l5 6l7 2c18 3 36 4 55 4c14 1 29 2 43 4l8 1l7 -6l2 1h19l6 -11c1 -2 4 -4 8 -5c1 0 2 -1 3 -2c3 1 7 2 10 2h4l8 -2l5 -8c14 -24 29 -48 34 -79l1 -4v-4
c-11 -55 -35 -109 -69 -159c-31 -44 -74 -85 -120 -116c-1 -4 -3 -8 -4 -12l-2 -7l-6 -3c-13 -6 -25 -13 -38 -21c-31 -19 -63 -39 -104 -40h-5zM268 97c0 0 15 4 19 4s6 -3 6 -3c0 -1 1 -1 1 -1c43 24 77 61 98 108l5 11h11c1 1 2 1 3 2c2 2 5 5 9 8c12 15 23 36 34 55v1h1
c10 19 11 34 9 38h-2h-1l-16 -1l-3 8c-87 -12 -170 -70 -216 -150c0 -2 2 -4 4 -5c4 -1 9 -1 13 -1v0c5 0 12 0 18 1c6 0 12 1 18 1c0 0 14 1 20 -6c2 -9 -3 -21 -3 -21l-3 -6c0 -1 -1 -2 -1 -3c0 0 9 -4 7 -14c-18 -6 -28 -17 -33 -20z" />
    <glyph glyph-name="seven" unicode="7" 
d="M185 -24h-10l-10 -8c-12 8 -19 21 -21 27c0 0 -13 -3 -21 7c-3 5 2 18 2 18c3 11 2 16 2 17c0 0 -9 2 -10 6c-2 4 -1 14 -1 14c10 64 36 122 64 177c3 6 6 13 9 19v1v0c8 19 16 36 25 57c10 22 20 48 33 70v0v1c5 8 12 15 17 20c3 3 5 6 8 8c10 21 23 39 38 57
c18 19 33 40 37 63l3 12l12 3c24 7 39 25 57 45l-17 -2l-8 4c-10 -3 -16 -3 -27 -5c-17 -2 -31 -4 -44 -11l-12 -6l-10 7c-5 4 -10 5 -18 5h-15c-5 -1 -11 -1 -17 -1l-4 -11l-7 -1c-13 -3 -26 -5 -40 -5c-11 0 -23 2 -39 3c0 0 -13 2 -17 6c-3 15 4 25 4 25v8l-12 4l-7 15v3
c-1 25 -1 53 4 82c0 0 2 12 10 16c6 1 19 -5 19 -5c9 -5 21 -8 33 -11c6 -1 12 -3 19 -5c0 0 5 11 12 11c8 -3 15 -7 15 -7c3 -2 6 -5 9 -6l13 12l4 -2l4 5l19 -6l4 5l11 -1c7 0 13 -1 19 -2c4 -1 7 -2 10 -2h6l9 7l22 -8h1c15 13 34 22 57 22c9 0 20 -3 30 -7
c10 5 19 5 26 5c2 0 6 0 9 1s7 3 15 8c8 -1 15 -11 15 -11h3c6 0 11 -1 16 -2c4 -1 7 -2 10 -2h1s12 2 18 0c7 -6 8 -15 8 -15c1 -13 8 -26 18 -41c4 -6 9 -13 14 -21l3 -7l-2 -8c-12 -37 -42 -60 -70 -78c-2 -1 -4 -3 -6 -4c-24 -39 -52 -78 -82 -113
c-52 -64 -100 -126 -124 -204l-2 -6l-6 -3c-15 -10 -22 -26 -30 -44c-6 -17 -15 -37 -32 -52v0c2 -10 5 -22 3 -35c0 0 -2 -13 -5 -17c-3 -5 -8 -8 -8 -9c-3 -34 -5 -67 -39 -93c0 0 -15 -13 -20 -15c-8 7 -7 16 -7 16z" />
    <glyph glyph-name="eight" unicode="8" 
d="M232 -26c-10 2 -23 2 -35 3c-36 0 -77 1 -101 35c0 0 -9 4 -20 4c-3 6 -2 17 -2 17c0 6 -3 15 -7 25c-7 17 -15 38 -4 63c3 63 41 118 78 164c0 0 4 4 8 6c6 -1 11 0 11 0c2 2 5 7 6 13l3 11l13 5c-5 3 -11 5 -17 5c-3 0 -6 0 -8 -1c0 0 -9 -3 -17 -1c-4 4 -7 15 -7 15
c-1 10 -13 17 -29 25l-7 4l-3 6c-15 28 -21 61 -15 98c4 31 18 62 35 91l3 4l4 2s1 0 2 1s3 2 6 3v0c1 5 2 11 5 18l2 3l2 2c12 13 24 23 37 33c10 9 21 17 29 26l6 7l13 -2c28 30 65 45 100 60c9 2 17 6 25 9l2 2h4c49 0 100 -20 131 -55c6 -6 11 -13 14 -21l22 20
c8 8 17 12 27 12c6 0 12 -2 16 -3l17 -3l-1 -16c-2 -16 7 -34 14 -49l3 -8l-3 -8c-17 -47 -49 -82 -80 -118c-18 -19 -33 -38 -48 -57l-3 -5l-5 -2c-29 -15 -48 -32 -56 -50l7 -11c9 -15 23 -28 36 -39l17 -17l1 -1l1 -1c13 -16 19 -35 19 -59c0 -20 -6 -40 -12 -53v-3
c-4 -24 -9 -60 -40 -77c-44 -72 -125 -109 -188 -131l-5 -2zM171 126c-1 -7 1 -12 5 -17c8 -11 27 -18 46 -18c7 0 14 1 20 2c15 11 37 22 60 24c11 15 25 26 38 38c14 14 29 26 37 43c6 18 8 31 2 41c-10 11 -24 19 -37 21l-8 1l-8 11h-2h-5c0 0 -11 2 -17 -5
c-5 4 -8 12 -8 12c-3 0 -6 -1 -9 -1c-3 -2 -5 -3 -8 -5c-13 -8 -21 -14 -24 -23l-1 -6l-3 -3c-7 -6 -14 -9 -21 -10c-1 -2 -2 -4 -3 -7c-5 -12 -11 -28 -25 -38c-2 -4 -3 -8 -5 -13c-6 -17 -12 -33 -24 -47zM233 429c15 -9 29 -15 43 -15c4 0 9 0 13 2c6 3 11 8 15 11
c11 9 23 19 39 24l7 16l9 2c5 1 9 5 16 13c5 9 13 19 23 26l-1 2s-10 15 -6 21c3 6 19 10 19 10c1 1 2 3 3 4l8 8c-1 2 -3 5 -5 6l-12 8l3 12c3 9 -1 16 -5 21c-2 3 -4 6 -7 8c0 0 -3 -7 -11 -10c-8 -4 -32 -8 -32 -8l-10 20c-4 0 -9 -1 -13 -1h-2l-5 -8s-7 -8 -12 -10
c-10 -5 -24 0 -24 0c-22 -14 -41 -27 -54 -48l-2 -3l-3 -2c-20 -15 -32 -39 -37 -68c-1 -11 4 -24 11 -32c4 -6 9 -6 11 -6v0h4l9 3z" />
    <glyph glyph-name="nine" unicode="9" 
d="M204 -50c-16 2 -36 6 -52 17l-2 2l-2 2c-20 24 -20 49 -18 65l1 10l9 5c85 51 141 129 191 207l11 30l-30 -24l-10 -2c-14 -2 -30 -10 -40 -22l-8 -9l-12 3c-10 -7 -21 -11 -35 -11c-8 0 -18 2 -26 4c-2 0 -4 1 -6 1c-5 -3 -11 -6 -18 -8h-4h-3c-32 4 -45 29 -54 47
c-6 10 -12 20 -19 25c0 0 -8 6 -10 11c-1 4 3 13 3 13c10 22 12 49 13 76c3 39 6 80 34 116c15 53 48 102 97 142c44 35 100 61 157 74c22 6 38 8 53 8c29 0 53 -9 68 -26c0 0 16 3 23 1c5 -2 4 -20 4 -20c-1 -23 14 -45 46 -72l10 -7l-4 -12c-1 -3 -2 -5 -3 -8
c0 0 10 -4 8 -15c-4 -6 -9 -13 -9 -13c-18 -26 -21 -57 -24 -92c-1 -17 -2 -37 -6 -55v0c-3 -12 -8 -23 -13 -33c-5 -8 -9 -15 -11 -22v-1v0c-2 -5 -2 -11 -3 -17c-2 -16 -5 -37 -24 -51c-7 -27 -20 -56 -40 -84c-13 -24 -33 -46 -58 -74c-21 -50 -61 -84 -99 -111
c-12 -35 -42 -51 -68 -65c-1 -1 -3 -2 -4 -3l-6 -3zM205 416c-5 -34 -4 -59 5 -69c2 -2 5 -4 10 -5c58 21 107 62 154 102c8 7 17 15 24 20c16 28 27 53 34 80c7 39 8 61 -6 68h-10c-22 0 -45 -7 -65 -15c-3 -2 -5 -3 -7 -4c-17 -8 -33 -14 -47 -23c-9 -7 -17 -15 -26 -25
c-10 -13 -21 -27 -34 -36c-16 -32 -27 -63 -32 -93z" />
    <glyph glyph-name="colon" unicode=":" horiz-adv-x="333" 
d="M117 -26c-14 0 -27 6 -38 15l-6 8l2 11c2 12 1 25 0 37c0 8 -1 16 -1 25v5l2 5c3 4 6 11 9 19c9 23 22 55 56 58c10 8 22 12 33 12c18 0 36 -7 50 -15l9 -4l2 -10c9 -35 -7 -65 -19 -93c-6 -11 -11 -21 -15 -31l-3 -10l-10 -3c-7 -2 -15 -7 -22 -12
c-15 -7 -32 -17 -49 -17zM220 357c-8 -2 -17 -3 -27 -4h-6l-5 3c-19 12 -33 27 -46 42l-6 8l3 10c9 37 33 71 66 96c16 13 38 22 60 22c35 0 59 -20 60 -55v-5l-1 -4c-2 -5 -3 -12 -5 -21c-3 -17 -7 -38 -28 -51c-6 -15 -13 -29 -24 -42l-3 -4s-15 -8 -32 -7
c-6 3 -6 12 -6 12z" />
    <glyph glyph-name="semicolon" unicode=";" horiz-adv-x="333" 
d="M220 357c-8 -2 -17 -3 -27 -4h-6l-5 3c-19 12 -33 27 -46 42l-6 8l3 10c9 37 33 71 66 96c16 13 38 22 60 22c35 0 59 -20 60 -55v-5l-1 -4c-2 -5 -3 -12 -5 -21c-3 -17 -7 -38 -28 -51c-6 -15 -13 -29 -24 -42l-3 -4s-15 -8 -32 -7c-6 3 -6 12 -6 12zM75 -167
c-9 0 -18 3 -26 8c0 0 -9 6 -10 13c-2 8 6 17 6 17c23 26 37 60 50 99c-6 3 -10 4 -15 4l-11 2l-3 9c-19 40 -9 92 22 125v0l1 1c8 7 18 11 26 16c2 2 5 4 8 6c21 14 44 32 76 32h3h5l5 -3c18 -13 28 -33 29 -57c1 -20 -3 -39 -7 -57c-2 -8 -3 -15 -4 -21v-1l-1 -1
c-3 -12 -11 -24 -16 -34c-2 -4 -4 -8 -6 -11c-3 -11 -7 -26 -15 -42h-1v-1c-6 -9 -14 -14 -21 -19c-5 -4 -7 -7 -10 -11s-5 -9 -8 -15c-3 -7 -6 -13 -10 -18l-2 -2l-1 -1c-15 -15 -36 -38 -64 -38v0z" />
    <glyph glyph-name="less" unicode="&#x3c;" horiz-adv-x="584" 
d="M418 78c-5 5 -10 8 -18 12c-15 9 -34 20 -41 41c-30 8 -54 23 -80 38c-20 14 -42 25 -64 33l-3 2l-3 2c-20 19 -44 29 -71 42c-25 12 -53 25 -75 44l-6 5l-2 7s-5 5 -13 4c-3 4 -3 15 -3 15s-4 0 -8 6c-1 6 1 17 1 17c16 70 74 90 125 110c25 10 50 20 67 32l3 2l4 1
c66 17 130 45 189 74c61 26 123 55 187 71c0 0 13 4 20 1c6 -7 5 -18 5 -18c0 -5 2 -12 3 -19c4 -14 9 -31 0 -51l-3 -5l-5 -3c-21 -13 -42 -21 -63 -30c-30 -14 -59 -27 -84 -46l-3 -3l-4 -1c-48 -17 -95 -39 -140 -62c-30 -15 -63 -29 -94 -43c-2 -4 -5 -7 -8 -10
c14 -12 32 -19 48 -28c17 -8 33 -17 48 -29c3 -2 7 -5 10 -7c15 -10 27 -20 42 -20h1h10l6 -7c7 -9 16 -14 35 -20l14 -2v-15c23 -9 46 -30 63 -59c0 0 6 -13 5 -17c-1 -3 -8 -7 -8 -7c0 -4 1 -9 1 -14c0 0 0 -10 -1 -12c0 -2 -10 -6 -10 -6c-4 -2 -9 -4 -13 -6
c-15 -6 -27 -11 -38 -19c0 0 -8 -7 -13 -7s-13 7 -13 7z" />
    <glyph glyph-name="equal" unicode="=" horiz-adv-x="584" 
d="M106 175c-9 0 -18 3 -23 8c-2 0 -4 0 -5 -1c-9 -1 -19 -3 -27 -3c-20 0 -36 7 -46 22l-5 8l3 10c5 16 13 33 25 47v1h1c16 14 31 20 43 24c8 2 13 4 16 7l1 1l1 1c17 18 40 19 61 19h3h4c11 0 21 0 30 4c0 0 10 3 12 2c11 -3 14 -14 14 -14c57 9 116 12 172 16
c59 5 120 9 180 19c0 0 13 2 21 -2c4 -7 1 -21 1 -21c-4 -29 -11 -74 -49 -98l-2 -2l-4 -1c-77 -16 -154 -20 -230 -24c-44 -3 -88 -5 -131 -10c-3 0 -5 -1 -7 -1c-9 -1 -14 -2 -21 -5l-1 -1h-1c-13 -3 -25 -6 -36 -6zM514 386c-34 0 -69 5 -102 10c-32 4 -65 9 -98 9
c-9 0 -16 -1 -24 -1c-10 -7 -20 -9 -25 -10h-4l-4 1c-6 1 -12 2 -22 2c-6 0 -13 0 -19 -1h-19c-20 0 -45 2 -67 20c0 0 -7 5 -8 9c-1 5 3 14 3 14c9 18 21 31 30 45c4 4 7 8 10 12l8 11l13 -4c6 -1 13 -2 19 -2c16 0 33 4 49 7c19 4 38 8 56 8c11 0 21 0 30 -3
c10 5 23 7 36 7c16 0 30 -4 43 -11c17 4 33 6 51 6c24 0 47 -3 69 -10c8 5 18 7 29 7c10 0 19 -2 27 -6c0 0 4 5 12 5c13 0 22 -15 22 -15s6 -6 15 -8c2 -10 -3 -19 -3 -19v-8l-10 -33l-10 -6c-11 -4 -22 -11 -28 -20l-4 -7l-7 -2c-22 -4 -43 -7 -68 -7z" />
    <glyph glyph-name="greater" unicode="&#x3e;" horiz-adv-x="584" 
d="M59 92h-7h-7l-7 1l-16 19v20l6 16v1c13 25 31 54 61 64c29 29 64 47 98 64l6 10l18 7c24 9 46 21 70 33c37 20 75 39 117 48c0 1 1 2 1 2c-7 3 -14 6 -21 8c-51 20 -99 39 -152 46l-7 1l-5 6c-9 10 -24 16 -39 23c-24 10 -51 22 -66 51c0 0 -5 10 -4 16c1 4 14 11 14 11
l1 1c1 1 1 9 1 13c1 7 1 16 4 24c4 11 12 20 23 24l3 2h3h5c21 0 37 -12 50 -21c1 0 1 -1 2 -1h9c23 0 40 -8 50 -23c16 -2 30 -6 42 -14h5c15 0 25 -8 33 -14c2 -2 6 -5 8 -5v0s6 5 16 3c5 -11 12 -13 12 -13h6c4 1 8 1 13 1h9l10 -3l4 -10h2l14 -5l1 -1c3 0 6 1 10 1
c9 0 17 -2 25 -3c7 -1 13 -2 18 -2s9 0 12 2c0 0 10 6 19 4c5 -11 11 -16 11 -16c2 0 4 0 5 1c0 0 9 1 14 -2s9 -12 9 -12v-1c2 -1 8 -2 12 -3c6 -1 13 -2 19 -4c0 0 10 -5 12 -9c2 -5 1 -13 1 -13c-1 -5 2 -10 9 -20c9 -12 23 -30 15 -55l-5 -17s-11 2 -14 -1
c-4 -2 -5 -10 -5 -10l-9 -4c-127 -50 -240 -104 -344 -165c-3 -4 -4 -5 -4 -5l-1 -3l-2 -3c-12 -16 -30 -21 -42 -23c-1 -1 -1 -2 -2 -2l2 -12l-6 -8c-23 -24 -52 -28 -78 -31c-13 -2 -26 -3 -37 -8c0 0 -10 -4 -15 -3c-12 9 -15 22 -15 22z" />
    <glyph glyph-name="question" unicode="?" horiz-adv-x="611" 
d="M236 -28c-47 0 -80 21 -84 55v2v2c3 49 47 82 86 93l2 1h3c16 0 31 -7 42 -19c20 -23 20 -60 19 -74l-1 -11l-6 -5s-1 -2 -1 -3c-3 -6 -9 -18 -24 -21v-2c0 0 -1 -9 -5 -13c-2 -2 -12 -4 -12 -4c-5 -1 -12 -1 -19 -1v0zM245 144h-7l-9 1l-5 8s-5 7 -13 7c-3 6 0 18 0 18
c2 7 -1 15 -6 25l-2 5v5c0 76 44 147 112 186c6 4 11 8 17 12c16 14 34 26 56 34c1 0 2 1 3 2c15 13 34 29 55 36c28 26 53 70 49 101c-1 15 -8 26 -23 34l-7 4l-4 8h-9c-10 0 -13 -3 -15 -4l-7 -9l-11 2c-9 2 -18 3 -25 3c-60 0 -118 -34 -143 -82l-16 -30l-13 -14l-14 -2
l-9 -5h-16l-5 5c-3 2 -6 4 -9 7c-8 6 -16 13 -22 22c-5 6 -8 11 -9 17c-5 3 -8 7 -9 10c0 0 -4 5 -4 8s2 9 2 9c15 37 34 69 60 97c27 30 62 51 98 60l1 1h1c7 1 13 1 19 1h4h5c9 0 16 0 22 2c0 0 9 3 11 14c5 2 14 -1 14 -1c2 -1 4 -1 6 -1c4 0 8 0 13 1c4 1 8 1 12 2
c14 3 23 5 31 5l10 2s14 2 21 -2c3 -1 6 -8 6 -8c46 -3 89 -27 119 -67c31 -44 41 -98 25 -145l-6 -18l-7 -9c0 -2 -3 -42 -17 -63c-40 -59 -104 -100 -166 -132l-5 -2h-5h-2c-20 0 -42 -12 -55 -29s-18 -35 -14 -51l5 -17l-5 -2c2 -10 3 -21 -4 -35l-4 -7l-8 -2
c-5 -2 -7 -3 -8 -4l-3 -4l-22 -8l-7 3h-1c-2 0 -6 -1 -9 -2c-5 -1 -11 -2 -17 -2z" />
    <glyph glyph-name="at" unicode="@" horiz-adv-x="975" 
d="M342 -195c-11 1 -25 4 -38 6c-17 3 -37 7 -56 9c0 0 -11 2 -13 5c-3 3 -3 15 -3 15v2c-1 0 -1 1 -2 1l-13 -4s-19 -5 -28 7c6 8 2 16 2 16c-2 1 -5 2 -9 2c0 0 -10 -2 -18 2c0 7 -4 12 -4 12l-5 8l-15 4l-11 17c-12 7 -17 16 -19 25l-8 -3l-7 18c-4 12 -14 26 -24 40
c-20 29 -46 65 -30 110c-6 15 -7 31 -8 44c-1 10 -2 20 -5 29l-2 6l-4 11l6 14c2 5 4 11 6 17c2 9 5 18 8 25c-2 64 29 116 58 167c16 25 32 51 41 77l4 9l7 3c23 8 41 26 60 44c23 22 47 46 82 55c0 0 2 8 -1 18c3 5 15 7 15 7c17 5 32 12 49 21c25 12 48 25 77 27l1 1l3 5
l4 11l12 2c7 1 13 1 20 1h3c15 0 20 1 23 6l7 11l13 -2c5 -1 9 -2 12 -3c2 -1 5 -2 7 -3c0 0 9 2 16 9c8 -10 15 -10 15 -10h1h7c2 1 5 1 9 1h2c6 5 11 9 16 11l1 1l23 8l13 -12l3 3l8 9l12 -3c9 -2 16 -2 26 -2c8 0 15 0 23 -1h1l5 7l16 -10c4 -2 12 -4 19 -5
c9 -2 18 -4 27 -9c1 -1 3 -2 4 -3h4c9 0 18 -3 25 -8c8 -4 11 -4 16 -4h17l3 -14l9 -2l5 -4c9 -12 20 -23 33 -33c35 -33 73 -66 83 -119l2 -11l-8 -7s12 -9 18 -18c-4 -6 -13 -7 -13 -7s2 -10 11 -16c-5 -7 -20 -13 -20 -13c6 -25 -1 -51 -8 -72c-5 -16 -9 -30 -9 -43v-13
l-10 -5c-2 -12 -9 -24 -24 -39c0 -2 -1 -3 -1 -4c-1 -1 -1 -3 -2 -4c0 0 -1 -11 2 -20c-6 -4 -15 -3 -15 -3c-1 -3 -1 -7 -1 -11c-1 -6 -2 -13 -4 -19l-3 -11l-11 -3c-12 -2 -21 -13 -33 -26c-3 -3 -6 -7 -9 -11c-2 -2 -3 -4 -4 -6c-2 -5 -5 -8 -5 -11l-2 -9l-25 -15l-8 4
c-8 -7 -14 -14 -17 -23h-1l6 -1c29 -4 45 -20 45 -43v-7l-5 -4l2 -3s-3 -20 -9 -33c-9 5 -17 3 -17 3l-2 -3c0 -7 -4 -14 -10 -20c-7 -5 -14 -8 -19 -10c-2 -1 -6 -2 -7 -3l-16 -15l-3 -3c0 0 -8 -8 -12 -9c-4 5 -11 6 -11 6h-2c-2 0 -4 -1 -6 -1v0l-5 -14l-8 -4
c-8 -2 -14 -4 -19 -4h-3c-3 -3 -6 -6 -9 -8c-2 -1 -6 -3 -7 -5c0 0 0 -12 -3 -14c-3 -3 -15 -4 -15 -4h-3h-7l-4 -14l-16 3c-1 1 -3 1 -5 1c-15 0 -30 -13 -42 -27c0 0 -7 -6 -13 -8c-5 2 -14 7 -14 7s-2 1 -4 1s-3 -1 -4 -1l-2 -10l-10 -1c-17 -5 -37 -11 -50 -22l-8 -6
l-11 3c-8 3 -16 4 -20 4c-12 0 -16 -4 -18 -6c0 0 -8 -9 -14 -13c-5 0 -12 8 -12 8c-4 -4 -12 -9 -22 -9c0 0 -6 2 -11 2c-6 0 -14 -2 -14 -2zM404 -63h10c45 0 88 10 125 31l4 3h5c35 3 65 23 95 45c11 8 22 16 33 23c-15 -4 -31 -7 -46 -7c-6 0 -12 0 -18 1
c-2 -1 -3 -2 -4 -3c-4 -3 -8 -7 -14 -10l-4 -2h-5c-15 0 -29 6 -41 18c-8 8 -12 18 -17 28c-5 8 -8 15 -12 19c-25 -22 -53 -35 -81 -45c-22 -10 -44 -19 -60 -33l-6 -5l-8 1c-29 3 -63 7 -94 20l-8 4l-4 7c-2 6 -4 12 -6 16c-5 16 -9 29 -18 38l-7 5v8c0 22 3 42 6 62
c2 12 4 25 5 36v0v1c1 7 2 14 3 22c1 15 2 29 5 45l1 3v2c12 23 28 46 43 67c5 9 11 19 17 28c6 13 15 22 26 30c10 36 39 52 64 68c15 9 28 16 38 25l5 8l11 -1c1 0 2 -1 3 -1c11 0 22 8 33 17c14 10 31 21 50 21h9c13 3 25 5 38 5c32 0 62 -13 82 -38c17 -5 31 -11 43 -18
c20 -14 29 -35 27 -56l-1 -4l-2 -4c-1 -2 -1 -6 -3 -9c-2 -7 -6 -17 -14 -24c2 -17 -8 -33 -15 -45c-5 -6 -9 -13 -10 -19l-2 -7l-16 -14c-2 -4 -2 -8 -1 -11l1 -1l1 -16l-8 -21l-9 -5c0 -3 1 -6 1 -8l2 -6l-3 -7c-8 -16 -19 -30 -27 -42c-5 -6 -10 -12 -14 -18v-1l1 -1l1 1
v0l58 18v1c3 2 7 6 7 7c0 0 4 6 5 15c6 3 19 1 19 1l5 -1l6 3c29 22 60 42 81 71v7c0 0 -1 6 1 9s19 12 19 12c29 57 41 108 33 154c-19 63 -80 113 -152 121c-4 0 -9 1 -14 2s-10 2 -14 2s-6 0 -8 -1l-7 -3l-7 2c-11 3 -20 5 -30 5c-14 0 -26 -3 -35 -8l-6 -3l-7 1
c-4 1 -9 2 -13 2c-16 0 -30 -5 -48 -11c-15 -6 -28 -11 -44 -13c-22 -15 -44 -24 -68 -33c-34 -15 -67 -29 -86 -58l-2 -4l-4 -3c-29 -20 -50 -47 -71 -77c-12 -17 -25 -35 -38 -50c-22 -44 -25 -92 -28 -142c-1 -26 -3 -51 -7 -78c8 -12 10 -23 6 -36
c29 -52 76 -114 143 -129h2l2 -1c16 -6 32 -7 51 -7h6h6c11 0 20 0 29 -1zM363 161h9c43 0 86 27 123 51v26l13 4c3 1 6 4 9 7c4 5 9 10 15 13c7 24 18 43 30 64c16 28 29 57 34 86c-3 0 -6 0 -8 -1c-24 0 -48 -1 -62 -14l-4 -3l-4 -2c-50 -10 -104 -49 -115 -107l-1 -6
l-5 -4c-19 -22 -32 -50 -34 -77l-1 -8l-6 -4c-2 -2 -2 -2 -1 -3c0 -4 3 -10 6 -16c1 -2 1 -4 2 -6z" />
    <glyph glyph-name="A" unicode="A" horiz-adv-x="722" 
d="M555 -22c-25 46 -30 96 -36 144c0 14 -2 26 -3 39c-8 17 -11 36 -13 51s-4 28 -9 37c-23 -4 -44 -12 -66 -19c-38 -13 -76 -26 -116 -32c-2 -1 -4 -3 -8 -8l-6 -8h-11h-3c-28 0 -56 -11 -73 -29c0 0 5 -6 4 -9s-14 -10 -14 -10c-6 -5 -12 -9 -17 -13
c-8 -14 -15 -29 -23 -47c-18 -38 -37 -81 -83 -101c0 0 -11 -3 -19 -1c-5 2 -9 16 -9 16c-1 9 -6 16 -12 24c-6 12 -12 25 -15 40c0 0 -1 9 1 13c3 4 9 7 9 7c1 1 2 3 2 5c3 5 6 11 12 16c0 3 -1 6 0 9c0 8 5 16 12 21l5 3c3 18 11 35 24 49c5 12 14 22 25 28
c-1 18 7 34 14 46c4 10 8 20 7 29l-1 12l11 5c5 2 9 4 10 7l6 11h19c3 9 10 16 16 21v1v1s-9 11 -8 15c2 7 13 12 13 12c4 3 6 5 7 7l13 29l3 -2l13 6c2 17 12 34 28 42v1l1 5v8l15 19c4 13 10 32 29 42l8 4l1 8l14 2l4 18l12 2c1 8 2 16 6 25l4 6l8 3c27 8 53 30 68 57
l6 12l10 -1l1 13l8 3c9 4 17 6 27 6c32 0 60 -22 76 -34c0 0 9 -9 10 -12c1 -2 -7 -13 -7 -13c-1 -3 -1 -8 -1 -13c0 -6 0 -12 -2 -18c10 -30 13 -60 16 -91s6 -61 20 -89c7 2 13 2 17 3l14 1l6 -13c1 -3 7 -4 11 -4c0 0 16 -2 20 -2c3 -5 -2 -15 -2 -15s5 -1 8 -4
c-1 -6 1 -15 1 -15c1 -29 -19 -44 -35 -55c-9 -6 -17 -10 -20 -16v-1v0c-8 -20 1 -45 13 -65l4 -7l-2 -7c-3 -14 1 -31 5 -49c5 -19 10 -42 5 -64c0 -7 1 -14 2 -22c3 -25 8 -63 -25 -86c0 0 -1 -6 -8 -9c0 7 -6 4 -6 4l-5 -11l-8 4h-3c0 0 -10 -2 -12 -13
c-12 0 -23 16 -23 16zM314 342c-3 -6 -6 -11 -8 -16c-3 -4 -5 -8 -6 -12c6 2 12 4 17 6c42 15 85 29 132 29c4 0 7 0 11 -1c10 10 22 15 34 16c-1 21 -7 39 -13 60c-7 22 -13 47 -13 72l-5 4l-3 14v0v0l-1 -2l-9 -12l-16 -12h-10c-27 -30 -52 -64 -75 -97
c-12 -17 -25 -34 -35 -49z" />
    <glyph glyph-name="B" unicode="B" horiz-adv-x="722" 
d="M265 -45c-18 0 -36 3 -53 8c0 0 -31 -4 -37 -3c-5 1 -5 10 -5 10h-3c-5 0 -10 0 -15 1h-1v0c-30 9 -54 32 -69 61c-17 35 -19 74 -6 108l3 7l7 4c1 0 2 1 3 1l2 9l16 -1c16 -1 39 -3 51 -24c5 29 10 57 15 84c17 100 33 203 64 303c0 3 1 7 2 10c1 4 2 7 3 10
c-3 -2 -6 -5 -10 -7c0 0 -6 -6 -11 -6c-6 0 -12 8 -12 8c-2 1 -3 3 -5 4c-9 11 -23 13 -36 10c-4 6 1 22 1 22c10 41 38 80 78 108v23l11 6c8 4 18 7 28 7c11 0 24 -4 33 -11c3 0 5 0 7 1c12 1 20 2 30 4c32 6 56 9 80 9s47 -4 67 -11l6 -2l4 -4c6 -8 23 -9 33 -10h4l4 -2
c29 -15 48 -37 68 -58c8 -9 15 -18 22 -26l7 -5l-1 -9c-1 -4 -1 -7 -1 -11c-3 -24 -5 -46 -1 -70l1 -7l-5 -6c-3 -4 -4 -10 -4 -17c-1 -6 -2 -12 -3 -19c-8 -29 -31 -51 -50 -68c-6 -7 -12 -13 -18 -19c4 0 8 1 13 1h9l6 -10c4 -6 9 -8 21 -13h2l1 -2c25 -18 36 -39 44 -57
l2 -3v-3c5 -53 -11 -105 -43 -152c-31 -41 -73 -75 -119 -97c-3 -3 -6 -5 -8 -8c-4 -5 -8 -8 -13 -13l-2 -1l-3 -1c-16 -6 -31 -12 -46 -19c-54 -22 -110 -44 -168 -44zM294 243c-10 -33 -13 -69 -16 -105c-3 -23 -5 -49 -10 -73h1l6 4h8h7v0c29 0 57 11 88 24
c22 10 46 21 71 25c11 8 23 17 34 24c15 12 31 23 42 36c2 3 3 6 5 10c4 7 7 15 11 23c-2 22 -13 43 -32 54h-51c-47 0 -108 -1 -164 -22zM343 599c1 -57 -11 -112 -26 -165c-6 -24 -13 -50 -18 -75c4 1 9 3 13 3c13 5 27 10 40 10c6 0 12 0 17 -2c3 1 5 2 7 4
c11 6 21 14 37 14c4 0 9 -1 13 -2c65 39 122 81 113 144c-12 9 -21 22 -28 32c-6 8 -11 16 -17 21c-14 12 -33 14 -56 14h-14h-15c-12 0 -25 0 -39 3h-1c-6 -1 -12 -1 -18 -1h-8z" />
    <glyph glyph-name="C" unicode="C" horiz-adv-x="722" 
d="M306 -38c-10 0 -18 1 -27 2c-40 7 -79 25 -109 54c-32 29 -53 65 -60 106v1v1c0 7 -1 15 -1 23c-5 83 -11 177 43 253v2l1 1c5 5 11 11 19 13c2 6 4 13 6 20c12 41 24 87 67 113c1 3 2 5 2 7c1 2 1 4 2 6l2 9l8 4c15 8 28 19 41 31c20 17 43 38 73 46c10 18 25 28 40 37
c8 5 16 10 21 15l6 5l20 1l2 -1l1 2l9 7h2c7 3 15 5 22 5c13 0 25 -4 36 -7c7 -3 14 -5 21 -5c4 0 7 1 10 3l5 5h7h3c19 0 40 -7 58 -18c12 -9 24 -20 34 -34c2 1 5 2 6 3l8 5l8 -3c30 -12 43 -41 37 -76c-5 -34 -32 -68 -68 -69h-4l-5 2c-18 9 -26 29 -32 43
c-1 2 -2 4 -2 6h-1v1c-7 19 -18 27 -22 27c-1 0 -2 -1 -3 -2l-7 -6l-8 3c-1 0 -2 0 -4 1c-9 2 -22 4 -31 14c-4 1 -8 2 -13 2c-26 0 -47 -11 -62 -21l-4 -3l-2 -10l-8 -7l-4 -2c-40 -14 -69 -47 -102 -80c-4 -6 -9 -12 -14 -17c-59 -72 -92 -136 -104 -201
c-4 -35 -7 -73 -3 -111v0c2 -25 9 -46 19 -63c11 -17 24 -26 39 -26c3 0 7 1 10 1v1h1c11 2 23 3 35 5c47 7 92 14 133 34v0c6 3 11 6 17 11s12 12 21 17h1l1 1c7 2 14 3 19 3h5l3 3c19 18 41 37 68 48h1h2c5 2 9 2 13 2h3h2h4h1c5 3 10 6 15 10c16 8 33 17 53 17
c5 0 9 0 14 -1l10 -3l9 -17l5 -20l-1 -5c-9 -31 -36 -46 -58 -59c-15 -7 -30 -15 -37 -26l-1 -1v-1c-48 -47 -95 -75 -143 -90l-2 -1h-3c-3 0 -6 0 -8 1v0c-4 -2 -7 -4 -11 -6c-10 -5 -20 -11 -30 -13c-7 -3 -15 -5 -22 -7c-34 -10 -70 -21 -108 -21z" />
    <glyph glyph-name="D" unicode="D" horiz-adv-x="722" 
d="M140 -84c-22 1 -34 10 -40 18c-2 2 -3 4 -5 6c-7 2 -12 6 -16 9c-1 1 -4 3 -9 3s-13 -3 -13 -3s0 11 -2 15s-8 4 -8 4l3 17c2 21 5 48 14 70c13 30 32 43 49 49c19 59 35 126 50 204c2 10 3 21 3 33c1 17 2 35 7 53c5 23 13 47 21 69c10 30 19 58 21 86
c-13 -4 -27 -9 -42 -9c-6 0 -12 1 -18 2l-10 3l-4 10c-15 40 1 82 15 111l4 7l8 3c10 3 20 7 30 11c30 12 62 24 95 24c13 0 25 -2 37 -6c0 1 1 1 1 2c5 3 12 9 23 10l8 1l6 -8l12 9l6 -1c8 -2 14 -4 20 -5c4 -2 8 -3 12 -4c3 1 7 2 10 3c9 3 20 6 31 6c5 0 9 -1 14 -2l7 -1
l5 -7c1 -2 2 -4 3 -4h2h9c4 1 8 1 12 1c8 0 19 -1 31 -8v0l1 -1h6h2c34 -6 49 -37 57 -56c25 -16 57 -38 67 -75c4 -3 8 -8 11 -13c4 -7 5 -15 6 -21c1 -2 1 -4 1 -6l1 -2v-1c1 -19 1 -33 0 -44c0 0 8 -4 11 -10c3 -3 0 -16 0 -16c0 -1 0 -5 1 -7c1 -6 3 -13 2 -21
c5 -7 4 -15 4 -18l-1 -4l-2 -3c-5 -10 -7 -23 -8 -37c-2 -20 -5 -43 -21 -62c-12 -58 -54 -94 -94 -130c-19 -16 -36 -32 -51 -49l-3 -4l-6 -2c-44 -14 -83 -42 -122 -72c0 0 -7 -7 -11 -8c-4 -2 -11 5 -11 5v0c-6 -4 -14 -10 -24 -11c-15 -15 -37 -25 -63 -27
c-14 -6 -28 -13 -42 -20c-24 -12 -49 -25 -75 -35c-5 -11 -13 -25 -31 -30l-3 -1h-4zM269 284c-2 -42 -12 -82 -23 -120c-3 -13 -7 -26 -10 -40v0c5 2 11 3 17 4c20 17 44 21 65 25c13 2 26 4 36 9c6 5 13 10 20 15c7 6 15 12 23 18v0h1c91 52 176 113 184 210
c-7 30 -17 69 -29 107c-39 38 -94 57 -152 73c-2 -1 -4 -3 -6 -4l-6 -3l-7 1c-11 3 -20 4 -29 4c-7 0 -14 -1 -20 -3c-23 -94 -46 -194 -64 -296z" />
    <glyph glyph-name="E" unicode="E" horiz-adv-x="667" 
d="M160 -40h-4h-1h-1c-16 3 -31 8 -45 11c-17 5 -32 10 -47 11l-19 2l1 17c2 62 23 119 45 175c15 38 29 78 37 118c-2 4 -4 9 -4 15v3l1 2c23 77 28 156 33 238c0 12 1 25 2 36c-1 13 3 30 13 43c8 7 18 11 29 11c4 0 9 -1 13 -2v0c29 -9 55 -15 80 -15c6 0 11 0 16 1v0v0
c60 5 121 14 179 24c51 9 104 17 157 23h1h1c13 0 23 -6 31 -11c4 -1 8 -4 10 -4h1c0 0 13 1 19 -5s3 -19 3 -19c-1 0 -2 -3 4 -11c0 0 4 -7 4 -11c1 -3 -6 -11 -6 -11c-8 -10 -19 -15 -29 -19c-12 -6 -17 -10 -19 -14c0 0 -4 -11 -7 -14c-4 -3 -15 0 -15 0c-1 1 -3 1 -4 1
c-6 0 -13 -3 -21 -6c-1 -1 -3 -1 -4 -2c0 0 -21 -8 -23 -8c-2 1 -3 7 -3 7h-1c-24 -1 -47 -6 -76 -15l-7 -3l-8 4c-1 0 -1 1 -3 1c-3 0 -9 -2 -14 -4c-8 -3 -17 -5 -26 -5c-5 -1 -11 -1 -17 -1c-10 0 -20 1 -29 1c-7 0 -16 1 -24 1c-5 0 -9 0 -13 -1c-9 0 -17 -3 -27 -7
c-14 -4 -31 -10 -47 -10c-5 0 -9 0 -13 1l-8 1l-4 6c-1 1 -1 1 -2 1s-2 0 -3 -1c1 -12 -3 -23 -6 -32c-1 -4 -1 -6 -1 -9c1 -5 3 -9 5 -14l1 -4l-1 -15l-4 -10l-5 -21l-1 -2c-3 -15 -4 -29 -6 -45c-2 -14 -3 -27 -6 -41c17 2 33 5 51 8c18 4 38 9 58 10c8 1 18 1 27 2
c15 1 28 2 41 5v0c9 1 18 3 28 4c14 4 30 7 47 9c4 0 9 1 12 1c17 0 32 -5 43 -12c13 -9 20 -21 21 -37v-12l-11 -6c-8 -3 -12 -14 -17 -30l-2 -7l-8 -4c-61 -28 -127 -34 -191 -40c-31 -3 -63 -5 -93 -11h-1v0c-19 -2 -36 -8 -47 -17c0 -3 1 -6 0 -9c0 -6 -2 -12 -5 -15
c0 0 1 -9 9 -14c1 -5 -16 -14 -16 -14c-4 -3 -5 -7 -6 -19c-1 -5 -1 -10 -3 -15c4 -1 9 -1 14 -1c12 -1 26 -2 39 -7c48 9 97 12 145 16c74 4 143 9 207 38l5 1h5c15 -1 24 -10 29 -16c1 -2 3 -3 4 -4c0 0 10 -11 17 -14c4 -8 -8 -19 -8 -19c-5 -3 -7 -12 -7 -19v-2l-1 -2
c-4 -12 -13 -23 -25 -26c-5 -11 -13 -20 -19 -27c0 0 -7 -9 -12 -11c-5 -1 -14 5 -14 5c-1 1 -2 1 -3 1c-2 -5 -7 -11 -14 -14l-8 -6l-10 3c-3 1 -7 1 -11 1c-8 0 -17 -2 -28 -5c-12 -3 -25 -6 -38 -6c-6 0 -11 1 -17 2c-25 -14 -54 -16 -81 -16h-15h-14v0h-1h-5
c-10 0 -21 0 -32 -1c-12 -1 -23 -2 -36 -2c-6 0 -12 0 -18 1h-4c-9 0 -17 -2 -27 -4c-12 -3 -24 -5 -36 -5z" />
    <glyph glyph-name="F" unicode="F" horiz-adv-x="611" 
d="M109 -35c-29 29 -26 69 -23 102c0 7 1 16 1 25v1v1c3 26 8 53 13 77c1 10 3 20 5 31l-6 1l-3 7l-8 -1l-6 4c-10 3 -17 12 -19 23c-3 9 -2 20 1 28c-9 29 8 53 19 71l2 3l6 10l10 -1h5c13 0 23 3 30 9c7 33 17 65 28 98c11 30 21 58 27 89h-2c-10 0 -19 3 -26 8
c0 0 -12 -10 -27 -8c2 11 -7 16 -7 16c-4 3 -6 7 -8 11c-7 14 -4 29 1 37c7 18 16 34 25 48l4 7l8 2c9 1 19 5 29 9c9 4 18 9 29 11l5 2l5 -2c4 -1 8 -1 12 -1c16 0 33 8 52 16c5 3 11 5 17 7c0 0 11 6 17 3c1 -10 10 -14 10 -14v0c5 0 11 3 18 8l8 5l22 -4l5 -5
c9 3 19 3 29 3c16 1 24 2 32 7l7 6l9 -1c15 -3 28 -4 47 -4c13 0 25 0 38 1c14 1 28 1 40 1h14c7 1 14 3 22 3c4 0 8 -1 11 -1l1 -1v0c16 -4 27 -16 27 -33c0 -4 0 -9 -2 -13c0 0 3 -7 11 -11c3 -10 -10 -26 -10 -26l-3 -3c-4 -5 -10 -9 -15 -12c-13 -25 -42 -27 -60 -29
c-4 0 -7 0 -10 -1l-6 -1l-20 9h-7c-6 0 -11 1 -17 2c-2 0 -5 0 -8 1c-2 -1 -4 -2 -7 -4c-7 -3 -16 -7 -25 -7h-1h-7h-18c-5 1 -10 1 -15 1s-7 0 -10 -1c-19 -5 -39 -7 -56 -8c-18 -2 -35 -4 -49 -8l-25 -18c-1 -4 -3 -8 -5 -12c-21 -53 -46 -108 -54 -165l6 2
c15 2 30 4 42 6c24 4 47 7 68 13c2 1 4 2 6 4c7 6 17 12 31 12s28 2 40 4c9 1 19 2 28 3c0 0 15 2 19 -3c-3 -10 2 -17 2 -17c0 -1 2 -2 4 -3c4 -4 9 -7 14 -13c0 0 5 -8 6 -12c0 -4 -6 -10 -6 -10c-46 -66 -117 -81 -187 -96c-35 -6 -70 -13 -100 -27
c-3 -22 -8 -43 -13 -64c-12 -51 -23 -100 -10 -148l2 -7l-4 -7c-2 -3 -4 -7 -6 -11c-9 -14 -21 -31 -40 -39l-5 -3l-5 1c-2 1 -4 1 -6 1s-4 0 -6 -1l-10 -1z" />
    <glyph glyph-name="G" unicode="G" horiz-adv-x="778" 
d="M405 -23c-17 3 -37 4 -50 4c-8 0 -17 0 -25 -1h-24c-30 0 -63 2 -91 12c-31 9 -52 29 -68 56c-24 8 -33 31 -41 48c-5 11 -9 22 -17 27l-8 6l-1 9c-5 62 4 132 30 204v1c4 10 7 21 11 32c8 34 20 72 50 101c1 10 5 20 8 29c2 6 5 12 5 17l1 12l14 3c15 4 27 18 32 32l3 9
l10 3c24 6 40 32 48 51c0 0 5 12 7 18c10 2 16 -5 16 -5c10 14 23 22 37 22v0l3 6c3 7 6 15 12 21l4 3l5 1h5c5 0 9 -1 13 -3l8 14l14 -6c2 -1 4 -1 6 -1c10 0 21 7 27 17l4 6l8 2c44 12 91 19 136 20c0 0 10 1 13 0c2 -1 5 -8 5 -8s9 7 22 5c6 0 9 -18 9 -18
c0 -4 6 -7 11 -11c1 -1 3 -2 4 -3c21 -13 26 -31 27 -38c1 -15 -6 -30 -19 -40l-3 -3h-5c-20 -4 -39 -5 -55 -5c-21 0 -40 2 -54 7c-16 -2 -32 -7 -46 -11c-15 -4 -29 -9 -43 -12c-4 -3 -8 -6 -11 -10l-2 -3l-4 -2c-47 -22 -86 -59 -124 -94c-80 -90 -118 -213 -98 -320
c8 -51 49 -79 133 -83c5 10 12 17 20 20c9 -11 16 -8 16 -8c2 1 6 2 9 2c5 2 12 4 17 4c4 0 8 -1 12 -2c24 15 51 26 82 30c0 5 1 11 4 16c6 9 15 15 25 17c1 13 4 27 6 40c5 28 10 56 4 82l-2 10l8 8c3 4 5 8 8 13c-33 0 -68 -17 -101 -34c-9 -4 -17 -7 -26 -9l-9 -4l-9 5
c-8 3 -20 5 -34 7c-9 1 -18 2 -25 5c0 0 -11 2 -13 6s-2 14 -2 14c1 15 6 26 11 38c5 11 9 20 8 28l-1 11l7 7c49 35 107 38 162 39l10 21h14c10 0 22 3 35 6c15 4 29 8 46 8c6 0 12 0 18 -1c13 5 27 5 40 6c11 1 21 1 32 5c0 0 8 3 16 1c7 -1 8 -9 8 -9c1 -1 4 -1 6 -1h2
l2 -1c14 -5 21 -14 24 -22c0 0 7 -4 15 -1c4 -5 -1 -26 -1 -26c-5 -34 -33 -55 -76 -64h-1h-1c-16 -1 -29 -8 -36 -19c-7 -9 -9 -18 -7 -30l1 -4v-4c-2 -6 -3 -11 -4 -17c-3 -15 -6 -31 -11 -48c8 -2 13 -9 14 -18v-4l-1 -5c-4 -10 -8 -21 -12 -29c-10 -29 -20 -55 -23 -84
l-1 -5l-2 -3c-24 -36 -60 -49 -92 -61c-19 -7 -35 -14 -49 -24l-6 -4l-7 1h-4c-15 0 -29 -8 -45 -16c-8 -4 -15 -8 -22 -12l-4 -3z" />
    <glyph glyph-name="H" unicode="H" horiz-adv-x="722" 
d="M96 -65c-10 1 -23 3 -34 12l-8 7l1 10c2 15 4 30 11 47c0 3 -1 6 -2 9c-2 4 -4 10 -5 14l-1 4l1 3c16 66 29 133 43 195c29 137 59 277 97 412l5 18s6 -4 16 -2c5 2 12 8 12 8l12 -5c35 -17 58 -45 63 -74l1 -7l-3 -5c-2 -4 -4 -7 -6 -10c-15 -26 -24 -45 -17 -62l4 -10
l-5 -9c-10 -18 -14 -40 -17 -64c-2 -10 -4 -22 -7 -35c12 1 22 5 36 9c16 6 31 12 49 12c7 0 14 -1 21 -3c9 4 19 6 32 6c8 0 16 -1 24 -1c6 -1 12 -2 19 -2c4 0 8 0 12 1v0c9 3 19 6 26 8c22 5 43 12 68 13c9 32 18 63 24 94c19 77 39 155 76 228l6 11l12 -1
c21 -1 38 -10 53 -19c3 -3 7 -5 11 -7l13 -7l-2 -14c-6 -41 -18 -81 -28 -120c-16 -59 -31 -109 -30 -167l10 -7l5 -13l1 -2c4 -29 -11 -48 -23 -65c-7 -10 -13 -19 -14 -28l-1 -1v-1c-5 -17 -1 -36 2 -54c2 -17 5 -33 4 -53v0v-1c-2 -10 -2 -21 -2 -30
c-1 -22 -2 -44 -9 -65c-5 -22 -19 -34 -31 -46c-6 -8 -12 -14 -16 -21c0 0 -8 -11 -15 -12c-7 0 -18 10 -18 10c-4 5 -7 8 -9 8h-1s-8 0 -17 -4c-5 3 -11 16 -11 16c-15 47 -10 94 -5 139c4 26 7 50 6 75c-2 7 0 15 1 22c-71 -2 -148 -10 -230 -22l-12 -2l-7 8
c-13 -4 -28 -5 -42 -6c-17 -31 -22 -64 -28 -100c-4 -17 -7 -35 -11 -51l9 -4l3 -7c7 -16 2 -30 -2 -39c-1 -3 -3 -9 -3 -11l4 -7l-3 -8c-15 -36 -41 -60 -69 -80c-12 -10 -22 -20 -32 -29l-7 -7z" />
    <glyph glyph-name="I" unicode="I" horiz-adv-x="278" 
d="M126 -42h-3c-7 2 -15 3 -23 4c-9 0 -18 1 -28 2l-1 1h-1c-21 7 -24 28 -26 38v6l-2 5l2 5c3 10 7 20 8 29l1 5l7 7c1 0 1 1 1 1c2 10 4 21 1 29l-3 6l3 7c25 53 36 115 48 174c2 11 4 18 6 28c2 12 5 24 8 35c5 15 10 34 8 49v2l1 4c9 44 22 90 39 135c-2 14 0 30 2 43
l1 5l5 4l2 3l1 4v0l1 11l3 13l2 10c5 15 16 39 40 49c0 0 8 3 9 3c4 -1 10 -5 10 -5c1 0 3 -1 5 -2c7 -5 19 -13 23 -28c11 -12 10 -30 9 -42v-6v0c-1 -9 -5 -16 -9 -22l1 -16l-3 -6c-2 -3 -2 -9 -2 -15c-1 -5 -1 -12 -4 -20l6 -8l-5 -11c-5 -10 -7 -22 -9 -37
c-3 -20 -6 -40 -20 -61c0 -4 0 -7 1 -9c0 -7 0 -13 1 -18l2 -6l-3 -7c-11 -28 -17 -62 -22 -94c-5 -22 -9 -50 -17 -73c4 -18 -6 -34 -13 -42c0 -14 -3 -28 -7 -39c-1 -2 -1 -4 -2 -5v-1l-1 -1c-1 -3 -2 -5 -2 -5l6 -7l-1 -9c-2 -9 -3 -18 -3 -26c-2 -16 -4 -34 -9 -50
c-4 -17 -14 -30 -24 -39l-6 -6h-5c-2 -1 -4 -1 -7 -1h-2z" />
    <glyph glyph-name="J" unicode="J" 
d="M243 -34c-38 0 -76 10 -110 25c-33 17 -66 40 -90 69l-4 4l-2 13v1c-6 3 -9 7 -11 10c-10 16 -5 34 -1 46c1 4 2 9 2 11l1 11l11 5c9 4 18 7 28 7c13 0 25 -3 35 -6c3 -1 7 -2 12 -2l13 -3l3 -13c0 -5 4 -10 8 -16h1c14 -5 26 -14 39 -23s24 -18 38 -22c5 -1 10 -1 15 -1
c36 0 66 12 97 24c1 0 3 1 5 2c13 19 15 44 18 69c3 29 6 60 27 88c-1 2 -2 3 -4 5l-3 3l-4 7l9 42l10 10v1v1l-6 12l2 12c10 53 7 107 3 159c-1 21 -2 44 -3 64c-27 1 -50 5 -72 13v0c-23 9 -39 20 -49 37l-2 3l-1 3c-5 28 1 53 19 73l6 7l11 -1c21 -2 44 -6 64 -11
c28 -4 52 -10 78 -10c20 0 40 4 57 13l10 4l10 -6c1 -1 1 -1 3 -1c5 0 10 2 16 4c8 2 16 4 26 4c5 0 9 -1 13 -1c6 5 14 11 24 11h6l10 -2l4 -9c4 -7 3 -16 2 -23l11 -2l-3 -19c-3 -19 -13 -39 -27 -54s-35 -24 -56 -24v0h-3h-4l-9 6l-16 -9l-7 2l-4 -6l-3 -2
c-3 -44 1 -90 6 -134c0 -4 0 -8 1 -12v-2v-1c-4 -85 -15 -157 -27 -222l-1 -4l-2 -3c-6 -9 -7 -21 -8 -32c0 -16 -1 -33 -11 -48l-12 -68l-21 -11c0 -1 -1 -2 -1 -3c0 -4 0 -9 -2 -14l-2 -4l-4 -4c-19 -19 -53 -40 -91 -40h-4c-23 -8 -49 -13 -74 -13z" />
    <glyph glyph-name="K" unicode="K" horiz-adv-x="722" 
d="M100 -37c-21 18 -29 39 -29 66c0 21 6 44 11 64c12 41 18 67 -1 88l-4 5v8c0 8 -1 16 -2 25c-2 18 -4 40 4 60l3 7l6 3c5 2 9 6 14 10s10 8 16 11c7 31 14 63 22 93c15 54 30 110 41 165c1 3 2 6 2 10c4 26 8 56 32 78c1 14 7 29 13 41c4 10 9 19 10 27c0 0 2 15 6 18
c8 6 22 -3 22 -3c13 -7 25 -12 39 -13l13 -2l2 -11c6 -19 12 -48 4 -78v-1v0c-6 -22 -15 -45 -24 -66c-20 -49 -37 -96 -43 -147v0v0c-2 -9 -1 -18 0 -29c0 -2 1 -5 1 -7c23 17 46 39 66 58l2 2l2 1c54 32 104 74 153 115c49 40 99 81 154 114l9 5l10 -4c2 -1 4 -2 7 -3
c18 -6 42 -14 49 -35c2 -8 3 -19 -5 -32l-1 -3l-1 -1c-18 -17 -34 -30 -47 -41c-15 -11 -27 -21 -39 -33c-1 -5 -4 -10 -9 -16v-1v0c-16 -15 -34 -27 -49 -38c-25 -15 -47 -31 -64 -51l-6 -8s-4 4 -9 1c-4 -2 -5 -10 -5 -10l-5 -3c-23 -17 -48 -32 -70 -48
c-42 -27 -86 -57 -127 -90c8 -5 15 -11 22 -16c15 -10 27 -19 42 -25l5 -2l3 -4c3 1 7 1 10 1c12 0 22 -5 29 -15c85 -38 173 -82 225 -162l4 -8l-2 -8c-9 -26 -38 -44 -65 -44c-11 0 -17 1 -26 5c0 0 -2 -3 -8 -2c-4 3 -15 14 -15 14c-2 2 -5 4 -8 7c-4 2 -7 5 -11 8h-2
c-3 0 -7 -1 -11 -1h-8l-6 8c-7 11 -19 16 -32 23c-12 8 -29 18 -40 34c-7 0 -12 2 -16 3c-3 1 -6 2 -8 2v0l-12 -2l-7 8v0c-2 1 -9 1 -12 1c-6 1 -16 1 -25 4c-18 7 -30 19 -44 32c-13 10 -24 19 -35 22c5 -53 -17 -104 -38 -149c-2 -5 -5 -9 -7 -14l-3 -10s-7 1 -10 -2
s-6 -9 -6 -9l-12 -1h-5h-9s-3 1 -4 1h-1s-3 -8 -13 -8c-3 0 -12 8 -12 8z" />
    <glyph glyph-name="L" unicode="L" horiz-adv-x="611" 
d="M134 -47c-9 5 -14 12 -18 18c-2 2 -5 6 -6 6l-12 2l-3 12c-15 72 -12 150 7 241l-1 6l-4 29l2 5c22 47 28 98 35 150c3 21 5 44 9 64v1v0c3 15 8 28 13 40c4 7 7 15 10 22c1 9 1 18 1 28c0 12 0 23 1 34v1l5 16l4 4c3 3 6 7 9 10c1 7 1 15 1 22c0 22 0 46 15 68
c0 0 4 6 8 8c5 2 13 -1 13 -1c3 -1 7 -1 11 -2c16 -4 36 -9 52 -21l6 -4l1 -9c6 -82 -13 -159 -33 -235c-13 -49 -25 -98 -30 -149c0 -3 0 -7 1 -11c2 -7 3 -16 2 -25c-2 -32 -10 -62 -17 -93c-8 -35 -16 -68 -16 -104c5 1 11 2 15 4c74 20 148 39 224 39c32 0 59 -2 88 -8
l13 -3v-16c0 -3 2 -8 3 -13c3 -7 6 -13 6 -22c0 -10 -3 -19 -9 -27c-2 -9 -5 -17 -12 -24l-7 -7l-21 3l-1 -1s-4 -5 -10 -7c-4 -1 -11 4 -11 4c-1 0 -1 1 -2 1l-3 -2h-5c-3 0 -6 0 -8 1h-2h-5l-4 2c-1 0 -2 1 -3 1h-1s-9 0 -16 -8c-2 12 -11 11 -11 11c-2 0 -6 -1 -9 -2
c-6 -2 -13 -4 -21 -4c-1 0 -2 0 -4 1c-8 -6 -18 -9 -28 -9c-3 0 -7 1 -10 1c-57 -28 -125 -46 -202 -51h-5z" />
    <glyph glyph-name="M" unicode="M" horiz-adv-x="833" 
d="M65 -38c-23 0 -35 19 -42 31c-3 3 -6 9 -9 11c0 0 -7 6 -8 11s2 14 2 14c17 33 34 66 52 99c34 63 68 130 97 199l3 4l4 3c2 2 5 4 6 6l6 6c10 45 31 84 50 125c12 23 25 48 35 72v0c3 6 4 13 5 21c2 7 3 16 5 25c8 22 20 39 32 58s22 36 28 56l3 10c7 5 14 3 14 3l1 2
l13 10l28 17l6 -4l8 -2c26 -4 48 -17 60 -38c19 -33 16 -75 6 -104c1 -2 2 -3 2 -3l9 -7l-1 -12c-11 -79 -13 -157 -5 -234c31 37 54 82 78 125c5 8 9 18 14 27c4 8 6 17 9 27c3 11 6 25 14 38v0c7 12 16 22 22 32c12 16 23 30 31 46v0c7 16 15 30 29 41l6 5l8 -1
c4 -1 8 -1 12 -1c11 -1 26 -2 41 -10l4 -3l2 -3c13 -26 14 -44 15 -58v-4v-1v-1c0 -1 2 -4 3 -6c4 -6 10 -16 9 -27c0 -5 -1 -9 -1 -13c0 -14 -1 -28 -3 -40c-1 -6 1 -15 2 -23c3 -15 7 -33 -2 -52c6 -18 -1 -38 -8 -54c-7 -19 -8 -25 -2 -31c0 0 7 -9 8 -12
c0 -4 -7 -13 -7 -13c-1 -1 -2 -2 -3 -4c1 -2 2 -5 2 -8l3 -7l-1 -21c0 -9 -2 -17 -5 -27c-4 -18 -5 -26 -2 -29c0 0 10 -7 10 -12c-9 -7 -15 -24 -15 -24l6 -8v-2c0 -2 1 -4 1 -6l-2 -14s4 -5 4 -13c0 -7 -7 -17 -7 -17l1 -4l-6 -8c5 -10 5 -21 6 -29v-12c0 0 8 -18 5 -22
s-11 -5 -11 -5c1 -1 1 -2 1 -3c1 -3 2 -5 2 -8c0 0 3 -17 1 -22c-9 3 -15 -3 -15 -3c-1 -7 -4 -15 -12 -22l-2 -2l-2 -1s-3 -14 -7 -17c-2 -4 -17 2 -17 2c-2 1 -5 1 -8 1c-8 0 -17 -3 -26 -5c-7 -3 -16 -5 -26 -6c0 0 -9 -1 -12 1c-3 1 -7 8 -7 8c-15 25 -6 54 0 75
c9 28 11 38 -3 49l-6 7l1 10c2 41 10 80 19 118c7 34 15 67 19 99c-1 3 -2 6 -3 7c0 0 -5 8 -10 10c1 6 3 12 3 12c3 11 7 22 10 35c-6 -5 -12 -8 -17 -11c-1 0 -2 -1 -4 -2c-10 -48 -37 -85 -64 -121c-14 -20 -28 -37 -39 -56c-3 -10 -6 -19 -8 -29c-6 -24 -13 -50 -30 -73
l-2 -2l-3 -2c-13 -9 -22 -18 -30 -27c0 0 -8 -7 -12 -8c-4 0 -13 4 -13 4c-9 6 -13 14 -16 20c0 0 -6 -2 -10 -1c-1 3 -6 14 -6 14c-29 76 -29 157 -29 235v6c-4 34 -7 70 -8 103l-8 -18l-10 -6c-3 -6 -2 -2 -5 -9c-15 -40 -32 -78 -45 -117l-2 -5l-3 -4c-3 -2 -5 -8 -7 -12
c-4 -7 -6 -16 -12 -24c-2 -35 -24 -64 -42 -87c-14 -20 -28 -37 -32 -58l-2 -8l-6 -4c-6 -4 -10 -8 -15 -11c-3 -6 -6 -13 -8 -19c-5 -11 -9 -21 -10 -30l-2 -8l-8 -5c-16 -10 -28 -29 -41 -46c-1 -2 -3 -5 -5 -7l-3 -5l-5 -2c-6 -3 -11 -5 -18 -5z" />
    <glyph glyph-name="N" unicode="N" horiz-adv-x="722" 
d="M84 -41c-2 3 -6 7 -11 11c-10 7 -23 15 -27 34v3v2c4 33 12 65 21 95c3 12 6 23 9 34c3 16 8 31 14 46c5 19 10 36 11 54v0v1c1 4 1 8 1 11c0 8 1 15 4 24l1 2l2 3c2 2 4 5 6 8s4 5 6 8c0 2 -1 5 -1 7c-2 7 -5 19 0 32l1 1v1c3 6 7 10 10 15c3 3 5 4 7 7c1 8 1 16 0 26
c0 12 -1 26 3 40c1 10 5 18 9 24c4 8 6 13 5 15l-1 4v4c1 23 9 44 16 66c11 33 20 61 8 91c0 0 -5 7 -4 12c2 5 12 10 12 10c8 5 17 13 17 19c0 0 -3 14 2 17c6 3 21 1 21 1c18 -3 35 -10 52 -17c5 -3 10 -6 13 -8l7 -4l3 -7c24 -71 54 -139 91 -199l4 -6l-2 -7
c-4 -17 6 -32 23 -53c17 -23 35 -48 29 -82c12 -14 21 -31 31 -44c9 -18 19 -35 31 -49c4 10 7 22 10 35c5 23 11 48 25 69c12 39 26 78 39 116c32 87 62 169 65 259v10l9 5c11 6 21 9 31 9c16 0 30 -5 41 -10c7 -2 15 -5 22 -6l9 -2l5 -8c6 -8 6 -12 5 -20c0 0 1 -3 5 -3
c1 -7 -3 -21 -3 -21c-1 -3 -3 -8 -5 -12c2 -2 3 -7 3 -13v-4l-1 -3c-10 -23 -17 -46 -25 -70c-14 -45 -27 -93 -56 -134c-9 -54 -22 -105 -36 -157c-20 -76 -39 -153 -47 -231c0 0 2 -9 -8 -13c-11 -4 -7 -13 -7 -13l-17 -10c-11 -5 -24 -7 -36 -7c-18 0 -35 7 -46 22v1h-1
c-3 6 -5 11 -6 16c-7 15 -11 19 -16 21l-12 3l-3 12c-5 25 -22 48 -41 71s-37 46 -47 76c-12 29 -27 57 -45 85c-15 23 -29 47 -40 71l-2 3v3v4c-2 16 -4 24 -9 25l-7 1c-1 -11 -2 -24 -2 -35v-8v-4l-2 -3c-3 -6 -6 -11 -9 -16c-4 -6 -6 -10 -8 -16c-4 -14 -4 -31 -5 -48
c0 -17 -1 -36 -6 -53v0v-1c-3 -8 -7 -17 -11 -25c-9 -15 -14 -25 -10 -35l2 -8l-3 -7c-16 -31 -21 -56 -18 -80l1 -8l-6 -7c-10 -10 -14 -26 -19 -42c-3 -12 -6 -23 -12 -35l-4 -8l-7 -2c-3 -1 -8 -2 -12 -2c-6 0 -11 1 -15 2c-3 0 -5 1 -7 1v-1s-11 -2 -16 -1
c-3 1 -8 10 -8 10z" />
    <glyph glyph-name="O" unicode="O" horiz-adv-x="778" 
d="M321 -31c-10 -4 -21 -4 -31 -5c-6 0 -12 0 -17 -1c0 0 -15 -1 -20 2c-2 4 -1 9 -1 9c-4 -1 -9 -1 -13 -1c-6 0 -10 1 -14 2l-14 6l1 5c-8 1 -14 7 -19 14h-1c-4 4 -10 8 -13 8h-1l-9 -4l-8 5c-49 40 -78 99 -86 184l-1 8l11 10c-5 14 2 30 6 40c2 4 5 8 5 11v1v1
c1 3 0 8 -1 13c-1 4 -2 9 -2 13v2v4c4 10 10 19 16 27c3 5 6 10 8 14v6c2 13 4 34 21 47c3 21 14 42 25 57c6 11 12 24 16 36l2 9l11 3c4 2 9 3 14 6h1c-1 7 1 14 4 21c4 8 11 14 18 21c9 7 13 11 13 16l-1 15l15 2l-2 6l12 14c1 1 3 2 4 4c14 17 32 35 56 40l9 11l6 3
c10 10 20 14 31 18c4 2 8 4 11 6l17 10l3 6l15 -2c9 -1 19 -4 29 -9c6 6 11 9 21 10c0 0 10 1 14 -1c4 -3 7 -13 7 -13c1 -2 4 -6 7 -8s6 -5 8 -7c5 2 12 4 21 6h4l3 -1h8c7 0 14 2 21 3c8 2 18 4 29 5h9l5 -5c1 -2 6 -4 11 -5c6 -1 13 -3 19 -6h1c13 0 20 -8 25 -13h1
s9 -2 15 3c7 -2 10 -15 10 -15c4 -12 14 -22 23 -35c18 -18 37 -39 37 -69c0 -2 2 -4 3 -6c1 -3 3 -9 4 -9l16 -6l-3 -15c-1 -2 -1 -5 -1 -8h1s11 -1 11 -9c-6 -6 -2 -16 -2 -16c4 -5 9 -12 9 -21v-6l2 -16c4 -31 8 -69 -4 -105l8 -8l-6 -9c-3 -6 -6 -13 -8 -22
c-2 -8 -5 -17 -9 -24c1 -24 -16 -41 -27 -52l-1 -1c-6 -6 -11 -16 -15 -26c-5 -9 -9 -19 -17 -29c-14 -21 -37 -40 -62 -59l-1 -1v0c-13 -6 -24 -15 -37 -26c-24 -21 -51 -44 -90 -49c-2 -1 -3 -2 -4 -4l-6 -11h-10h-7h-7c-20 0 -23 -4 -25 -7l-4 -10l-13 1h-5
c-17 0 -32 -4 -49 -9c-15 -3 -28 -7 -44 -8c0 0 -14 -2 -19 0c-5 1 -3 8 -3 8zM247 107c24 -19 57 -28 97 -28c36 0 73 8 100 14c3 3 6 5 9 7c14 10 31 23 53 26c14 16 31 29 48 42c29 25 57 46 67 82l2 7l8 3c4 2 7 4 8 6c15 79 20 187 -42 270c-21 9 -38 12 -51 12
c-5 0 -10 -1 -14 -1c-15 -6 -26 -13 -38 -19c-16 -9 -31 -19 -47 -24l-15 -4l-8 12c-6 -3 -12 -5 -16 -5c-12 0 -21 7 -25 17v2l-1 1v7c-6 -2 -11 -5 -16 -8l-4 -8c-1 -6 -4 -14 -10 -20l-3 -3l-15 -5l-1 -1c-69 -84 -110 -190 -116 -303c4 -12 9 -24 14 -36
c6 -14 12 -28 16 -43z" />
    <glyph glyph-name="P" unicode="P" horiz-adv-x="667" 
d="M98 -56h-4l-16 1l-3 15c-9 50 2 96 12 141c7 27 13 55 15 81c-3 3 -5 6 -8 9c-13 15 -30 33 -25 62l1 1v2c11 29 36 49 59 63l12 9c5 8 7 17 3 25l-3 6l1 6c4 19 15 34 26 45c4 46 23 86 40 125c8 18 17 34 23 51c-15 -5 -27 -12 -33 -23l-1 -1s1 -4 6 -7
c0 -9 -23 -32 -23 -32h-5l-6 -3l-1 -1l-5 -3h-5c-12 0 -25 3 -36 7l-5 1l-23 30l6 8s0 1 -1 1c0 3 -1 6 -2 9l-1 8l5 7c2 3 5 6 6 9c4 5 8 10 8 13l-1 11l11 6c4 3 8 5 12 7c18 11 35 21 45 35l2 4l4 3c43 29 93 44 142 45c1 1 3 2 4 2l2 2l5 3h6c3 0 5 1 9 2c6 1 12 2 19 2
h5l5 -3c28 9 59 13 88 13c60 0 116 -16 163 -45l1 -1l2 -2c32 -32 48 -76 44 -125c-3 -54 -32 -105 -73 -138c-31 -52 -81 -80 -130 -109c-12 -5 -22 -11 -32 -17c-28 -34 -67 -40 -101 -48c-23 -5 -44 -9 -59 -18c-18 -16 -36 -23 -55 -32c-6 -3 -12 -6 -17 -8
c-12 -31 -13 -67 -16 -102c-2 -21 -3 -44 -7 -66c-3 -22 -14 -44 -33 -59c-17 -18 -40 -27 -62 -27v0zM242 334c1 -6 1 -11 0 -15c13 5 28 11 42 19v0v0c9 6 18 9 26 12l15 6c2 2 4 4 6 7c4 4 8 7 13 11l1 1l1 1c9 7 21 10 32 12c9 2 18 4 22 9v1l1 1c18 12 36 21 51 31
c14 11 26 25 39 37c5 5 8 10 13 16c5 7 12 14 18 21c8 7 15 14 20 22l1 1l1 1c16 22 23 57 1 79c-19 12 -42 15 -56 15c-8 0 -15 -1 -23 -2h-4h-4c-15 5 -32 7 -49 7c-21 0 -42 -5 -59 -13c-4 -30 -19 -55 -34 -82c-10 -18 -18 -35 -24 -54v0v0c-4 -12 -8 -22 -11 -33
c-12 -36 -25 -76 -39 -111z" />
    <glyph glyph-name="Q" unicode="Q" horiz-adv-x="778" 
d="M619 -80c-18 0 -25 12 -30 18c0 1 -1 2 -1 2c-6 1 -12 2 -17 4l-4 1l-3 2c-14 12 -18 27 -24 42c-5 16 -9 23 -13 24c-16 -9 -31 -14 -46 -18c-9 -2 -17 -4 -24 -7c-4 -4 -7 -8 -12 -12l-2 -1l-3 -2c-33 -11 -66 -18 -98 -18c-21 0 -40 3 -58 8c-64 2 -118 30 -156 80
c-27 36 -46 84 -55 139c-6 49 -5 102 7 148l2 8l7 4c2 1 4 6 3 20l-1 12l11 6c2 2 5 4 7 8c1 1 2 3 4 4v1v3l-5 4l3 12c21 68 67 121 111 172c3 4 7 7 10 11l1 1h1c10 8 20 15 29 23c16 12 32 23 43 34l5 6l8 1c7 0 14 8 22 15l2 2l5 5l10 1l10 5l4 1c13 10 31 20 52 20
c6 0 12 -1 18 -3c6 3 11 5 18 8c23 9 41 16 66 18c0 0 3 8 11 11c7 -1 13 -2 13 -2c4 -1 10 -1 14 -2c11 -3 22 -5 31 -5c4 0 9 1 13 3l8 3l8 -2c11 -4 20 -9 30 -13c15 -7 30 -13 43 -18l11 -3l3 -9c2 -5 9 -11 16 -17c13 -12 29 -28 28 -53c1 -1 2 -2 3 -4
c5 -8 10 -15 17 -20l10 -8l-4 -13c-5 -12 -1 -27 3 -41c3 -11 4 -23 5 -35v-1c0 -21 -4 -42 -9 -61c-6 -20 -10 -38 -9 -56v-3l-1 -3c-17 -72 -38 -145 -78 -213l-5 -7l-9 -1h-4v-1c-1 -2 -2 -5 -2 -8c-6 -17 -17 -24 -25 -28l-3 -1h-3h-2c0 -3 -1 -6 -3 -9l-4 -7l-9 -2
c-4 -2 -8 -4 -9 -5v0c5 -14 10 -21 16 -28l2 -2c3 -1 7 -4 11 -6c28 -18 60 -39 70 -79c0 0 2 -11 0 -14c-1 -4 -11 -7 -11 -7c-7 -4 -14 -10 -22 -16c-17 -12 -35 -25 -60 -26h-1v0zM209 131c2 -2 4 -5 6 -8c22 -25 44 -53 73 -53h8c9 3 18 5 29 5c9 0 19 -1 28 -4
c16 8 34 9 50 10c3 1 8 1 12 1c1 1 2 3 3 4c6 6 14 15 25 18c2 10 -4 20 -18 39c-14 20 -31 47 -22 79l3 8l7 4c12 5 22 6 32 7c7 0 10 1 15 3l3 1h20l17 -11l1 -6c1 -3 2 -5 3 -7c0 -1 1 -2 1 -3c10 -4 18 -10 25 -17c5 -5 8 -8 11 -10c64 78 107 180 122 296
c6 41 4 74 -7 98c-1 -8 -2 -15 -4 -23v-2l-1 -1c-23 -53 -70 -61 -94 -66c0 0 -16 -2 -30 -1c6 6 1 11 1 11l-17 2l3 19c1 5 1 10 0 15l-1 8l5 5c5 8 13 12 18 15c2 5 3 11 2 14c-8 7 -16 12 -22 15c-3 1 -5 3 -8 5h-3h-10h-6h-1c-20 -4 -36 -17 -52 -31
c-15 -12 -30 -23 -48 -32l-4 -2c-2 -6 -6 -14 -12 -21c-11 -12 -23 -15 -35 -19c-8 -2 -15 -4 -19 -8c-12 -16 -22 -33 -34 -49l-5 -7l-16 -3c-3 -5 -4 -11 -6 -17l-1 -1c-7 -17 -14 -34 -19 -53l-2 -8l-8 -3c1 -3 2 -8 3 -11v-4c0 0 3 -8 1 -13c-1 -3 -9 -8 -9 -8
c-7 -4 -12 -4 -17 -5c-1 -8 -1 -17 -4 -25c-3 -10 -10 -17 -18 -21c-3 -24 5 -50 13 -77c6 -17 11 -33 13 -52z" />
    <glyph glyph-name="R" unicode="R" horiz-adv-x="722" 
d="M98 -56c-26 12 -42 34 -45 62c-3 22 2 45 7 69c3 12 5 26 6 37l-1 6l-8 15l5 7c2 49 19 93 33 136c10 28 19 53 25 80c11 59 25 113 43 165h-4h-10h-5l-11 -1l-6 10c-16 24 -14 48 -11 71c0 7 1 13 1 19v11l9 6c10 7 23 8 34 9c13 1 15 2 16 5l3 6l5 2c12 5 24 8 35 11
c20 5 39 10 50 26l4 6l7 2c7 1 16 2 25 3c19 2 35 4 46 14l10 8l12 -5h1c2 0 3 1 6 2c5 1 10 2 16 2h1l10 17h10h6c17 0 38 2 58 4c24 3 47 5 71 5c39 0 96 -6 131 -58c18 -4 34 -16 43 -31c6 -9 10 -20 10 -32c3 -2 5 -4 8 -7l2 -3l1 -4c5 -17 -5 -31 -11 -41
c-1 -1 -2 -3 -3 -4l4 -7l-4 -11l-1 -1c-24 -64 -67 -121 -128 -176c-39 -34 -84 -66 -143 -102c9 -2 16 -3 26 -4c47 -4 80 -36 107 -62c12 -11 23 -21 32 -30c14 -8 24 -20 34 -32c9 -10 17 -19 27 -26c0 0 14 -11 17 -13c0 -8 -9 -10 -9 -10l-2 -15
c-5 -21 -23 -29 -33 -34s-11 -6 -11 -8l-6 -15h-15c-45 3 -69 39 -90 67c-2 2 -3 4 -4 6c-16 6 -30 18 -42 28c-13 9 -21 18 -34 22c-6 -4 -13 -7 -21 -9l-10 -3l-5 6c-6 5 -14 7 -23 10c-11 4 -23 8 -32 16c-20 -2 -39 -2 -58 -3c-42 0 -82 0 -116 -22
c6 -46 -5 -92 -13 -135c-3 -11 -5 -23 -7 -32l-3 -12l-11 -3c-14 -4 -29 -10 -42 -19l-9 -6zM229 304c156 67 317 140 399 292c-7 14 -21 26 -61 26c-21 0 -42 -3 -59 -6c-5 0 -9 0 -13 -1h-2h-2h-7c-32 0 -63 -12 -97 -26c-16 -7 -34 -15 -52 -20l-2 -1l-16 -1h-1
c-9 -4 -17 -6 -25 -8c-3 -1 -5 -1 -7 -2c8 -22 4 -42 1 -61c-2 -12 -4 -22 -3 -30l1 -12l-9 -7c-6 -3 -13 -5 -20 -5c-2 0 -3 1 -5 1c-8 -24 -14 -50 -19 -76c-3 -19 -7 -38 -12 -55z" />
    <glyph glyph-name="S" unicode="S" horiz-adv-x="667" 
d="M246 -26c-5 3 -21 15 -34 15c-3 0 -6 -1 -8 -3l-11 -6l-10 9c-11 9 -23 16 -36 25c-26 15 -56 35 -73 68l-6 11s-2 5 -9 5c-1 3 1 17 1 17s-2 7 -12 10c0 8 6 17 6 17l3 6c-6 15 -7 31 -2 48l4 11l12 2c5 1 12 3 20 6c9 6 23 14 39 14c7 0 13 -2 19 -5c0 0 11 -5 12 -10
c2 -4 -1 -12 -1 -12c-1 -4 1 -8 9 -18c5 -7 11 -15 14 -22c21 -9 37 -27 51 -43c4 -2 7 -5 9 -8c3 1 7 2 12 2c9 0 17 -2 23 -7l6 7l11 -5v0s9 8 14 7c5 0 14 -9 14 -9c13 6 25 8 42 8c13 0 23 -1 35 -2c12 -2 23 -3 33 -3c4 0 9 0 13 1c9 4 16 8 24 15c5 4 10 8 14 12v3
c1 4 1 8 1 12c0 0 0 11 2 14c3 2 13 4 13 4c16 2 24 5 26 12h1v0c5 14 4 27 -5 40c-8 13 -24 26 -38 35l-1 1h-1c-8 4 -15 9 -21 14c-7 6 -14 11 -21 15c-5 1 -13 2 -20 3l-5 1l-4 2c-8 5 -15 11 -21 17c-2 0 -3 -1 -6 -2c-7 -2 -14 -4 -23 -4h-5l-4 2c-11 4 -23 7 -37 12
c-21 6 -41 12 -60 26c-36 4 -50 34 -60 58c-3 9 -8 20 -15 27l-4 5l-1 6c-5 32 0 66 15 105c13 32 34 62 51 86l1 4l3 2c25 14 49 20 75 28s52 15 73 30c0 0 8 5 13 5c4 -8 15 -11 15 -11c11 5 20 7 32 7c17 0 31 -3 44 -7c8 4 17 6 26 6c15 0 30 -8 43 -15
c10 -6 18 -11 24 -11h4l7 2l7 -3c7 -3 13 -8 17 -12c1 -1 3 -3 4 -3h13l5 -12c9 -24 17 -46 19 -72c2 -18 -4 -35 -17 -49c-13 -15 -31 -23 -51 -23c-4 0 -8 1 -11 1c0 0 -13 3 -16 8c-2 6 3 18 3 18c4 11 2 16 -28 31c-8 4 -14 9 -22 14c-22 4 -51 9 -82 9
c-42 0 -75 -9 -103 -27l-4 -3h-6c-22 0 -36 -27 -38 -47c10 -18 23 -36 42 -44c8 -1 20 -1 32 -2c23 0 50 0 72 -16l2 1l18 3l8 -11c6 -9 19 -13 34 -17c20 -5 42 -9 57 -31c9 -1 19 -2 28 -6c14 -6 21 -16 25 -23c48 -33 71 -95 54 -151v-2l-1 -1c-4 -7 -3 -16 0 -30
c2 -11 4 -25 0 -41l-1 -4l-3 -4c-7 -8 -15 -14 -23 -20c-2 -3 -3 -5 -3 -7c0 -3 2 -7 2 -7l-14 -14c-6 -5 -13 -8 -21 -9c-1 -2 -1 -4 -1 -5l-1 -6l-5 -5c-55 -57 -135 -69 -193 -72l-7 -5l-4 -1c-7 -1 -15 -1 -23 -1c-14 0 -26 1 -39 3c-13 1 -25 1 -36 1
c-10 0 -19 0 -28 -2l-9 -3z" />
    <glyph glyph-name="T" unicode="T" horiz-adv-x="611" 
d="M267 -36c-18 0 -35 7 -49 18c-15 13 -22 31 -22 49c-1 46 5 82 11 115c0 2 1 7 1 7c2 9 4 19 6 26c8 39 16 78 29 115c2 9 5 18 7 25c7 15 12 29 10 42l-1 6l3 3c16 39 28 80 38 119c8 29 17 61 28 90c-9 1 -20 2 -30 2c-24 0 -49 -4 -75 -9c-26 -4 -55 -8 -83 -8h-7h-5
l-4 2c-6 3 -10 8 -14 11c-2 2 -5 5 -5 6l-12 1l-7 14c-7 30 11 52 22 66c4 5 8 10 11 15l10 13l16 -5c1 -1 3 -1 5 -1c4 0 10 2 17 4c9 3 19 6 30 6c3 0 7 0 11 -1c18 11 38 17 60 17c12 0 24 -1 33 -5h1l2 -1c11 -4 21 -7 31 -7c13 0 26 5 37 17l9 8l12 -2c2 -1 9 -2 14 -2
c9 0 19 0 28 -3c7 -3 12 -7 17 -13l14 2l9 -7c9 3 17 5 28 5s20 -2 27 -8c6 1 10 2 16 2c8 0 16 -1 24 -3c6 -1 12 -2 16 -2c3 0 6 1 8 2c0 0 9 5 14 6c5 -13 13 -14 13 -15l8 11h9c9 0 18 -4 24 -11c4 1 8 1 12 1c17 0 36 -9 52 -25c11 -10 22 -27 29 -44l2 -5l-2 -5
c-6 -24 -25 -31 -37 -36c-6 -2 -11 -5 -14 -7l-8 -5l-9 2c-64 16 -136 24 -229 26c-1 -3 -1 -7 -1 -13c0 -11 0 -27 -13 -40c-5 -37 -14 -73 -23 -111c-14 -52 -27 -105 -31 -160v-2l-1 -1c-3 -13 -12 -20 -18 -23c0 -1 -1 -1 -1 -1c-5 -35 -14 -69 -22 -103
c-8 -42 -18 -85 -22 -128l-1 -9l-7 -5c-3 -2 -5 -6 -9 -9c-2 -3 -5 -7 -9 -9l-3 -3l-2 -2c-9 -3 -18 -5 -28 -5z" />
    <glyph glyph-name="U" unicode="U" horiz-adv-x="722" 
d="M251 -49c-1 1 -5 1 -8 2c-6 1 -14 2 -20 5s-10 7 -13 11c-41 12 -59 47 -76 79c-4 7 -9 15 -13 23l-4 7l2 8c3 12 2 25 1 42c-2 15 -3 29 0 47c-2 5 -4 9 -5 12c-1 2 -1 5 -3 6l-6 7l3 11c5 16 13 28 25 45c-16 65 -1 124 13 183c6 28 11 50 14 76l1 4l1 3
c17 23 25 50 33 79c5 16 10 34 15 52c0 0 0 10 8 12c13 3 26 -5 26 -5c9 4 16 6 27 6c12 0 24 -3 34 -5l15 -3l19 -3l-2 -17c-7 -57 -25 -110 -39 -161c-17 -50 -33 -100 -40 -152v-1c-5 -43 -8 -88 -7 -133s3 -97 31 -139c24 5 41 28 61 51c9 11 16 24 26 35h1v0
c8 6 17 11 25 17c8 8 18 15 25 24c50 67 83 148 113 219v0c32 79 53 160 73 244l5 20l6 3c13 8 26 12 42 12c14 0 29 -3 40 -6c9 -2 16 -3 24 -4l13 -2l2 -11c8 -34 2 -66 -4 -96c-5 -20 -9 -38 -9 -56v-7l-4 -5c-7 -9 -15 -15 -24 -19c-6 -43 -9 -88 -14 -130
c-2 -26 -5 -57 -9 -86c-1 -9 -2 -17 -3 -21c-4 -28 -7 -50 -5 -76c2 -17 -5 -34 -11 -50c-9 -22 -11 -33 -1 -44l4 -5l1 -6c3 -39 -12 -72 -39 -92l-7 -5l-9 1c-6 1 -10 3 -16 5c-7 2 -13 4 -18 4c-2 0 -3 -1 -5 -1l-8 -3l-7 2c-21 9 -35 25 -40 45c-4 17 -1 35 1 51
s4 30 1 39l-2 7c-27 -44 -57 -89 -108 -114c0 -5 -1 -13 -10 -19l-2 -1l-2 -1c-35 -11 -70 -19 -103 -27c-4 -1 -9 -2 -13 -3c0 0 -10 -1 -15 0c-3 2 -7 10 -7 10z" />
    <glyph glyph-name="V" unicode="V" horiz-adv-x="667" 
d="M325 -61c-4 1 -9 2 -14 4c-21 4 -44 10 -58 36l-1 3l-1 3c-8 56 -18 123 -30 192c-4 10 -6 22 -8 34c-1 7 -2 14 -3 20l-12 8l-2 6c-3 10 -2 20 -2 27c1 5 1 9 0 11v1l-1 2c-3 16 -9 31 -15 46c-6 19 -14 39 -18 58v2v2c0 6 1 11 2 16c0 2 1 4 1 5c-2 3 -3 5 -5 7
c-3 5 -7 8 -10 13l-1 2v2c-7 22 -8 42 -10 63c0 12 -1 23 -2 33l-3 12c-2 6 -3 12 -5 18v4v2c1 4 1 7 1 11c-1 1 -2 2 -2 4c-3 4 -6 9 -7 16l-1 2v3c0 7 2 12 4 17v1c0 0 -12 9 -11 16c2 8 18 16 18 16c8 4 7 10 7 11c0 0 -1 12 4 18c6 5 23 1 23 1c7 -3 15 -3 22 -4
c16 0 36 -1 52 -15l5 -3l1 -6c2 -7 3 -14 4 -21c3 -13 4 -23 10 -32l6 -10l-6 -10c-2 -3 -1 -9 1 -15c1 -10 3 -22 -1 -35c13 -34 22 -70 19 -108c3 -9 6 -19 9 -30c9 -25 18 -52 21 -81c18 -34 23 -70 31 -104c5 -24 10 -45 17 -66c5 9 9 19 13 29c7 14 11 30 21 46
c9 16 21 31 33 46c12 16 26 32 33 52h1c11 25 23 51 37 74c9 18 18 34 27 52v0v1c8 17 20 31 31 46l6 9c48 86 91 165 119 251c0 0 3 16 11 18c9 1 22 -10 22 -10c4 -5 9 -5 22 -6c15 0 32 -1 46 -15l7 -6v-8c2 -62 -31 -117 -63 -165c-3 -5 -5 -10 -8 -15
c-30 -89 -80 -169 -128 -248c-17 -29 -37 -62 -56 -92c-7 -12 -10 -23 -16 -36c-12 -27 -25 -52 -45 -75c1 -9 -2 -17 -4 -24c0 -1 -1 -2 -1 -3l-2 -6l-5 -4c-18 -14 -32 -30 -45 -49c-20 -24 -39 -51 -71 -68l-8 -4z" />
    <glyph glyph-name="W" unicode="W" horiz-adv-x="944" 
d="M249 -49c-17 0 -33 8 -42 20c-3 1 -7 2 -10 2l-13 4v7s-10 2 -11 7c-2 5 -1 15 -1 15c1 7 3 12 6 16c-3 2 -5 5 -7 7l-6 9s2 12 -14 12c-1 17 3 23 3 23c1 2 -2 7 -3 11c-10 24 -10 40 -5 53c-5 7 -6 13 -7 18c-3 7 -6 9 -6 9s4 5 3 8c-1 4 -6 8 -6 8l3 14c1 6 2 13 3 20
c1 10 2 22 7 35c-10 22 -8 47 -6 67c1 13 3 18 2 27c0 0 -9 6 -8 14c-1 4 5 5 7 19c1 10 -4 22 -4 22c8 8 7 23 6 32c-2 10 -3 22 -1 33l-8 9s5 14 5 26c-1 11 -7 17 -7 17l8 13c6 7 5 16 1 32c-3 10 -6 23 -4 36c0 0 -9 5 -9 20c4 3 7 11 7 11c-1 1 -1 2 -1 2
c0 4 -1 10 1 17c0 0 -8 4 -7 10c0 6 2 11 2 11c3 6 4 12 6 18c3 10 5 18 10 27l6 11h10c6 0 12 1 19 3c8 2 17 4 27 4h6l9 -1l6 -8c16 -23 19 -52 22 -76c1 -24 4 -45 16 -62l5 -6l-1 -8c-6 -47 -3 -95 0 -142c3 -52 6 -105 -1 -159c9 -23 7 -48 5 -73c-1 -13 -2 -25 -1 -36
c21 50 49 96 76 141c27 44 54 90 74 138c0 0 4 11 8 16c5 5 14 5 14 5c6 23 18 36 32 55c15 23 27 43 34 66l4 16l17 -1h2c5 0 11 2 15 6l2 1l2 1c15 6 29 9 41 9c7 0 14 -1 19 -2c0 0 13 -2 16 -5c2 -1 1 -14 1 -14c-2 -37 -9 -75 -16 -110c-10 -58 -20 -113 -13 -168v-4
l-1 -4c-11 -42 -7 -86 -4 -133c1 -4 1 -9 2 -15c6 8 11 15 14 25l2 6l5 4c27 21 45 50 65 80c13 25 28 49 49 71c19 48 45 93 68 137c33 60 67 123 87 188l4 12l12 2h6c13 0 21 -6 27 -11c6 4 14 8 24 8c9 0 17 -4 24 -12l6 -8v0h6l3 -15v-6c0 0 5 -10 13 -8
c1 -6 -10 -20 -10 -20c-11 -14 -17 -33 -23 -53c-8 -28 -18 -56 -41 -80c-2 -18 -9 -34 -22 -42c-34 -76 -78 -148 -121 -217c-18 -31 -39 -62 -57 -94l-1 -3l-2 -2c-20 -16 -36 -37 -50 -58c-29 -38 -57 -78 -107 -91l-5 -2l-5 1c-11 2 -20 5 -27 9c-11 3 -21 7 -30 7
c-2 0 -4 0 -7 -1l-11 -3l-8 12c-23 34 -32 79 -27 132c-2 5 -3 10 -4 15c-1 3 -2 8 -3 9c0 0 -5 5 -6 9c-1 5 2 14 2 14c2 4 1 11 0 22c-1 12 -4 28 4 45l-4 2c-19 -36 -37 -73 -48 -114l-1 -3l-1 -2c-17 -21 -33 -45 -46 -65c-22 -33 -45 -67 -71 -97l-4 -3l-5 -2
c-7 -2 -14 -4 -21 -4z" />
    <glyph glyph-name="X" unicode="X" horiz-adv-x="667" 
d="M27 -79v0l-13 2l-12 11l-12 1l-7 13c-14 44 11 88 43 116c0 0 0 10 3 15c4 6 12 8 12 8c11 3 17 13 27 26c9 13 19 27 33 36c4 12 13 22 20 29c5 4 10 9 10 11c0 0 -1 10 3 15s14 5 14 5h2c1 0 3 1 4 1c20 41 49 69 79 97c16 17 32 34 46 50c-5 34 -25 60 -45 90
c-20 27 -40 54 -49 91c-5 8 -12 16 -18 26c-28 42 -61 89 -46 148l1 7l7 5c21 14 46 30 74 30c8 0 17 -1 25 -4l12 -4l1 -12c2 -36 24 -68 56 -84c0 0 10 -6 12 -13c1 -6 -8 -17 -8 -17c-1 -1 -4 -6 -2 -11c10 -10 18 -18 22 -27c1 -2 2 -5 3 -7c0 0 7 -7 18 -8
c4 -12 0 -26 0 -26l-1 -1c4 -4 8 -6 21 -9c10 -3 22 -5 32 -12c0 0 8 -6 9 -12c1 -5 -3 -12 -3 -12c-3 -6 -3 -14 -2 -22c13 10 24 23 35 33c19 23 40 44 67 59c4 25 22 38 37 51c9 8 19 17 22 26l5 11s8 0 11 1c2 1 4 3 5 4c4 6 9 15 19 20c5 12 15 20 23 27
c6 4 11 9 13 13l3 8l7 2c8 3 17 4 26 4c18 0 36 -7 54 -13c9 -4 17 -8 26 -9l10 -3l4 -9c8 -16 0 -31 -6 -40c-1 -3 -3 -7 -4 -9c0 0 -4 -13 -3 -19c-5 -6 -17 -4 -17 -4h-1c-3 0 -6 -4 -12 -14c-2 -2 -4 -5 -6 -8l-1 -1l-1 -1c-10 -9 -23 -16 -32 -22c-4 -2 -7 -4 -11 -6
l-1 -2l-1 -10l-6 -12l-18 -8l-9 -3c-6 -6 -12 -15 -18 -23c-7 -11 -15 -19 -26 -29l-90 -84c0 -3 -1 -8 -1 -12l-2 -10l-8 -5c-14 -8 -20 -20 -23 -27c-4 -16 -1 -34 8 -47v0c5 -9 11 -17 15 -26c19 -30 38 -60 41 -93c24 -17 39 -41 52 -65c10 -20 21 -40 41 -52l21 -11
c1 -7 -3 -12 -3 -12c6 -4 12 -11 16 -20l7 -13l-18 -13l-6 -18l-7 -3c-4 -2 -9 -5 -13 -7c-22 -8 -42 -18 -68 -20l-7 -1l-5 5c-58 45 -93 107 -126 167c-21 41 -44 81 -71 115c-14 -12 -25 -27 -37 -43c-12 -20 -26 -39 -48 -55c-8 -39 -38 -67 -65 -86
c-35 -59 -83 -108 -140 -140c0 0 -10 -6 -16 -5s-12 15 -12 15z" />
    <glyph glyph-name="Y" unicode="Y" horiz-adv-x="667" 
d="M164 -39c-1 10 -8 18 -17 23l-15 8l5 16c7 15 20 22 30 27c3 1 5 3 7 4c17 29 43 57 69 73c5 19 16 34 27 45c6 8 12 16 15 25l5 12l13 1c8 14 20 27 30 41l16 16c-5 6 -11 13 -18 21c-23 27 -49 58 -54 98c-8 16 -17 30 -26 47c-32 61 -68 123 -90 191c-1 4 -3 8 -5 13
c-8 19 -18 45 -6 71l5 12h13c2 0 4 0 7 1c3 0 7 1 11 1c6 0 12 -1 17 -3c7 1 14 1 21 1c43 0 59 -20 67 -37v0v0c5 -14 6 -27 8 -38c3 -25 5 -40 19 -47l7 -5l1 -8c4 -25 15 -45 28 -70c10 -19 20 -41 26 -62c19 -15 29 -34 38 -49c5 -11 8 -21 14 -29c20 18 36 38 51 61
c9 13 18 25 28 36l6 8h4c4 8 8 14 12 20c7 8 11 12 11 19l1 15l14 3c6 2 9 10 11 24v3l1 3l2 3c9 14 22 24 33 31c6 4 11 8 15 12c8 15 18 28 27 39c13 16 24 33 31 50l4 8l10 2c4 1 7 2 11 2c8 0 13 -2 19 -4c4 -1 7 -2 10 -2l12 -1l5 -10c13 -35 1 -65 -10 -92
c-3 -6 -5 -11 -7 -17v-1l-1 -1c-20 -48 -56 -85 -89 -124c-25 -25 -49 -51 -68 -81c-1 -5 -2 -10 -4 -15c0 -2 -1 -2 -1 -4l-1 -4l-1 -3c-15 -21 -32 -40 -47 -55c-20 -24 -40 -43 -53 -68l-2 -9l-4 -8l-2 -1c-6 -10 -14 -18 -22 -25c-6 -6 -12 -12 -15 -17
c-20 -29 -43 -55 -64 -83c-14 -15 -28 -33 -40 -51v0v-1c-4 -4 -9 -7 -12 -10c-5 -4 -9 -7 -11 -11l-4 -11l-12 -1c-5 -1 -10 -5 -19 -17c-5 -5 -11 -12 -19 -17l-8 -7l-9 4c-1 1 -2 1 -4 1c-4 0 -10 -2 -16 -4s-13 -4 -21 -5l-18 -2z" />
    <glyph glyph-name="Z" unicode="Z" horiz-adv-x="611" 
d="M532 -30c-3 0 -7 1 -13 1c-5 0 -10 0 -14 -1h-18v0c-7 0 -24 0 -37 11c-6 -2 -12 -3 -18 -3c-13 0 -23 3 -34 6c-9 3 -17 5 -25 5v0h-1c-4 0 -9 1 -12 1c-10 0 -21 -1 -32 -2c-12 -1 -22 -2 -34 -2c-23 0 -39 3 -56 10c-5 0 -11 -1 -16 -1c-25 -4 -54 -7 -81 -7
c-8 0 -15 0 -21 1c-15 -8 -31 -10 -46 -11c-11 -1 -23 -2 -32 -8l-9 -5l-9 5c-8 3 -19 7 -30 9l-11 3l-3 10c-3 10 -1 19 0 27l1 1c0 0 -12 4 -12 8c1 6 7 19 7 19c2 6 5 11 8 17c12 19 26 45 50 57c10 22 24 39 43 54l2 11l20 13c4 3 8 8 12 14c7 8 16 22 33 27
c5 6 10 13 16 20c14 20 33 45 59 58c0 3 1 5 2 8c0 1 1 3 1 4l2 13l11 4c19 7 31 22 45 40c16 20 32 40 58 51c12 26 32 42 53 56c18 12 31 22 38 40l3 6l6 3c19 11 37 27 55 50c-9 1 -18 1 -28 1c-48 0 -98 -4 -150 -12h-1h-1c-8 -1 -18 -3 -25 -8c0 0 -7 -4 -10 -4
s-8 3 -8 3c-1 0 -3 0 -4 -1c-2 0 -2 -1 -3 -1l-14 -14l-9 1h-20h-19h-22c-22 0 -50 1 -75 13l-10 4l-2 11c-3 18 4 34 9 49c2 6 4 11 6 16l3 12l12 2c7 1 16 4 26 7c13 5 27 11 42 11c6 0 11 -1 16 -2c0 0 3 4 6 5s12 -2 12 -2h11c3 -1 7 -1 10 -1c9 0 10 2 11 3
c0 0 3 7 8 10c7 3 16 0 16 0c4 -1 9 -2 15 -2s13 1 19 2c8 1 17 2 26 2c8 0 15 -1 21 -3c0 0 8 2 11 10c13 0 16 -7 16 -7c1 0 3 -1 8 -1c3 0 7 1 11 1s10 1 16 1s12 -1 18 -2c9 3 18 7 29 7h7c0 0 2 4 8 4c6 1 15 -4 15 -4c5 -2 9 -3 15 -3c5 0 11 1 16 3c0 0 7 1 20 5
c11 3 14 -5 14 -5c2 -1 5 -1 7 -2l10 6l19 -5c3 -2 5 -5 8 -6c7 1 15 3 22 3c34 0 65 -25 71 -58l2 -14l-10 -7c-58 -36 -104 -82 -133 -136l-7 -14c-9 -4 -19 -1 -19 -1c-12 -12 -19 -19 -30 -32c-20 -22 -40 -41 -54 -66l-6 -8l-10 -1c-8 0 -15 -9 -18 -18l-2 -5l-3 -4
c-47 -43 -92 -90 -136 -135c-24 -27 -50 -52 -75 -79c9 1 15 1 21 1h22c7 -1 13 -1 19 -1c13 0 23 2 32 5c0 0 7 4 13 3c4 -7 20 -15 35 -16c9 0 18 -1 27 -5c7 2 15 2 20 2h9h8c6 0 10 1 14 4c0 0 5 4 11 4c7 0 13 -4 13 -4c12 -9 27 -10 45 -10h6h7c19 0 52 0 74 -28
c0 0 24 0 29 -5c4 -4 0 -19 0 -19v-1c0 -1 3 -5 5 -8c5 -7 12 -19 11 -29c0 -10 -2 -11 -2 -23c-11 -3 -14 2 -14 2c-1 0 -1 -1 -1 -1c-2 -4 -4 -8 -7 -11c0 0 -11 -6 -12 -11c-6 -1 -9 6 -9 6l-10 -7s-4 7 -10 4c-4 -3 -6 -11 -6 -11z" />
    <glyph glyph-name="bracketleft" unicode="[" horiz-adv-x="333" 
d="M138 -224c-27 7 -42 28 -53 45l-18 8l-3 7c-15 47 -4 94 6 136c1 2 1 4 2 6c-2 16 1 33 4 50c3 14 6 29 3 43c0 0 -4 10 -2 13c3 8 11 7 11 7c2 25 9 48 15 71c6 19 10 39 12 58v3l2 1c2 6 6 12 10 18v3c1 30 2 66 17 96v5c0 10 -1 25 11 38c4 59 16 118 28 174
c2 9 4 17 6 27c-6 15 -7 28 -7 41c0 11 0 21 -4 28l-2 3v4c-1 24 18 34 28 39c3 1 5 4 6 5l7 9l12 -1c2 0 3 -1 5 -1l14 3c16 5 35 8 53 8c31 0 60 -8 85 -22l4 -2l2 -4c11 -19 16 -39 20 -58l2 -8l-14 -36l-14 1c-10 1 -21 3 -31 5s-22 5 -33 5s-18 -3 -25 -8l-4 -2
c3 -33 1 -55 -5 -85l7 -16l-4 -16c-11 -48 -20 -98 -29 -146c-9 -59 -20 -122 -37 -183c-1 -16 -5 -28 -9 -42c-6 -20 -9 -35 -5 -52l3 -10l-11 -16c0 -1 1 -2 1 -4c3 -9 5 -22 0 -37l-2 -5l-6 -3c-1 -3 -1 -6 -2 -8v-4c1 -4 2 -7 2 -10c1 -2 2 -5 2 -6c0 0 4 -9 4 -14
c0 -9 -9 -10 -9 -10c-1 -2 -1 -6 -2 -10v-2c13 -10 28 -13 47 -17c5 0 10 -1 15 -2l10 -3l3 -11c2 -4 5 -9 10 -15c7 -10 16 -22 17 -38v-8l-5 -6c-22 -25 -52 -27 -78 -28c-5 0 -13 0 -20 -1l-11 -8l-8 1c-2 0 -5 1 -7 1c-3 0 -5 1 -6 1h-1s-1 -5 -8 -7c-3 0 -11 2 -11 2z
" />
    <glyph glyph-name="backslash" unicode="\" horiz-adv-x="278" 
d="M267 -32c-7 1 -13 1 -19 1c-9 0 -18 0 -28 2l-8 2l-5 7c-14 22 -21 50 -27 74c0 2 -1 3 -1 4c-3 3 -7 7 -10 12l-2 5v5c0 3 1 6 1 9c0 7 1 14 2 21c-2 17 -6 32 -10 49c-3 14 -6 26 -7 41v0c-2 21 -7 40 -13 62s-13 47 -16 71c-2 13 -3 27 -4 39c0 10 -1 22 -3 33
c-1 4 -2 9 -4 13c-3 7 -7 17 -8 29c0 9 1 17 2 24c0 5 1 11 1 16c-2 12 -4 25 -7 36c-3 8 -5 17 -8 27v0c-9 45 -23 94 -40 148c0 0 -5 13 -3 18c2 4 20 6 20 6c1 0 5 2 7 3c6 3 14 7 24 7c3 0 4 -1 7 -1c12 -2 19 -8 25 -12c1 -2 3 -3 5 -3l1 -1l2 -2c1 0 1 -1 2 -2
c3 -2 10 -8 10 -18c1 -2 3 -4 4 -6c6 -10 15 -23 13 -39c7 -23 13 -45 19 -67c1 -7 3 -12 4 -17c9 -11 10 -23 13 -32c0 -3 1 -5 2 -8v-1l1 -2c3 -18 6 -38 8 -56c5 -37 9 -70 20 -102l1 -4v-5c-3 -20 2 -38 7 -60c1 -4 2 -7 2 -11c6 -29 14 -59 22 -90
c15 -55 30 -111 39 -168v-2v-2c-1 -15 -9 -24 -14 -30c-1 0 -2 -2 -3 -3c0 0 0 -16 -4 -19c-4 -4 -20 -1 -20 -1z" />
    <glyph glyph-name="bracketright" unicode="]" horiz-adv-x="333" 
d="M162 -226c-15 3 -27 8 -40 13c-16 4 -31 9 -44 11c-14 -1 -27 -6 -35 -14l-6 -6l-9 1c-6 1 -9 2 -15 6c0 0 -2 -7 -9 -7c-4 0 -13 11 -13 11h-6l-10 10c-17 13 -28 34 -29 55v4l1 3c6 17 15 31 27 41c14 13 29 21 47 22v0h1c3 0 6 0 8 -1h1s10 -3 15 0c4 -2 4 -5 4 -5
c4 1 9 3 14 4l13 2c0 -8 6 -9 6 -9c3 0 4 0 7 -1h10h1c1 0 2 1 2 2c2 26 6 51 10 75c0 6 1 11 2 17v0l15 83c5 26 5 52 6 78c1 20 2 42 5 62l1 4l6 10l2 4l2 10l2 8v0v2c9 55 20 108 30 160c1 17 5 35 8 51l1 6l12 11v5l1 6c0 16 5 29 9 43c3 11 6 20 7 28v1c0 2 0 5 1 7
c0 4 0 7 1 10c-17 6 -31 17 -41 25c-9 5 -17 11 -25 15c-18 6 -27 19 -30 36c-2 13 0 28 2 39c0 2 1 5 1 8c0 0 3 10 6 14c6 4 18 1 18 1c4 -1 8 -3 11 -3l39 4h2c10 -1 18 -5 25 -8c1 0 2 -1 4 -2h24h1c38 -1 78 -6 105 -38l7 -8l-3 -9c-8 -31 -18 -60 -28 -90
c-18 -58 -38 -119 -47 -181v0v-1c-2 -9 -3 -19 -5 -27c-1 -10 -2 -20 -4 -31c-3 -13 -4 -26 -6 -39c-4 -18 -7 -33 -9 -51v0v0c-17 -99 -25 -202 -33 -301v-2l-1 -3c-5 -14 -7 -33 -9 -52c-6 -40 -13 -84 -49 -114l-8 -6z" />
    <glyph glyph-name="asciicircum" unicode="^" horiz-adv-x="584" 
d="M175 278c-16 0 -32 6 -46 17c-12 9 -21 21 -27 37l-4 8l4 8c5 10 8 22 11 35c8 23 17 50 37 70c15 55 50 98 82 141c28 37 57 72 71 115l2 4l3 4c12 10 21 23 26 37l4 13l14 1h3c32 0 61 -11 86 -30c23 -21 40 -48 45 -79c6 -21 10 -43 12 -63c6 -39 12 -71 31 -98l6 -8
l-4 -11s9 -3 11 -8c-1 -5 -6 -19 -6 -19c-5 -11 -1 -25 3 -42c3 -9 5 -18 5 -30c6 -6 14 -17 13 -29l-2 -14l-12 -4c-8 -1 -16 -7 -25 -14c-8 -6 -16 -13 -25 -16l-6 -2l-7 1c-22 4 -32 21 -40 35c-6 8 -11 14 -16 17l-11 6l1 16c3 14 -1 28 -5 45c-2 8 -3 11 -4 19
c0 0 -9 5 -15 10c1 4 2 16 2 16c1 5 3 10 4 15c2 8 4 16 4 20c0 6 -1 7 -1 7l-8 6v10c0 8 -2 17 -5 24c-1 8 -3 15 -5 24c-3 8 -6 17 -8 24c-3 -3 -6 -8 -8 -13c-12 -22 -22 -43 -41 -63c0 -3 0 -7 2 -14c0 0 2 -12 -3 -21c-11 -6 -20 -1 -20 -1c0 -1 0 -2 -1 -3
c-3 -6 -8 -16 -17 -21c0 -1 1 -2 1 -3l1 -9l-8 -7c-24 -23 -35 -52 -47 -86c-9 -22 -18 -46 -30 -67l-5 -7l-8 -2c-5 -1 -10 -1 -14 -1z" />
    <glyph glyph-name="underscore" unicode="_" 
d="M152 -151c-8 -1 -19 -1 -31 -1c-11 0 -22 0 -35 1c-44 3 -79 7 -108 15c0 0 -15 2 -17 8c-1 7 6 17 6 17c9 13 20 30 36 39c1 2 3 3 4 4c1 0 2 2 3 2l4 14l17 -1h2c6 0 11 0 17 3l6 3l8 -2c4 -2 9 -2 17 -2h9h9h9l6 -3c9 1 16 1 22 1h20c6 -1 12 -1 18 -1h3l10 2l4 -2
l19 4l8 -6c8 3 17 6 25 7l11 1c1 -5 7 -10 7 -10h3c0 0 1 -1 2 -1l11 4l11 -3c4 -1 6 -1 9 -1c8 -1 15 -1 23 -1c6 0 11 0 16 1l15 5l4 -8c5 2 9 4 13 7c0 0 7 5 12 5s11 -5 11 -5c1 -1 4 -2 7 -2c4 0 10 2 14 4l10 7l11 -5c1 -1 4 -1 5 -2c4 0 12 -1 18 -5c1 -1 2 -1 3 -2
h1c7 5 16 8 26 11l7 4l5 -5c9 8 18 8 27 10c6 1 11 2 14 3c0 0 17 6 23 4c10 -4 7 -18 7 -18s7 -6 7 -9c1 -2 -5 -12 -5 -12c-1 -2 0 -3 0 -5c0 0 2 -8 1 -11c0 -3 -7 -7 -7 -7c-2 -2 -3 -3 -5 -3l-1 -1l4 -2c-5 -13 -14 -24 -25 -34l-4 -3l-4 -1c-7 -2 -13 -5 -18 -6l-6 -4
l-6 1h-8c-9 0 -21 -2 -34 -4c-13 -1 -25 -3 -40 -3h-8h-1h-1c-10 2 -19 2 -30 2c-13 0 -25 0 -37 -1c-13 -1 -27 -2 -41 -2c-20 0 -38 2 -55 6c-8 -3 -18 -3 -25 -3h-15c-4 1 -8 1 -11 1c-6 0 -11 -1 -15 -3c0 0 -9 -4 -16 -4c-6 2 -11 8 -11 8z" />
    <glyph glyph-name="quoteleft" unicode="&#x2018;" horiz-adv-x="278" 
d="M174 441c-11 0 -21 3 -31 5c-5 2 -11 4 -15 4l-17 2l-1 16c-2 31 -2 64 18 91v1l1 1c5 6 6 10 6 12v4l2 4c10 23 27 45 51 65l3 2l2 1c1 1 3 3 4 5c3 3 7 8 12 12l9 13l14 3l9 12l2 1c8 7 19 12 31 12c10 0 20 -3 27 -9l17 -11l-12 -17c-10 -13 -17 -28 -25 -44
c-8 -17 -17 -35 -29 -52c0 -5 -1 -10 -3 -14c0 -2 0 -4 -1 -5c0 0 2 -5 8 -9c1 -4 -6 -15 -6 -15c-3 -4 -4 -11 -5 -18c-1 -6 -3 -14 -5 -21v0l-1 -1c-5 -11 -14 -18 -20 -22c-2 -2 -5 -4 -6 -5l-1 -8l-7 -5c-9 -7 -19 -10 -31 -10v0z" />
    <glyph glyph-name="a" unicode="a" 
d="M397 -22c-3 5 -5 9 -8 15c-9 18 -17 32 -27 47l-3 4l-1 4c-3 18 -1 31 3 48l-9 -3c-70 -75 -135 -114 -198 -114c-25 0 -47 5 -70 17l-6 4l-4 12c-19 50 -40 103 -41 157v4l2 4c13 29 22 58 32 85c4 17 8 34 13 48c0 0 3 7 6 8c3 2 13 4 13 4c1 2 2 4 2 6c0 1 1 1 1 2
c0 0 -1 7 -7 10c5 7 12 12 12 12c6 4 13 6 18 8c0 2 1 5 2 8v3l15 19h6c2 5 4 9 6 12c6 6 14 11 21 16c10 8 12 10 12 14c0 0 -1 10 1 15c6 6 21 4 21 4l1 5l14 5l1 1c8 4 11 6 12 6c0 0 8 13 14 14c10 -8 18 -6 18 -6c2 1 11 8 14 15l5 10h13h5c4 1 8 1 12 1c2 0 6 0 10 -1
l6 1l5 5h10c9 0 20 0 31 -5c8 3 18 5 28 5c28 0 56 -11 71 -29c7 -10 12 -20 14 -29c20 -4 33 -21 44 -34c5 -6 9 -9 13 -12c0 0 7 -5 8 -9s-2 -11 -2 -11c-9 -26 -19 -52 -29 -75c-16 -48 -35 -98 -46 -148l3 -3c0 3 3 6 4 8c0 0 14 9 15 20c7 0 10 -6 10 -6
c1 -1 2 -1 3 -2c0 0 9 6 17 7c9 -7 14 -37 14 -37c11 -16 8 -31 6 -43c-1 -6 -1 -11 -1 -15l1 -11l-9 -5c-15 -8 -26 -24 -36 -41c-21 -27 -44 -59 -92 -64h-13zM147 125c13 -6 19 -16 23 -24c1 -2 2 -5 3 -7c58 28 98 60 127 93c24 40 60 75 91 100c4 9 8 19 12 24
c8 19 15 39 22 55c-8 5 -13 12 -17 17c-5 6 -9 11 -13 11h-1v1c-5 1 -9 3 -13 5c-1 0 -3 1 -5 1h-1h-3h-4c-21 0 -41 -13 -57 -28l-11 -10l-15 2c-19 -11 -33 -28 -39 -47l-2 -7l-7 -2c-38 -22 -50 -67 -62 -110l-2 -11l-14 -11c-1 -10 -4 -15 -7 -24c-3 -12 -6 -20 -5 -28z
" />
    <glyph glyph-name="b" unicode="b" horiz-adv-x="611" 
d="M109 -36c-1 2 -5 3 -11 3h-13l-4 12c-22 70 -3 141 12 204v4c0 10 -1 20 -4 22c0 0 -10 6 -11 10c-1 6 5 16 5 16c5 11 10 19 17 27c3 3 6 5 8 8c4 19 7 39 11 56c22 129 47 260 90 385l3 10l10 3c5 2 11 3 15 3c8 0 16 -2 24 -6h2l1 -1c4 -3 8 -6 11 -9
c7 -6 10 -8 14 -8c0 0 14 -1 17 -4c4 -1 3 -16 3 -16c-3 -51 -17 -100 -29 -147c-10 -32 -20 -66 -25 -97c12 8 23 15 29 23c0 0 3 8 9 12c16 4 27 -9 27 -9c18 7 36 9 50 9c11 0 23 -1 34 -2c12 -1 23 -2 31 -2h5h13l5 -11c3 -5 9 -6 24 -9c11 -1 23 -3 34 -9
s18 -17 22 -31c20 -27 17 -56 13 -84c-2 -18 -4 -36 3 -52l2 -4v-5c-3 -50 -25 -97 -66 -143c-33 -37 -76 -67 -117 -96h-1v-1c-29 -13 -57 -23 -86 -33c-11 -4 -22 -8 -34 -13l-7 -2l-6 2c-3 1 -5 1 -9 1h-3h-4c-6 0 -13 0 -20 2c-13 -8 -25 -10 -37 -12s-22 -4 -28 -10
c0 0 -10 -11 -15 -10c-4 1 -14 14 -14 14zM197 104c4 0 8 -1 11 -1l11 13l8 5h3c9 4 19 4 29 4h4c7 0 13 0 18 3l7 7l12 -7l6 10l7 -1c2 0 5 1 8 2c4 1 10 3 14 3c12 15 19 23 34 29c0 0 -2 10 4 17c8 2 20 7 20 7c17 5 29 24 41 46c1 2 3 4 4 6c0 21 -5 71 -41 91
c-14 5 -27 7 -43 7c-38 0 -72 -14 -97 -27c-7 -29 -18 -58 -33 -87c-3 -9 -3 -18 -4 -29c-1 -12 -1 -24 -5 -35v-1v0c-3 -7 -6 -15 -9 -22c-7 -18 -12 -29 -12 -41c1 1 2 1 3 1z" />
    <glyph glyph-name="c" unicode="c" 
d="M239 -30c-9 4 -20 5 -33 6c-11 1 -25 3 -39 8l-2 1l-2 2c-39 28 -67 72 -79 127c-14 58 -7 113 0 149c6 25 16 48 28 70c10 18 20 36 25 53l2 10l8 3c18 8 28 26 41 44c7 16 17 32 31 44l4 3l6 2c6 1 12 4 17 8c7 3 14 6 22 9l4 1h4h3h4c0 0 5 2 5 14c8 -7 13 -1 13 -1
l3 3c1 3 4 6 9 10l4 3l4 1c29 5 62 11 94 15l6 1l6 -3c34 -18 61 -46 80 -82c17 -36 25 -76 21 -114l-1 -6l-4 -5c-15 -15 -34 -28 -53 -33l-10 -2l-8 7c-22 17 -27 46 -32 70c-6 28 -10 42 -23 48c-9 -3 -18 -6 -28 -10c-22 -8 -43 -17 -67 -24c-21 -30 -47 -61 -71 -89
c-5 -6 -11 -13 -16 -19c-22 -64 -25 -128 -8 -181c22 -14 48 -20 75 -25c7 -1 11 -3 18 -4c39 8 101 31 133 91l5 13s15 -5 20 -2c4 2 5 10 5 10h15h2c29 0 56 -16 69 -42c12 -20 9 -45 -6 -64l-1 -2l-2 -2c-91 -74 -192 -114 -292 -119h-5z" />
    <glyph glyph-name="d" unicode="d" horiz-adv-x="611" 
d="M209 -32c-39 0 -73 13 -98 35l-2 1l-1 1c-20 27 -32 59 -34 94c-1 31 5 62 17 90v8v2v3c12 45 34 87 66 126c28 33 64 60 102 82c4 16 10 27 18 36l5 7h8c6 0 11 -2 16 -3l1 5l5 4c9 8 19 12 30 12c8 0 16 -2 24 -5c4 -1 8 -2 11 -2c5 0 14 2 17 10c0 0 2 8 8 10
c5 3 15 1 15 1c6 -1 11 -1 17 -1c9 0 19 -1 28 -2c1 2 2 6 3 10c5 17 9 32 6 45l-1 8l4 7c16 26 23 56 30 88c7 29 14 58 27 86l2 3l4 3c10 7 21 9 30 10c5 1 9 2 10 4c0 0 3 9 12 10c5 0 16 -6 16 -6c34 -24 23 -65 17 -91c-1 -6 -2 -11 -2 -16v-1v0l-3 -12
c-3 -20 -7 -43 -22 -60c3 -48 -10 -92 -21 -136c-3 -16 -8 -34 -12 -50c2 -44 -4 -91 -20 -143v-3c1 -46 2 -93 -10 -138c7 -31 -2 -65 -22 -91l-6 -7h-9c-6 0 -14 -2 -20 -6c-11 -3 -23 -8 -36 -8c-10 0 -17 3 -26 7l-11 6l2 13v11c-1 3 -1 8 -1 13c-9 -7 -17 -12 -24 -18
c-16 -10 -31 -19 -43 -30c0 0 -5 -7 -9 -8s-12 4 -12 4c-2 1 -3 2 -4 2l-1 1c-38 -14 -72 -21 -101 -21zM231 92c5 0 11 -1 17 -1c6 -1 11 -1 16 -1c6 0 11 1 15 2c2 1 4 3 7 5c11 8 25 17 41 17h4c15 16 34 26 50 33c5 2 10 5 15 8l6 27c6 22 11 45 9 65l-1 9l6 6
c19 23 19 53 18 86v4c-8 0 -19 1 -30 4c-88 -28 -161 -83 -198 -153c2 -6 2 -12 0 -18c-2 -8 -7 -15 -10 -20v-1c0 -6 0 -13 1 -19c1 -37 4 -51 21 -54c4 1 9 1 13 1z" />
    <glyph glyph-name="e" unicode="e" 
d="M207 -34c-42 10 -81 34 -103 67c-17 27 -24 53 -20 82l-10 5l3 14c1 3 1 6 2 10c2 4 5 14 4 17c-5 2 -9 3 -14 4c-18 2 -34 6 -46 14l-11 8l2 12c5 26 21 49 37 68c2 3 5 5 7 8l9 12l12 -5c1 -1 3 -1 6 -1h5h8c4 0 13 0 23 -4c1 1 2 2 3 2c18 47 53 82 88 116
c15 16 31 31 45 48l3 2l3 2c7 4 14 7 22 10c18 6 26 9 29 17c0 0 3 11 12 16c11 5 17 -5 17 -5c8 3 16 5 23 7c6 2 14 4 18 7l8 7l10 -3c8 -2 15 -3 27 -3c6 0 12 1 18 1h19c18 0 43 -2 64 -13l9 -6v-10c0 -5 4 -8 10 -15c10 -10 22 -22 18 -46c-4 -63 -53 -105 -98 -142
c-4 -5 -9 -9 -14 -12l-5 -5h-7h-5c-4 -1 -10 -1 -13 -2l-3 -13l-12 -1c-13 -1 -25 -11 -38 -21s-30 -23 -53 -26v-2c-2 -4 -5 -8 -7 -11c0 0 -5 -11 -14 -11c-3 -1 -20 7 -20 7l-8 1c-14 -10 -33 -13 -48 -15c-23 -4 -32 -6 -36 -14c1 -6 1 -11 1 -15v-4c5 -9 19 -34 83 -34
c9 0 20 1 32 2c19 3 39 11 60 20c10 5 21 8 33 12h1h1c14 3 25 6 39 8c7 2 14 3 22 5c2 2 5 4 7 7c2 4 6 7 11 10l9 7l22 -9c2 1 4 5 8 11c5 6 13 16 25 22c0 0 14 6 18 3c5 -3 8 -13 8 -13c12 -32 9 -64 6 -95l-1 -8l-8 -4c-109 -66 -232 -101 -352 -103h-2h-2zM254 296
c-2 -7 -6 -13 -9 -19c11 4 23 9 32 15c19 8 39 16 59 20c16 16 37 33 67 36c10 10 21 19 32 26c13 8 22 15 28 21c-9 2 -19 2 -28 2c-67 0 -128 -51 -181 -101z" />
    <glyph glyph-name="f" unicode="f" horiz-adv-x="333" 
d="M151 -35c-7 0 -14 1 -21 2c-9 1 -18 2 -27 2c0 0 -18 1 -21 6s1 18 1 18c2 7 3 15 4 23c2 17 4 35 11 52c-5 28 0 58 13 85c-10 33 1 64 11 91c5 17 11 33 12 48h-1c-3 -2 -7 -4 -12 -5l-3 -1h-3c-3 0 -6 0 -8 1h-1s-10 -4 -18 -4c0 5 -2 7 -2 7c-3 -1 -6 -1 -10 -1h-5
h-4l-21 11l-3 26c-5 27 2 55 19 74l1 1h1c12 10 26 18 42 24c17 8 34 11 51 14v0c4 18 7 36 11 53c5 31 11 62 20 93v1v1c5 13 11 26 17 38c11 25 22 49 27 74l2 6l3 4c13 13 28 23 43 31c12 8 24 15 34 25l8 8l10 -3h2c2 0 5 1 7 1c4 0 8 1 12 1c10 0 18 -3 25 -9
c23 -12 38 -31 53 -50c9 -10 17 -21 26 -29c0 0 9 -8 9 -13c1 -5 -6 -14 -6 -14c1 -2 1 -4 2 -5c3 -6 7 -14 7 -24v-4l-1 -3c-9 -24 -25 -39 -44 -42l-17 -6l-26 16v6c-1 1 -2 1 -3 2s-3 2 -5 3l-7 4l-3 9c-1 5 -2 11 -4 13l-9 9l-1 2c-6 0 -12 -1 -18 -3
c-39 -43 -45 -106 -52 -167c0 -5 -1 -11 -1 -16v0c6 0 12 -1 16 -2c4 0 7 -1 10 -1c17 0 34 -2 50 -4l11 -2l5 -9c4 -9 11 -17 18 -25c3 -3 5 -5 7 -8l10 -12l-9 -12c-26 -39 -69 -46 -106 -51c-9 -2 -18 -3 -25 -5c-32 -53 -37 -117 -41 -179c-1 -9 -2 -18 -2 -27l13 -13
l-1 -9c0 -3 0 -5 -1 -8c0 -13 -1 -28 -6 -42c-4 -13 -11 -30 -23 -46c-13 -16 -30 -27 -48 -31h-3h-2z" />
    <glyph glyph-name="g" unicode="g" horiz-adv-x="611" 
d="M238 -225c-5 0 -9 0 -14 1h-10h-3h-1h-1c-8 0 -17 1 -24 4l-19 4l-5 13c-2 1 -4 1 -6 2c-11 2 -25 5 -37 13v0l-1 1c-1 0 -4 2 -6 3c-9 4 -23 9 -28 24v3c-1 0 -2 1 -3 2c-2 0 -4 2 -5 2h-2h-3c-12 2 -22 9 -26 20c-3 7 -4 14 -4 20v6c-15 24 -17 53 -7 81
c12 34 39 61 71 71l10 3l9 -7c1 -1 6 -2 8 -2c2 -1 4 -1 6 -2l17 -5l-2 -16c-4 -28 3 -52 19 -70c22 -25 61 -39 104 -39c35 0 68 9 91 26c43 53 48 125 52 195v0c-5 0 -9 1 -12 2c-56 -26 -106 -39 -150 -39v0c-52 0 -93 19 -121 57l-2 3l-1 3c-23 77 4 155 31 207l1 1v1
c24 37 54 71 88 100s72 52 113 69l1 1v0c25 9 51 16 76 22c15 4 31 8 46 12l6 2l6 -2c9 -3 16 -8 23 -12c6 -5 10 -8 14 -8l15 -1l4 -15c1 -8 6 -16 15 -26l3 -3l1 -4c6 -17 2 -35 -11 -50c-10 -10 -22 -18 -32 -24c0 0 -6 -2 -11 -2c-4 1 -12 4 -12 4c-2 3 -8 4 -14 4
c-11 2 -26 4 -37 16c-61 -2 -110 -48 -156 -92c-9 -9 -18 -17 -27 -25c-29 -62 -39 -102 -6 -120c7 -1 15 -2 22 -2c46 0 91 24 134 46c3 2 7 4 11 6c10 26 14 54 18 84l3 18l2 9l7 5c5 3 9 7 14 11c9 9 21 20 38 23c4 2 9 2 14 2c17 0 34 -9 45 -24c9 -13 11 -29 6 -44
c-5 -23 -13 -46 -20 -67c-2 -5 -3 -10 -5 -15c-5 -16 -7 -33 -8 -51c-1 -9 -2 -19 -3 -28c0 -3 1 -8 3 -13c2 -4 3 -7 4 -12l1 -3v-3c-1 -14 -5 -26 -9 -37c-2 -6 -4 -12 -5 -17c-1 -7 -2 -14 -4 -21c-2 -6 -3 -13 -3 -18v-10l-8 -6c-1 -1 -2 -2 -3 -2c0 -1 -1 -1 -1 -1
c-1 -5 -1 -10 -2 -15c-3 -24 -5 -48 -12 -73c-24 -116 -147 -176 -255 -176v0h-10h-5z" />
    <glyph glyph-name="h" unicode="h" horiz-adv-x="611" 
d="M99 -31c-20 20 -28 45 -26 75c2 23 11 46 19 69c2 7 2 7 5 13l-5 9l3 17c6 28 13 56 20 83c13 54 26 110 34 165l1 3l1 3c1 2 2 4 2 5l-5 10l9 10c2 3 5 6 7 9c-2 9 -3 18 -4 27v5l2 5c17 40 25 82 33 126c10 50 20 102 44 150l3 7l8 3c8 3 19 8 30 8c12 0 23 -5 30 -14
l5 -6v-7c0 -17 1 -30 4 -43l1 -5l-2 -5c-2 -6 -4 -11 -6 -16c-2 -3 -3 -7 -5 -10c0 -7 2 -17 4 -27l1 -4v-5c-3 -11 -7 -21 -11 -30c-4 -10 -8 -19 -8 -27v-1v0c-3 -56 -15 -109 -27 -162c12 13 26 25 41 38l1 1l1 1c3 2 7 4 10 6c11 7 21 13 25 21l6 11h11c10 0 19 2 30 4
c12 2 25 5 39 5c10 0 18 -1 27 -4l5 -2l4 -4c3 -4 10 -6 17 -8c10 -4 23 -8 33 -18l3 -3l2 -4c3 -9 3 -16 3 -23c0 -4 0 -8 1 -10v0l1 -1c7 -21 15 -45 19 -71l1 -6l-8 -16l7 -13v-5c1 -40 -8 -79 -17 -117c-6 -30 -13 -57 -15 -86c3 -34 -3 -83 -30 -113
c-15 -17 -35 -26 -57 -26c-4 0 -8 1 -12 1l-12 2l-4 12c-21 69 -4 135 13 199c9 34 17 66 20 99c-1 6 -1 13 -2 20c-1 16 -2 32 -7 45c-8 10 -22 16 -37 16h-6c-34 -17 -59 -47 -86 -78c-6 -8 -13 -15 -19 -22c-3 -4 -5 -8 -7 -13c-5 -11 -10 -24 -22 -33
c-3 -6 -5 -12 -8 -18c-7 -15 -13 -30 -19 -45c-16 -45 -27 -92 -38 -138l-1 -6l-5 -4c-17 -15 -34 -26 -50 -37c0 0 -10 -6 -13 -5c-4 0 -12 8 -12 8z" />
    <glyph glyph-name="i" unicode="i" horiz-adv-x="278" 
d="M113 -51c0 0 -22 8 -24 18c4 6 1 13 1 13c-5 4 -8 8 -10 12c-27 28 -11 64 -2 86v1c-1 2 -2 5 -4 9c-2 5 -5 11 -6 19v3v4c5 23 12 46 19 68s13 42 17 64c4 19 7 39 10 59c2 20 5 40 9 61v0v0c3 10 7 19 10 26c7 14 10 21 7 27c0 0 -4 7 -4 10c1 3 6 11 6 11
c10 15 26 23 45 23c22 0 46 -13 61 -24l8 -5l1 -10c5 -72 -11 -142 -27 -209c-14 -62 -27 -121 -26 -183v-3l-1 -2c-8 -32 -31 -58 -66 -75l-4 -2h-5h-2c-2 -1 -5 -1 -8 -1h-5zM205 561c-7 0 -14 1 -21 3l-8 2l-4 6c-24 39 -31 84 -20 122l3 12l11 2c17 5 27 19 31 28
c0 0 5 11 11 13c5 2 19 -6 19 -6c8 -5 17 -10 23 -10h3l12 4l8 -9c8 -8 14 -17 15 -27l1 -2l8 -6l2 -8c5 -30 -5 -65 -26 -91c-18 -21 -42 -33 -68 -33v0z" />
    <glyph glyph-name="j" unicode="j" horiz-adv-x="278" 
d="M25 -210c-22 0 -39 5 -57 10c-6 2 -11 4 -17 6l-5 1l-3 5c-26 31 -32 80 -14 121c14 34 43 54 77 56h12l6 -9c12 -22 7 -41 2 -57c-2 -7 -4 -14 -4 -20v0c7 3 14 8 19 12c35 29 48 75 62 119c3 7 6 15 9 24c19 69 24 140 31 211c7 67 15 138 33 207l4 16l15 -2
c16 -2 28 -10 37 -16c5 -3 10 -7 15 -8l14 -5l-1 -16c-5 -45 -7 -93 -8 -139c-6 -129 -11 -265 -75 -383v-13l-8 -8c2 -14 -7 -29 -13 -38c-1 -1 -2 -2 -2 -3c0 0 -3 -10 -10 -13c-4 3 -9 3 -9 3c-1 -2 -2 -3 -3 -3v-1c0 -2 0 -6 -1 -9v-7l-22 -20l-7 2
c-3 -7 -7 -13 -15 -19l-2 -3h-5c-5 -1 -11 -1 -17 -1c-5 0 -10 0 -14 1h-11c-3 -1 -8 -1 -13 -1zM213 561c-5 0 -10 0 -16 1l-6 1l-4 5c-11 10 -18 29 -17 47c0 10 3 21 9 30c-2 12 1 21 2 25l2 9l11 5c2 8 6 15 12 21c12 13 28 19 49 19s39 -8 51 -22l6 -8l-3 -9
c-2 -9 -1 -19 0 -30c2 -25 4 -53 -22 -75l-4 -3l-3 -1c-4 -1 -10 -3 -16 -5c-16 -4 -32 -10 -51 -10v0z" />
    <glyph glyph-name="k" unicode="k" 
d="M127 -51c-22 0 -44 10 -57 25c-11 13 -16 29 -14 47v0v1c5 23 15 45 25 66c5 13 10 29 11 41c0 9 -3 11 -7 13c0 0 -3 9 -12 11c-1 6 1 15 1 15c8 18 19 35 29 52c14 23 26 45 31 68c7 34 12 67 17 99v0v0c4 20 10 38 16 55c10 31 19 59 13 87l-1 6l3 6
c15 34 21 69 27 107c5 33 11 69 23 102l5 14l15 -1c23 -2 39 -16 51 -27c7 -6 14 -12 20 -14l12 -5v-14c-3 -83 -22 -164 -42 -242c-9 -36 -18 -74 -25 -112c18 15 37 30 54 44c53 44 108 89 174 119l13 6l9 -11c14 -16 14 -34 14 -49c0 -7 0 -13 1 -18l3 -9l-5 -6
c-12 -22 -31 -35 -48 -44c-15 -10 -27 -18 -35 -31l-8 -12l-13 3l-1 -1c-6 -8 -12 -17 -21 -26c-18 -17 -37 -29 -57 -40c-16 -10 -31 -19 -45 -31c0 -1 -1 -3 -1 -5c-2 -5 -4 -12 -10 -19v-1h-1c-4 -5 -9 -8 -13 -11l2 -2c21 -16 45 -26 71 -37c45 -20 92 -40 120 -89
c13 -14 14 -30 14 -41c0 -6 1 -11 2 -15c0 0 5 -16 3 -21c-11 0 -16 -7 -16 -7l-1 -1c-2 -5 -6 -13 -14 -18c0 0 -7 -6 -12 -7c-5 0 -12 7 -12 7c-1 0 -2 0 -3 -1h-3l-11 -3l-7 7c-13 12 -31 22 -48 32c-27 15 -53 29 -73 55c-17 5 -30 14 -43 22c-14 9 -26 17 -38 19
c-17 -24 -23 -54 -30 -85c-4 -19 -7 -37 -13 -56l-3 -8l-8 -3c-9 -4 -18 -6 -28 -6z" />
    <glyph glyph-name="l" unicode="l" horiz-adv-x="278" 
d="M122 -41c-22 0 -41 11 -54 29c-12 16 -16 37 -10 54c5 34 13 67 20 98c2 8 4 16 5 23c3 21 9 42 15 62c7 18 13 37 15 55v0v1c5 31 10 61 15 92c11 68 21 141 35 209v0c5 22 7 42 10 65c3 27 6 57 15 84c0 0 1 10 3 13c3 3 15 2 15 2c20 -1 31 -15 38 -25
c6 -5 9 -8 12 -8v0s16 -1 19 -3c3 -3 2 -18 2 -18c-13 -238 -60 -477 -102 -684l-1 -3l-1 -3c-5 -8 -11 -12 -16 -17c-4 -4 -7 -6 -7 -9l-3 -12l-10 -3c-5 -2 -10 -2 -15 -2z" />
    <glyph glyph-name="m" unicode="m" horiz-adv-x="889" 
d="M133 -35c-17 11 -35 26 -50 47l-6 7l1 8c12 65 21 132 31 194c13 84 25 169 41 251l2 9l9 5c1 0 2 1 3 1c11 6 24 13 40 13c6 0 11 0 16 -2l4 -1l3 -3c21 -20 24 -39 25 -55c1 -3 1 -6 2 -9v-2v-2c-2 -32 -6 -60 -10 -85c0 -2 0 -4 -1 -6c15 23 24 38 33 56l1 1l1 2
c12 18 29 32 47 46c16 15 34 28 45 47l1 2l2 2c16 17 37 19 53 19c4 0 9 0 14 -1h13c9 0 15 1 20 3l9 3l9 -7c5 -3 11 -7 18 -12c15 -11 36 -24 42 -49l1 -2v-2c0 -7 -1 -14 -1 -20c-1 -2 -1 -3 -1 -5l8 -1l2 -13l1 -2c0 -5 1 -9 1 -14c27 42 60 84 101 126l6 8l9 -1h3
c7 0 14 1 22 3c9 1 17 3 27 3c6 0 11 0 16 -2l6 -1l3 -3v0c2 -1 7 -3 8 -5c6 8 14 5 14 5l7 -21c2 -8 6 -15 9 -23c6 -13 12 -26 14 -41l8 -7l3 -24c7 -50 -1 -96 -12 -137c6 -6 9 -14 8 -24c-1 -7 -3 -12 -4 -17l2 -2l-1 -11c0 -11 -5 -23 -12 -31c2 -3 5 -6 6 -10l5 -8
l-7 -10c-10 -13 -11 -32 -13 -50c-2 -19 -3 -39 -13 -58c0 0 2 -9 9 -15c-3 -9 -16 -18 -16 -18c-1 -2 -4 -5 -7 -7c-8 -8 -16 -15 -20 -23l-5 -7l-8 -2c-6 -1 -11 -2 -16 -2v0c-31 0 -60 19 -74 49c-12 22 -10 49 4 68c2 37 13 75 23 110c13 55 28 107 12 160
c-4 -5 -7 -9 -8 -13c-3 -3 -4 -6 -6 -9c0 0 4 -8 2 -16l-7 -6c-27 -26 -43 -56 -62 -90c-18 -30 -34 -60 -60 -88c-6 -34 -18 -65 -32 -95c-6 -14 -12 -26 -17 -39l-3 -8l-7 -3c-7 -4 -16 -7 -25 -7c-35 0 -61 37 -67 69v4v3c4 13 7 27 10 40c24 95 46 193 43 291
c-7 -2 -14 -7 -14 -15c0 0 0 -9 -2 -12c-3 -2 -10 -5 -10 -5c-1 -1 -4 -2 -5 -3c-5 -3 -11 -7 -18 -8c0 0 2 -9 1 -12c-1 -2 -8 -9 -8 -9c-7 -9 -15 -18 -24 -30c-9 -14 -19 -28 -31 -38c-5 -28 -21 -46 -36 -64c-10 -13 -17 -24 -23 -34v-1v0c-11 -21 -19 -41 -28 -65
c-15 -44 -33 -90 -69 -125l-4 -4l-29 -8z" />
    <glyph glyph-name="n" unicode="n" horiz-adv-x="611" 
d="M118 -42c-16 0 -30 8 -43 20c-14 13 -21 32 -19 49v1v1c14 66 30 133 43 195c20 81 40 167 53 243c0 0 3 16 4 21c7 4 20 0 20 0c1 0 1 1 1 1l9 6l7 5l9 -3c2 -1 5 -2 7 -3c15 -4 35 -10 45 -32l4 -6l-3 -8c-12 -27 -17 -55 -21 -85c5 13 13 26 28 35c9 23 25 40 42 54
c9 9 18 17 25 26l4 5l5 2c10 2 19 5 29 8c19 7 39 15 63 16h4l5 -3c11 -6 24 -10 37 -14c24 -7 53 -17 73 -43l3 -4l1 -4c13 -89 17 -160 12 -227c-6 -85 -27 -156 -62 -220l-4 -8l-19 -5v0c-7 -1 -15 -1 -21 -1h-1v0c-20 1 -27 14 -32 23l-4 4c0 0 -8 9 -17 10
c-1 5 1 12 1 12c5 17 9 33 13 48c19 75 38 144 33 219c-2 21 -11 43 -20 65c-5 8 -12 18 -22 22c-13 0 -26 -7 -36 -18c-12 -14 -22 -30 -33 -48c-7 -14 -17 -31 -30 -48c-22 -26 -39 -59 -59 -88c-2 -4 -4 -8 -7 -11l-4 -6l-6 -1c-1 -1 -2 -1 -2 -1
c-17 -27 -26 -56 -36 -87c-9 -34 -21 -70 -43 -101l-2 -3l-3 -2c-9 -7 -19 -11 -31 -11z" />
    <glyph glyph-name="o" unicode="o" horiz-adv-x="611" 
d="M220 -48c-3 0 -6 0 -8 1l-6 2l-4 5c-1 0 -2 1 -3 2c-41 0 -79 24 -98 62c-38 23 -57 59 -58 108c-1 42 11 86 21 123c1 5 2 10 4 14l3 14l12 1c0 1 1 2 1 3c2 6 6 17 17 25c33 68 93 124 164 155c1 1 2 1 3 2c16 12 34 27 60 31h6c10 4 21 8 34 8c3 0 6 0 9 -1
c7 1 14 2 20 2c25 0 49 -6 70 -16c19 -10 35 -24 46 -40c11 -2 22 -8 29 -17c3 -4 5 -6 6 -10l9 3l9 -14c4 -9 9 -15 15 -23c8 -12 17 -25 23 -39l1 -1l1 -2c10 -51 3 -104 -24 -157c-21 -43 -53 -86 -96 -129l-13 -12h-11c-12 -14 -24 -22 -38 -32c-12 -9 -23 -16 -33 -26
l-7 -8l-11 2h-2c-5 0 -11 -2 -13 -8l-3 -13l-13 -2c-7 -1 -15 -3 -23 -4c-18 -3 -36 -7 -55 -7c-10 0 -19 1 -27 3c-4 -3 -10 -5 -17 -5zM177 100c5 -10 13 -19 43 -19c10 0 20 1 31 2c5 1 11 1 16 1c6 6 12 9 17 11c2 1 5 3 6 4l7 9l12 -1h5c15 0 29 9 45 21
c12 9 24 18 39 24c14 27 41 47 64 64c14 34 26 65 29 96c-5 5 -9 10 -13 15c-10 12 -15 17 -22 17v0s-19 0 -22 4c2 9 1 17 1 17c-5 1 -10 1 -15 2c-23 1 -48 3 -71 16c-12 -7 -23 -15 -35 -24c-16 -11 -33 -23 -53 -32c-51 -65 -112 -144 -84 -227z" />
    <glyph glyph-name="p" unicode="p" horiz-adv-x="611" 
d="M61 -259c-9 0 -17 2 -25 7l-10 5s-2 6 -3 14c0 8 3 15 3 15s7 2 7 4c-2 8 -6 14 -6 14v4c5 50 16 99 27 146c7 27 13 55 18 82c6 33 11 67 15 100c6 45 12 91 21 136c4 23 6 47 8 71c3 28 5 56 10 84l2 9l8 4c11 6 24 9 37 9c14 0 26 -3 36 -10c1 2 2 4 3 5
c12 19 25 38 41 53c17 16 34 25 54 28l1 2c2 5 5 9 7 11c1 0 1 1 1 1l7 10l13 -1c1 0 3 -1 4 -1c10 0 20 4 31 7c12 5 27 9 43 9h10h1l1 -1c11 -3 19 -9 25 -15c2 -2 4 -4 7 -5c2 -2 5 -3 8 -4c15 -8 30 -15 45 -20c16 -6 28 -12 38 -21l4 -4l2 -5c28 -87 27 -177 -2 -253
l-3 -6l-4 -3c-21 -15 -33 -38 -45 -63c-9 -18 -18 -35 -30 -51l-5 -7l-9 -1c-3 0 -7 -2 -11 -4c-2 -1 -5 -2 -7 -3c-65 -49 -126 -77 -187 -83h-5l-4 1c-19 8 -31 23 -40 36c-4 5 -8 10 -11 13c-4 -20 -8 -39 -12 -58c-8 -41 -17 -84 -22 -126v0c-1 -4 -1 -9 -2 -13
c-3 -20 -6 -43 -14 -64c-11 -26 -28 -43 -52 -52c-11 -4 -20 -6 -29 -6zM224 185c17 -15 39 -26 61 -37c38 9 72 33 105 56l5 4l5 1c16 2 23 15 35 37c3 7 7 15 12 22c0 18 8 33 15 45v0c7 21 8 43 3 69v0l-5 2s-7 -4 -21 0c1 7 -2 20 -2 20c0 3 -1 6 -1 10
c0 0 -26 4 -38 13c2 5 4 11 4 11c-5 1 -10 4 -13 7h-4c-5 0 -11 1 -15 1c-1 0 -2 0 -3 1c-59 -24 -105 -74 -120 -133v-2l-1 -2c-12 -25 -19 -52 -18 -76c2 -10 5 -30 -4 -49z" />
    <glyph glyph-name="q" unicode="q" horiz-adv-x="611" 
d="M332 -240c-9 0 -17 2 -26 6l-11 6l1 12c8 108 34 211 67 315c-9 -10 -17 -19 -23 -28l-4 -6l-7 -2c-12 -4 -24 -9 -36 -13c-38 -15 -77 -29 -121 -29c-4 0 -9 1 -15 1l-6 1l-5 3c-65 55 -52 150 -38 201v1v0c33 102 78 175 139 224l2 1h1c13 7 23 17 36 29
c24 22 51 46 88 46h9c12 5 24 8 37 8c20 0 39 -5 55 -10l5 -1l2 -2c16 -8 29 -22 37 -41c8 -16 11 -35 9 -54c-3 -37 -24 -66 -57 -78c0 0 -12 -5 -20 -2c0 10 -7 14 -7 14s-15 3 -18 7c-3 5 3 20 3 20c4 10 4 23 0 28c-1 2 -2 3 -5 4h-8c-28 0 -48 -7 -64 -16
c-2 -3 -4 -5 -6 -8l-3 -3c0 0 2 -8 0 -12c-1 -3 -11 -9 -11 -9c-18 -9 -42 -24 -61 -45c-6 -13 -12 -24 -18 -36c-9 -19 -18 -35 -30 -51v0l-6 -8l-2 -5c0 -5 -1 -7 -1 -9c0 0 2 -6 9 -7c3 -10 -6 -32 -6 -32l4 -9c2 1 5 1 8 1c10 0 20 -4 26 -10c4 2 8 4 11 7
c9 5 21 12 34 16c15 27 39 46 61 66c18 16 36 30 50 49l5 10l11 -1h2c15 0 28 13 41 28c5 6 11 11 16 17l7 5h8c25 -1 47 -19 59 -50l4 -10l-4 -9c-40 -60 -63 -128 -87 -196c17 15 31 21 43 21c5 0 10 -1 14 -3c3 2 7 2 11 2c14 0 25 -7 34 -14c4 -2 7 -5 10 -6
c0 0 13 -9 13 -15c1 -6 -11 -19 -11 -19c-1 -2 -1 -6 -1 -10c-1 -6 -2 -12 -4 -19l-3 -6l-7 -4c-44 -23 -77 -60 -112 -99c-8 -8 -16 -17 -25 -26c-2 -19 -12 -35 -21 -49c-8 -14 -15 -24 -15 -36v-6l-4 -6c-8 -12 -31 -39 -63 -39z" />
    <glyph glyph-name="r" unicode="r" horiz-adv-x="389" 
d="M89 -12c-22 4 -40 21 -48 43c-5 19 -4 40 5 55c-1 15 0 35 11 50c3 22 7 42 11 64c10 58 19 118 18 174v8l3 5c4 5 4 13 4 25v7v10l11 6c8 4 16 10 24 16c16 14 36 27 61 27c5 0 11 0 17 -2l12 -3l3 -10c3 -16 3 -32 1 -45c9 9 16 22 24 35c1 2 3 4 4 7l6 8h11h1
c12 0 21 6 34 14c16 10 32 21 54 21h6c16 8 32 12 49 12c24 0 46 -11 59 -31v-1l1 -1c9 -21 5 -45 2 -63c-1 -1 -1 -2 -1 -4l-4 -15l-14 -1c-5 0 -11 -4 -18 -10l-7 -6l-7 1c-6 1 -13 2 -20 2c-80 0 -142 -78 -190 -156h-1c-6 -12 -10 -22 -7 -30l4 -9l-5 -9
c-1 -2 -2 -4 -3 -4c-2 -4 -5 -9 -8 -14c-3 -12 -5 -24 -6 -35c-4 -38 -10 -77 -36 -110l-3 -4l-5 -2c-12 -7 -26 -14 -39 -22l-7 -4z" />
    <glyph glyph-name="s" unicode="s" 
d="M280 -29c-7 0 -13 0 -20 1v0v0c-11 1 -23 2 -35 2c-47 3 -99 6 -139 45c-10 1 -19 9 -24 14c-1 1 -2 1 -3 2c0 0 -8 6 -8 9c-1 3 3 13 3 13c3 8 1 20 -2 30l-2 12l9 7c6 5 11 14 16 23c9 17 23 43 54 44h16l2 -8c12 0 24 -4 33 -11c0 0 9 -8 11 -11c2 -4 -5 -14 -5 -14
c-1 -2 -2 -4 -3 -7c-3 -6 -6 -13 -11 -20c11 -10 30 -10 55 -10c16 0 32 0 46 -4l6 11l13 -1c2 0 5 -1 8 -1c27 0 57 17 82 35v0l-6 5l5 14c0 1 1 1 1 2c0 2 2 6 4 10c-2 3 -3 6 -5 9c-2 -1 -5 -1 -8 -1h-3l-4 1l-3 1c-5 3 -9 7 -13 9c-2 1 -6 4 -7 4l-2 1l-2 1
c-5 2 -9 4 -14 6c-19 8 -40 17 -58 24c-4 1 -8 1 -13 1c-7 0 -15 -1 -24 -3c-8 -1 -18 -3 -28 -3c-4 0 -8 1 -11 1l-10 1l-8 15c-16 8 -24 24 -29 39h-7h-11l-5 10c-16 33 -17 73 -3 104c8 20 21 36 40 43c1 6 4 10 6 14c1 2 2 3 3 5l5 10l10 1c4 0 12 0 19 20l4 12l12 2
c3 0 4 1 6 3l8 12l14 -7c1 -1 3 -1 5 -1c4 0 9 2 11 6c0 0 3 12 8 16c8 -7 17 -4 17 -4c2 1 5 2 7 4c2 0 4 0 6 1v1l14 4l17 1l6 -2s3 8 10 9s16 -7 16 -7c2 -2 5 -2 8 -2c1 0 2 0 4 1c0 0 13 7 22 14c8 -1 11 -12 11 -12h11l1 -3c7 -3 14 -5 20 -8l25 -8
c25 -9 43 -28 57 -43c6 -7 11 -13 17 -18l8 -7l-1 -10c-2 -19 -11 -38 -27 -53c-12 -13 -30 -23 -49 -28c0 0 -13 -3 -18 0c-6 3 -6 19 -6 19c0 3 0 7 -1 9v5c-28 29 -64 35 -88 35c-47 0 -98 -21 -133 -52c15 -34 50 -38 99 -44c24 -2 48 -5 67 -12l12 -4c3 -6 2 -15 2 -15
v0l5 -5c25 -4 51 -14 72 -31c25 -20 42 -44 52 -73l1 -3v-4c-3 -32 -13 -60 -28 -88c-15 -23 -36 -45 -60 -62c-45 -34 -106 -53 -165 -53v0z" />
    <glyph glyph-name="t" unicode="t" horiz-adv-x="333" 
d="M122 -20c-1 2 -3 3 -6 3c-1 0 -1 0 -2 -1c0 0 -9 -4 -13 -1c-5 2 -8 13 -8 13c-38 90 -10 177 20 261c11 38 23 72 30 105c-7 -3 -15 -7 -25 -8l-5 -1l-6 4c-34 23 -38 62 -40 84l-1 10l8 7c27 20 57 31 88 32c7 5 11 18 16 37c2 9 5 16 8 25c7 19 16 35 25 50
c8 20 18 36 24 55l4 15l16 -1c19 -1 39 -6 63 -16l10 -4l2 -11c9 -36 -6 -67 -19 -96c-1 -1 -2 -2 -2 -3c10 2 20 3 30 3c19 0 35 -4 49 -12c16 -11 25 -29 28 -49l1 -9l-5 -6c-29 -38 -73 -51 -111 -63c-13 -4 -25 -7 -37 -12c-31 -85 -56 -180 -78 -290c0 0 1 0 1 -1
c3 -1 5 -3 8 -5c11 3 21 5 33 5c22 0 42 -5 61 -17c0 0 8 -6 10 -10c1 -4 -2 -13 -2 -13c-11 -31 -34 -55 -66 -70c-23 -12 -54 -20 -88 -23c0 0 -12 -1 -14 0c-5 4 -7 13 -7 13z" />
    <glyph glyph-name="u" unicode="u" horiz-adv-x="611" 
d="M481 -36c-8 0 -16 1 -22 2c-6 0 -12 1 -18 1h-2c0 0 -18 -1 -22 3c5 11 1 19 1 19h-1c-6 5 -14 13 -17 25l-1 4l2 5c6 23 10 45 12 67c-3 -2 -4 -5 -7 -7c-14 -12 -28 -22 -36 -36l-3 -6l-5 -3c-12 -7 -26 -15 -40 -24c-35 -24 -74 -49 -120 -49v0c-15 0 -31 3 -43 8
l-1 1h-2c-12 5 -21 14 -29 23c-3 2 -5 5 -7 7l-3 3l-1 6c-33 140 -4 285 31 422l1 5l5 3c8 6 12 16 16 27c3 8 7 15 12 22l5 7l8 2c5 0 9 1 14 1c35 0 62 -25 75 -48l6 -10l-6 -7c-4 -7 -5 -17 -6 -27c-1 -5 -1 -11 -2 -16l-1 -1l-1 -3c-3 -5 -7 -11 -10 -16
c-1 -4 -4 -8 -6 -11c0 -1 0 -6 1 -9c1 -6 2 -16 -2 -27c-4 -10 -9 -15 -14 -20c-1 -1 -2 -2 -2 -3c-4 -8 -5 -18 -6 -31c0 -8 -1 -16 -2 -23c-1 -11 -2 -23 -4 -33c-2 -16 -4 -31 -4 -46v-2v-1c-4 -23 0 -50 5 -74c129 68 221 204 243 364l1 8l9 5c10 6 22 9 32 9
c22 0 45 -11 63 -28l5 -5l1 -6c7 -48 -8 -93 -22 -138c-7 -26 -14 -49 -17 -76v0v0c-6 -30 -10 -62 -14 -92v-5c-1 -19 1 -40 3 -61c2 -26 5 -51 2 -78l-1 -8l-6 -4c-17 -13 -34 -15 -47 -15z" />
    <glyph glyph-name="v" unicode="v" 
d="M234 -35c-1 1 -5 2 -7 3c-10 5 -28 12 -28 37v7l4 5c-21 23 -25 54 -29 81c-3 25 -6 47 -18 64l-7 9l5 10l-13 8l2 17c6 46 -4 92 -14 140c-11 54 -23 110 -12 169l1 7l22 14h5h2c13 0 22 -7 29 -11c2 -2 5 -4 6 -4c0 0 7 -3 14 2c4 -1 9 -9 9 -9c41 -60 46 -130 50 -197
c3 -42 5 -81 15 -118c11 17 19 33 29 52c9 18 17 35 28 53l3 4l16 10c19 46 53 84 85 120c7 7 13 15 20 23c0 2 0 5 -1 7c-1 9 -3 21 3 34v2l2 2c8 11 21 14 30 16c2 0 4 0 5 1c0 0 6 4 8 16c10 0 21 -7 21 -7c3 -2 6 -4 10 -6c11 -7 25 -14 33 -28l2 -3v-3
c8 -28 -1 -48 -6 -63l-3 -9l-1 -1v-1c-10 -17 -23 -32 -35 -46c-7 -6 -11 -13 -17 -20c-14 -19 -26 -40 -38 -60c-15 -28 -32 -57 -52 -83h-1v0c-7 -8 -10 -18 -15 -29c-3 -8 -6 -18 -12 -27v0c-6 -11 -14 -21 -21 -29c-8 -11 -16 -21 -22 -33l-12 -30
c-9 -25 -18 -50 -29 -75l-4 -10l-12 -1l-4 -4c-5 -6 -14 -15 -28 -16l-12 -1z" />
    <glyph glyph-name="w" unicode="w" horiz-adv-x="778" 
d="M164 -46l-8 5l-13 -4l-8 14c-21 35 -27 73 -32 110c-5 29 -9 56 -19 81l-3 6l2 7c5 20 4 41 3 63c-1 20 -2 40 1 61v2l1 1c2 7 5 13 7 18c3 5 5 10 6 14c-1 4 -2 9 -5 14c-3 8 -7 18 -7 30c0 7 1 14 2 21c1 8 2 16 0 23v1v0c-4 29 -2 59 6 88l4 15h15h17s12 1 19 1
c20 0 43 -2 64 -15l11 -6l-1 -13c-8 -89 -10 -187 -7 -299c4 -6 7 -13 10 -20c2 3 5 7 7 11c23 34 47 68 81 95c20 43 52 78 83 111c20 21 39 41 55 63l6 10l22 -2l14 -3l12 -9l7 -6l7 -6l8 -9l1 -5c3 -11 2 -21 1 -30c-1 -8 -2 -14 0 -15c0 0 9 -10 9 -15
c0 -4 -6 -12 -6 -12c-12 -16 -9 -34 -3 -62c4 -19 9 -40 5 -62c1 -1 1 -3 2 -4c50 59 83 129 118 202c17 37 36 76 57 113l3 6l8 3c12 4 25 6 38 6c25 0 48 -8 65 -22l9 -8l-3 -12c-22 -87 -71 -160 -119 -231c-29 -42 -59 -86 -81 -131l-2 -5l-5 -2
c-21 -15 -37 -37 -54 -60c-22 -29 -45 -60 -82 -79l-14 -7l-10 12c-48 55 -51 127 -53 195c-1 9 -1 17 -1 26c-27 -31 -50 -66 -73 -99c-43 -62 -87 -127 -150 -174l-9 -8z" />
    <glyph glyph-name="x" unicode="x" 
d="M26 -53c-24 13 -23 37 -23 52c0 5 0 11 -1 15c0 0 -3 11 -2 14c1 2 11 7 11 7c9 6 14 19 21 33s16 33 35 46v6v11l14 6l-3 6l20 17c17 12 28 27 42 45c20 23 38 48 67 64c-5 26 -19 52 -33 76c-15 31 -33 64 -37 102c-7 8 -11 18 -11 28c0 15 9 31 22 39l4 2l5 1
c6 0 12 1 20 1c26 0 44 -5 58 -18l1 -2l1 -2c21 -28 23 -54 24 -76c7 -12 15 -28 23 -42c7 -10 13 -22 20 -33c3 5 6 9 7 14l5 10h12h1c16 0 23 9 33 35c5 12 11 23 20 33c8 11 18 18 28 22c16 36 45 67 80 89l8 5l8 -3c2 -1 6 -3 10 -4c18 -6 41 -14 51 -33
c4 -6 7 -18 2 -34l-2 -6l-6 -4c-27 -16 -48 -43 -67 -70c-21 -28 -41 -56 -72 -77c-8 -30 -20 -53 -40 -70c14 -30 30 -61 47 -90c21 -36 41 -74 58 -113l4 -12l-9 -8c-4 -3 -8 -8 -13 -14c-14 -18 -31 -39 -62 -39h-1h-5l-4 3c-41 22 -57 65 -71 102c-13 33 -22 63 -49 81
c-31 -19 -58 -49 -82 -79c-6 -6 -12 -12 -18 -19v0c-10 -11 -17 -23 -26 -34c-26 -33 -51 -66 -92 -84l-5 -2l-5 1c-2 1 -4 1 -6 1c-1 0 -3 0 -5 -1l-6 -1z" />
    <glyph glyph-name="y" unicode="y" 
d="M165 -217c-7 1 -14 3 -21 4c-8 3 -18 5 -27 5c-4 0 -8 0 -11 -2l-12 -4l-8 8c-2 3 -5 5 -9 6c-6 4 -15 9 -21 19c-5 0 -9 1 -12 3l-8 4l-2 9c-1 6 -4 12 -7 18c-1 0 -1 0 -1 1c-14 15 -23 30 -25 42c0 0 -7 0 -9 4s2 22 2 22c2 5 4 10 6 14c5 9 10 20 8 30l-2 13l12 6
c16 7 32 8 47 8c7 1 14 1 20 2l13 4l7 -11c4 -5 5 -10 5 -14v-1c0 0 11 -10 11 -16s-10 -14 -10 -14c-2 -2 -4 -3 -6 -4c-2 -2 -4 -3 -7 -5c1 -3 6 -9 13 -18l3 -3c18 -5 35 -8 55 -8c54 0 112 22 158 57l2 4c1 5 2 8 3 11c0 1 1 3 1 4v5l3 4c45 46 51 109 56 173
c-6 -9 -10 -17 -17 -26l-6 -8h-8c-15 -3 -28 -12 -43 -22c-21 -14 -43 -27 -72 -27v0c-8 0 -13 1 -20 2c-18 2 -35 10 -47 23c-14 13 -25 25 -30 43l-1 3v3c0 9 1 18 3 24c1 6 2 13 2 20l-11 11v7c-2 20 2 42 7 60c2 11 5 23 6 35v0c1 8 0 16 0 27c-2 19 -3 36 4 56
c5 23 15 42 24 63c7 16 15 35 20 53l4 14l16 -1c11 -1 19 -2 29 -5c9 -3 18 -4 25 -4h17l1 -17c2 -43 -3 -89 -12 -139l-2 -8l-13 -9c-8 -34 -13 -63 -15 -87v-1l-1 -2c-5 -23 -4 -41 2 -50l3 -3c14 13 30 20 43 24c39 18 60 55 83 97c7 15 17 33 28 48c10 41 20 83 35 122
c0 0 5 12 9 16c14 2 33 -12 33 -12l2 -5l7 2l7 -7l11 -6l1 -2h19l-1 -18c-2 -22 -4 -43 -7 -63c-2 -23 -6 -42 -7 -65c10 -25 7 -57 -8 -88c1 -19 -5 -40 -10 -60c-8 -24 -15 -48 -2 -68l4 -8l-4 -9c-8 -16 -15 -39 -21 -59c-13 -40 -27 -80 -53 -115
c-31 -39 -69 -75 -112 -98c-46 -26 -96 -40 -146 -41h-2h-1z" />
    <glyph glyph-name="z" unicode="z" horiz-adv-x="500" 
d="M392 -20c-12 0 -25 4 -37 10c-6 -1 -11 -2 -16 -2c-12 0 -24 2 -36 5c-7 1 -14 3 -22 3c-6 0 -11 -1 -15 -3l-7 -3l-7 1c-10 3 -25 4 -41 4c-22 0 -49 -3 -72 -6c-27 -4 -52 -8 -79 -8c-13 0 -28 2 -41 3c0 0 -13 2 -15 7c-2 4 3 20 3 20c6 12 9 22 9 30v8l5 6
c21 22 37 45 52 72c17 22 33 47 51 67l3 3l4 1c22 10 37 31 55 50c13 17 25 31 44 45c18 35 53 59 82 81c21 14 37 28 55 45c-25 5 -56 7 -87 7c-33 0 -61 -2 -88 -4h-5c-8 -1 -15 -4 -23 -10l-6 -4l-5 1c-2 1 -4 1 -7 2c-8 1 -16 2 -23 2h-5l-10 -1l-5 10
c-10 17 -2 34 2 44c1 2 2 4 2 6l-4 12l21 20l6 1c7 0 13 0 19 1c14 0 29 0 40 8l4 3l4 1c26 6 53 9 88 9c54 0 105 -9 158 -18c11 3 23 4 33 4c32 0 55 -16 63 -43l2 -8l-4 -7c-6 -14 -17 -23 -28 -30c-12 -6 -18 -11 -21 -19l-1 -8l-6 -3c-56 -33 -102 -80 -151 -129
c-25 -24 -45 -45 -71 -68c0 -5 -1 -11 -5 -16l-2 -2l-3 -2c-21 -19 -49 -43 -70 -72v0c3 0 4 1 4 2c0 0 6 4 11 6c3 1 5 0 5 0c23 -4 48 -5 73 -6c54 -2 111 -4 161 -34c4 2 9 4 14 5c0 0 7 1 10 0s7 -6 7 -6c5 -5 9 -11 11 -21h3l5 -26l-3 -25l-13 -3c-8 -1 -18 -4 -27 -7
c-13 -5 -31 -11 -48 -11z" />
    <glyph glyph-name="braceleft" unicode="{" horiz-adv-x="389" 
d="M277 -227c-13 0 -25 7 -31 18c-2 0 -4 -1 -6 -1l-2 -1c-7 -3 -15 -5 -22 -5c-11 0 -20 4 -26 10c-32 5 -57 24 -73 56c-24 45 -22 107 5 149c0 8 4 15 6 20c1 2 1 3 2 5v2l1 4c5 15 10 32 16 48c14 33 27 64 26 99c-40 27 -90 62 -102 120l-1 8l5 8c6 9 17 25 36 25v0
c19 11 37 19 56 27c34 14 67 26 85 56h1v1c1 2 2 7 3 11c1 8 3 19 9 28c-2 15 -1 29 0 44c1 19 1 35 -4 52l-2 6l2 7c8 17 7 39 7 61c0 12 0 25 1 37l1 7l5 4c10 11 19 20 30 28c14 10 26 19 35 31l5 6l7 1c4 0 8 1 11 1c45 0 73 -41 83 -54l7 -10l-5 -10
c-13 -24 -36 -27 -53 -30c-3 0 -7 0 -10 -1c-7 -12 -13 -25 -20 -40c5 -33 2 -68 0 -100c-3 -28 -5 -57 -2 -83v-3v-2c-3 -19 -10 -33 -16 -49c-4 -8 -7 -16 -9 -23l-2 -7l-4 -2l-27 -18c-25 -19 -52 -37 -82 -50c4 -11 19 -17 21 -18l7 -3l3 -6c3 -2 4 -6 5 -10
c1 -1 2 -3 2 -5l10 -1l3 -13c18 -71 -4 -138 -27 -203c-11 -36 -24 -70 -28 -106c1 -2 3 -5 5 -7c5 -1 10 -2 13 -3c18 -3 37 -7 52 -16l11 -6v-9h3l6 -7c16 -16 9 -39 4 -51c-4 -15 -20 -27 -36 -27z" />
    <glyph glyph-name="bar" unicode="|" horiz-adv-x="280" 
d="M138 -231c0 0 -17 -3 -21 0c-4 7 -2 13 -2 13c-13 4 -25 12 -31 26c-11 24 -8 56 7 77c6 81 13 164 13 248v4l2 4c2 5 3 10 6 14c-4 55 1 116 14 183c1 6 2 12 4 17c4 14 5 21 2 30l-3 7l1 6c2 8 5 14 10 20c-9 51 2 100 11 147c4 12 7 26 9 39l5 15l6 4
c-2 40 6 74 23 105l6 13l15 -4c12 -2 20 -9 29 -15c6 -4 12 -7 17 -9l17 -4l-1 -16c-5 -74 -15 -146 -23 -217c-5 -39 -9 -80 -12 -120c-2 -20 -3 -39 -4 -60c-1 -22 -1 -48 -4 -71l-6 -45c-5 -32 -10 -62 1 -93l2 -6l-2 -5c-8 -24 -7 -48 -5 -76c2 -26 3 -55 -5 -82
c12 -59 1 -129 -57 -155c0 0 -10 -4 -16 -3c0 6 -8 9 -8 9z" />
    <glyph glyph-name="braceright" unicode="}" horiz-adv-x="389" 
d="M-38 -210v9c0 9 -13 16 -25 21l-14 8l2 15c7 24 23 44 37 60l7 8l10 -1c14 -2 29 -4 44 -9c6 7 12 13 18 20c49 52 100 106 83 169l-2 6l5 12l-3 9v1l-9 3v12c-2 51 31 89 57 121c7 9 15 18 21 26c-27 23 -53 56 -57 98v5l2 5c0 2 -2 6 -3 9c-2 5 -5 11 -6 18v2v2
c1 21 8 42 15 60c5 13 9 24 10 36v0v1c9 36 11 77 7 126c-3 1 -7 1 -9 1c-8 0 -16 -1 -23 -4c0 0 -14 -5 -18 -3c-5 2 -6 16 -6 16c-1 4 -6 9 -11 13c-12 11 -29 28 -21 55l2 7l6 4c10 6 19 7 25 8c4 0 9 1 10 2l6 4l9 -1c16 -2 34 -5 51 -13c20 -9 32 -21 38 -39
c42 -28 52 -85 40 -128c6 -38 -2 -72 -10 -104c-6 -31 -13 -59 -9 -85c0 0 7 0 12 -5c7 -5 8 -18 8 -18c15 -8 26 -20 36 -29c2 -3 4 -6 7 -9l2 -2l1 -2c4 -7 6 -14 8 -21c1 -4 2 -9 4 -9l12 -9s4 -5 -3 -14c3 -5 6 -7 7 -12c2 -5 -14 -14 -14 -14c-42 -29 -74 -62 -99 -98
c1 -7 2 -15 4 -22c2 -13 5 -25 5 -39l6 -3l1 -11c2 -52 -20 -106 -55 -141c-1 -6 -2 -10 -4 -14c-1 -4 -2 -7 -2 -8l-2 -13l-13 -3c-8 -3 -12 -10 -20 -22c-5 -7 -10 -13 -17 -19l-6 -6h-5c-1 -2 -1 -4 -2 -6l-3 -9l-6 -3c-8 -4 -17 -10 -25 -15c-16 -11 -33 -24 -57 -26
l-10 -4l-4 7l-13 -10z" />
    <glyph glyph-name="asciitilde" unicode="~" horiz-adv-x="584" 
d="M411 231c-23 2 -48 8 -73 24l-8 4l-1 7c-3 0 -5 1 -7 2l-4 2l-2 3c-6 7 -8 13 -9 18c-4 1 -10 2 -17 6l-6 4l-2 7c-2 6 -2 10 -2 14c0 1 -1 1 -2 1c-5 1 -12 3 -18 6c-3 3 -6 5 -9 9c-3 -2 -9 -6 -12 -7c-6 -5 -13 -11 -22 -14l-1 -1c-7 -3 -12 -4 -19 -4
c-4 -1 -8 -1 -11 -2c-13 -7 -25 -15 -36 -24c-20 -12 -40 -26 -64 -36l-6 -2h-6c-1 1 -3 4 -4 5c0 0 -7 -3 -11 -1c-2 2 -7 12 -7 12c-12 29 -11 59 3 82l2 4l3 3c6 4 12 8 19 13c56 37 115 75 180 96l9 3l8 -5c5 -3 10 -5 17 -5c3 0 6 0 9 1l7 1l7 -6c4 -3 8 -6 12 -10
c23 -16 42 -34 67 -48v0l1 -1c7 -5 13 -11 20 -17c9 -9 17 -18 24 -18v0c2 0 5 1 7 2l2 1h1c39 14 74 51 96 104c0 0 4 13 10 15c6 3 19 -7 19 -7c5 -4 9 -9 13 -13c1 -2 3 -4 5 -5c0 0 8 -7 22 1c5 -8 3 -22 3 -22c-1 -4 -1 -10 0 -17c0 -14 0 -31 -6 -45l-1 -3l-2 -1
c-33 -50 -68 -86 -108 -112l-1 -1h-1c-17 -8 -36 -13 -52 -17c-10 -1 -19 -3 -28 -5l-4 -1h-4z" />
    <glyph glyph-name="exclamdown" unicode="&#xa1;" horiz-adv-x="333" 
d="M133 -234c-48 0 -92 38 -102 89v2v2c0 16 4 28 6 39c3 9 6 18 7 26c-4 21 6 41 15 56c2 32 9 63 15 95c6 30 11 59 12 90v3l1 2c3 8 8 12 13 15c4 43 17 87 30 127c3 11 5 20 8 30l3 12l11 2c6 2 12 2 17 2c24 0 47 -12 66 -24l14 -8l-5 -14c-2 -6 -2 -14 -2 -23
c-1 -12 -1 -26 -7 -41c5 -18 0 -33 -4 -47c-1 -6 -3 -11 -3 -16v0v-1c-4 -17 -5 -36 -5 -55c-2 -38 -3 -75 -22 -110c4 -45 -5 -87 -14 -129c-5 -22 -7 -42 -10 -62l1 -23l-4 -4l-4 -8l-2 -3c-1 -1 -2 -3 -3 -3c-4 -5 -9 -11 -15 -16l-5 -5h-7h-5v0zM215 401
c-32 0 -68 20 -74 58l-1 6l3 4c3 7 5 13 4 18l-1 13l11 6c5 3 8 9 13 16c2 4 5 9 9 14l3 7l8 1h11c26 0 51 -12 67 -31c12 -18 16 -38 12 -57l-1 -6v0l1 -1l-5 -12c-11 -22 -34 -36 -60 -36z" />
    <glyph glyph-name="cent" unicode="&#xa2;" 
d="M193 -191c-1 1 -1 1 -1 2h-4c-39 0 -59 41 -66 55l-3 7l2 7c5 21 13 44 19 65c14 37 27 72 29 108c-39 11 -65 40 -87 68c-11 13 -22 24 -33 34l-6 6v8c-1 32 -2 69 13 105c0 2 -1 4 -1 6c-1 8 -3 24 5 38c-7 37 19 64 38 89c8 8 15 17 20 24c3 3 5 8 7 13
c4 8 8 18 15 28l1 3l15 5l2 1c2 3 5 7 7 11c6 9 13 21 23 30v1l1 1c36 20 73 40 115 40h6c7 0 15 4 23 8c0 31 14 57 28 84c5 11 10 20 15 29l4 11l11 1c5 0 11 4 18 9c10 7 22 14 37 14c7 0 13 -1 19 -3l8 -2l3 -8c16 -38 3 -72 -9 -101c-7 -17 -14 -32 -15 -47
c5 -3 11 -7 17 -10c24 -15 52 -30 71 -52c27 -25 37 -56 33 -89c0 0 -1 -15 -6 -20c-5 -1 -20 3 -20 3c-1 0 -2 1 -3 1c-3 0 -8 -2 -12 -3c-3 -1 -7 -2 -11 -3c0 0 -11 -2 -14 0c-2 2 -9 16 -9 16l-2 1l-7 5l-5 3h-4c-17 0 -31 8 -43 15c-5 2 -8 5 -12 6
c-19 -17 -24 -47 -29 -76c-1 -10 -3 -20 -4 -27c-6 -28 -13 -53 -22 -79c-11 -27 -21 -55 -25 -82c48 18 86 48 105 85l5 11h13c6 0 11 1 17 1c7 1 15 2 23 2c10 0 17 -1 25 -4l19 -7l-4 -18s4 -3 14 -2c3 -3 2 -13 2 -13c0 -3 2 -7 4 -12c0 -1 1 -2 1 -3l4 -9l-5 -9
c-27 -45 -64 -83 -111 -113c-39 -26 -85 -45 -134 -58c-2 -8 -5 -16 -7 -24c-19 -67 -38 -138 -94 -189c0 0 -7 -6 -16 -7c-8 3 -13 10 -13 10zM189 220c3 -19 16 -33 28 -42c17 47 30 95 45 142c12 41 23 83 38 124c-12 -4 -20 -11 -27 -16c-13 -12 -25 -29 -31 -46l-2 -3
l-4 -4c-37 -29 -40 -80 -40 -139v-3l-7 -13v0z" />
    <glyph glyph-name="sterling" unicode="&#xa3;" 
d="M393 -30c-2 1 -7 4 -8 4c0 0 -6 -5 -12 -2c-3 1 -8 17 -8 17c-4 19 -23 31 -42 43c-11 6 -22 13 -32 22c-8 -1 -19 -2 -30 -3c-16 -2 -31 -4 -48 -4c-5 0 -9 0 -14 1c-11 -7 -25 -17 -39 -28c-23 -21 -52 -43 -88 -43v0c-5 0 -10 0 -15 1c0 0 -11 3 -13 4l-2 12
c0 4 -1 9 -1 13c-4 27 -7 57 7 85l2 6l7 3c43 20 66 63 88 109c2 3 4 7 6 11l-12 -1l-10 8l-2 1c-4 0 -7 -1 -12 -2c-7 -2 -16 -5 -24 -5h-3v0c-15 1 -40 3 -54 23l-2 2l-1 2c-10 27 -9 48 -8 65l1 11l10 4c1 0 2 1 3 1l1 1l1 6l10 5c11 4 22 5 33 5h7h4c9 0 16 0 21 4l10 5
l9 -5c6 -3 12 -4 18 -4h8c2 0 5 1 8 1c10 0 21 -1 29 -5c-1 7 -1 15 -1 22c0 10 0 16 -2 18c0 0 -5 6 -6 13c0 3 2 14 2 14c9 24 6 51 4 80c0 34 -2 71 14 105v0l2 12c10 46 47 71 80 95c11 8 24 16 34 26l8 7l8 -3h5c4 0 8 1 12 1c6 1 11 2 17 2s12 -1 15 -3c8 2 17 4 26 4
c10 0 19 -3 23 -8c4 1 9 2 14 2c15 0 28 -8 37 -13c7 -5 15 -9 20 -9h2c0 0 10 2 13 1s8 -11 8 -11c6 -14 14 -28 23 -40c25 -44 52 -89 51 -145v-2v-2c-5 -22 -22 -31 -32 -37c-5 -1 -9 -2 -11 -5l-9 -7l-10 3c-12 3 -22 9 -29 21c-2 5 -4 10 -6 16l-15 8l-7 22l12 15v1
c0 21 -7 39 -19 54c-18 18 -45 28 -73 28c-20 0 -38 -6 -54 -14c-66 -68 -60 -172 -38 -276c6 -1 12 -2 18 -2c12 0 27 3 42 5c14 3 30 6 47 6c16 0 32 -3 47 -11c7 4 14 7 23 8c0 0 11 2 17 2c7 0 9 -3 9 -3s17 -20 18 -33c0 -3 -5 -11 -5 -11c-3 -5 -6 -8 -8 -11
c-2 -2 -4 -4 -4 -5l-1 -7l-8 -4c-27 -21 -61 -25 -89 -29c-2 0 -4 -1 -6 -1h-1v0h-4c-5 0 -9 1 -13 1c-2 0 -3 1 -5 1c-10 -11 -24 -13 -35 -14c-2 0 -4 0 -6 -1h-14h-21c-5 1 -11 2 -16 2c-4 0 -8 -1 -10 -2c-5 -16 -15 -33 -25 -48c-1 -1 -2 -3 -3 -4l2 -1
c10 -3 23 -5 35 -7c36 -4 78 -10 100 -48c24 -7 44 -24 58 -43c13 -22 16 -45 9 -66c0 0 -3 -10 -7 -14c-5 -5 -13 0 -13 0c-1 -1 -3 -3 -4 -5l-9 -9c0 0 -21 -19 -31 -20c-2 3 -8 6 -8 6z" />
    <glyph glyph-name="fraction" unicode="&#x2044;" horiz-adv-x="167" 
d="M-192 -52h-2h-9l-5 10c-4 6 -8 8 -9 8v0s-21 0 -26 9c6 9 6 20 6 20c-1 1 -3 4 -4 5s-1 2 -1 3l-7 13l8 10c5 6 11 11 17 16c9 8 18 16 21 25l3 8l6 2c10 4 17 10 19 17l4 10l11 3h2s2 1 4 1v2c1 2 1 4 1 6l1 5l2 3c2 2 4 5 6 9c6 11 14 25 28 32c1 3 2 7 5 9
c4 4 9 9 13 12v1h1c15 9 25 16 32 25v0v0c4 5 9 10 12 12l-7 10l17 13c7 4 12 11 16 23l7 15l16 -5c6 25 26 39 43 50c11 9 23 18 27 30c0 0 5 11 10 15c10 6 16 -5 16 -5c2 1 3 5 5 7c3 2 5 5 8 7c4 7 9 13 13 19c7 9 14 17 19 26l2 4l9 8l5 9l12 13l3 2c4 9 13 17 19 21
c2 2 5 5 5 6l6 12l14 -1c2 2 3 5 3 8l1 12l23 7c15 20 27 37 33 55c0 0 3 14 8 16c7 3 13 -2 13 -2c1 1 2 2 3 4c4 5 9 11 17 15v6l22 27h6l-1 6l14 8c2 2 4 4 7 5c9 6 16 11 21 18c3 17 14 24 23 32c5 4 9 8 11 11l5 9l10 2h6c13 0 28 -6 42 -19l8 -9l-3 -11
c-3 -8 -7 -15 -10 -21c-6 -8 -9 -14 -9 -19l1 -11l-12 -6c-2 -1 -4 -4 -6 -7c-4 -6 -10 -14 -17 -19c-29 -19 -47 -50 -61 -76l-3 -4l-3 -2c-21 -15 -35 -33 -52 -55c-19 -22 -38 -48 -66 -66c-8 -20 -25 -35 -39 -48c-12 -9 -21 -20 -29 -33l-3 -6l-6 -2
c-9 -4 -16 -12 -23 -22c-6 -10 -14 -22 -26 -30v-1v-1l-4 -7s-2 -9 -5 -12s-13 -5 -13 -5c-3 0 -4 -4 -4 -7l-1 -6l-5 -4c-53 -47 -97 -97 -130 -147l-2 -2l-2 -2c-24 -20 -51 -46 -62 -78l-2 -4l-3 -3c-5 -6 -9 -10 -12 -14l-5 -9h-12c-3 0 -7 -4 -11 -8
c-9 -8 -21 -18 -39 -18v0z" />
    <glyph glyph-name="yen" unicode="&#xa5;" 
d="M252 -42v0h-3h-5h-7c-5 0 -12 0 -18 4c-16 6 -27 20 -31 36c-3 13 -2 29 3 42c8 24 15 50 17 74c-8 3 -18 4 -30 4c-6 0 -11 -1 -19 -1c-7 0 -15 -1 -22 -1c-21 0 -50 3 -73 24l-9 6l2 11c2 13 7 24 11 33c2 5 4 11 6 16l2 10l9 3c25 8 49 11 74 11c16 0 31 -1 47 -4
c6 4 13 7 18 9c1 6 3 13 4 19c3 11 5 21 6 30h-3c-10 0 -21 -2 -33 -5c-15 -4 -28 -8 -45 -8c-2 0 -7 -1 -8 -2c0 0 -8 -7 -9 -16c-5 -2 -16 2 -16 2c-5 3 -12 4 -20 5c-11 3 -23 5 -34 12l-11 6l1 11c2 19 12 33 20 44c4 4 8 10 10 15l5 11l12 2c3 0 6 1 9 1
c2 7 5 14 11 20l5 4h8h3h4c6 0 17 0 28 -4c12 3 26 4 40 4c10 1 17 2 26 3c0 7 -1 12 -3 13l-11 8l3 14c2 8 -5 21 -13 29l-8 9l4 12c2 4 0 11 -5 14l-9 10l1 14c4 12 -11 25 -16 29l-2 2l-1 3c-4 8 -5 16 -7 23c-1 5 -2 8 -4 10s-3 4 -5 6c-10 10 -26 26 -22 47
c-4 9 -8 17 -12 26c-9 20 -21 43 -29 65l-2 16l13 8c3 2 6 3 9 4c5 2 9 3 11 6l8 7l11 -3c8 -2 17 -5 24 -5c3 0 7 1 10 2l9 3l8 -5c24 -14 31 -38 37 -57c2 -5 3 -9 4 -13c4 -3 7 -7 11 -10c6 -4 12 -9 17 -15l1 -2l1 -1c4 -10 7 -20 9 -29c1 -3 2 -7 3 -9l2 -1l15 -5l3 -7
c8 -17 10 -33 12 -48c1 -6 1 -11 2 -17h1l13 -12l-2 -11c-3 -11 1 -22 5 -35c2 -5 4 -10 6 -17c1 -1 3 -2 4 -4c8 11 15 20 22 32c3 6 6 13 10 20l1 1l1 1c7 8 14 12 21 19c7 6 14 13 19 20l1 8l5 10l3 5l12 12l9 5l1 2c2 3 3 7 5 12c3 8 7 17 13 24l2 2l12 8l2 1
c6 7 11 17 17 25c11 19 21 40 45 53l3 2h4c4 0 9 1 12 1c16 0 31 -4 44 -10c14 -11 24 -26 25 -44v-3l-1 -3c-4 -12 -10 -21 -15 -29c-5 -9 -10 -15 -10 -23v-7l-5 -5c-10 -11 -20 -21 -30 -29c-19 -20 -39 -40 -50 -62v-2l-1 -1c-8 -14 -20 -26 -31 -35
c-6 -6 -12 -12 -17 -18l-4 -14l-2 -4c-8 -8 -17 -17 -27 -25c-1 0 -2 -1 -2 -2c22 2 42 2 63 2h24h25h8l5 -6c2 -3 5 -7 8 -10c3 -4 8 -10 10 -10l17 -3v-15c0 -4 -1 -8 -2 -11v0c0 -10 -1 -16 -1 -20v-3v-9l-10 -6c-32 -21 -68 -24 -97 -24c-10 0 -21 1 -28 1
c-10 0 -20 1 -30 1c-17 0 -33 -2 -46 -5c-14 -15 -18 -37 -22 -61c3 0 6 0 7 1c6 1 14 2 22 2c10 0 19 -2 26 -6v0c8 3 18 6 29 6h11l6 -9c2 -5 6 -9 12 -14c8 -6 17 -12 24 -22l5 -8l-4 -10c-18 -43 -55 -49 -82 -49c-9 0 -19 1 -29 2s-19 1 -26 1s-14 0 -19 -1
c-3 -12 -6 -25 -9 -36c-9 -45 -18 -95 -59 -129c0 0 -5 -6 -11 -8c-8 0 -12 7 -12 7z" />
    <glyph glyph-name="florin" unicode="&#x192;" 
d="M454 624c-4 -5 -12 -19 -13 -20c-2 -2 -4 -5 -4 -7v-12l-8 -3s3 -8 2 -13c-7 -2 -9 -5 -9 -5c3 -22 -2 -42 -7 -61c0 -4 -1 -8 -2 -11c4 0 9 2 14 4c0 0 6 3 10 10c10 -1 15 -10 15 -10s10 7 14 10c10 -2 14 -9 14 -9l14 7l13 -12h8l6 -5l20 -17c16 -16 16 -39 16 -49
v-13l-11 -5c-2 -2 -4 -3 -5 -4c0 0 -9 -10 -8 -19c-8 -3 -24 0 -24 0c-22 -2 -46 -4 -68 -6c-20 -1 -40 -2 -60 -4c-2 -2 -3 -3 -3 -4c0 0 -5 -11 3 -23c-4 -4 -12 -4 -12 -4c-2 -41 -12 -74 -27 -101c1 -14 -1 -30 -6 -44c-5 -13 -13 -26 -22 -37c-2 -36 -16 -68 -34 -100
c1 -18 -6 -40 -24 -53c-15 -59 -36 -111 -61 -155l-3 -6s-16 -4 -19 -5c-15 -8 -17 -17 -22 -25c-7 -3 -15 0 -15 0l-10 -5l-5 2c-3 -3 -6 -5 -9 -7s-7 -5 -10 -9c0 0 -13 -15 -22 -15c-8 0 -10 8 -10 8c-8 -3 -16 -3 -20 -3h-7h-5c0 0 -12 0 -14 3c-1 3 -3 14 -3 14l-9 2
l-2 10v2c-1 1 -1 4 -2 7l-8 8s-5 6 -7 6l-11 2l-4 10c-8 14 -7 33 2 50c7 12 19 24 33 32l4 3c1 1 2 3 3 5c0 0 5 8 10 9c8 1 17 -3 17 -3c6 -3 13 -9 16 -19l10 1l2 -6v1c37 7 50 57 61 97c1 4 3 8 4 12l4 15l8 2c0 12 1 27 9 41c-1 6 0 10 2 16c3 8 7 14 12 20
c2 3 6 8 7 12c0 4 0 8 -5 20c4 8 15 7 15 7c1 31 16 62 30 85c-2 7 -2 14 1 21c3 8 9 15 17 20c-2 24 6 48 14 69c-10 1 -20 2 -31 6v0h-1c-17 9 -31 22 -37 38c-5 15 -4 31 5 43l6 11s5 9 7 22c14 4 20 -4 20 -4c2 1 3 2 3 2l20 11s3 -4 8 -3c3 0 9 3 9 3h8h4l8 10
c12 17 17 39 15 68l-1 12l9 5c0 1 1 1 2 1c1 1 3 2 4 2v7c-1 14 -2 29 3 42c0 0 -4 8 -5 18c4 10 15 15 16 15c1 8 5 15 8 19c2 4 5 8 5 10l1 14l13 4c2 1 6 2 10 3c9 15 27 23 49 24l1 4l7 2c8 5 16 7 25 7c7 0 15 -3 23 -5c4 -1 8 -2 11 -2l7 -1l5 -5l5 -5h4
c52 0 76 -64 87 -93l4 -12l-26 -23l-8 2c-15 -17 -38 -19 -55 -21c-2 0 -5 0 -7 -1l-19 -2l-5 17c-3 5 -6 10 -3 18c3 6 7 11 7 11c-1 1 -3 2 -3 3c-11 -2 -15 -7 -18 -11v0z" />
    <glyph glyph-name="section" unicode="&#xa7;" 
d="M135 -233c-13 0 -28 6 -41 12c-8 3 -16 6 -20 7l-12 2l-3 11c-3 9 -9 19 -16 30c-12 17 -24 38 -21 65l1 6l4 7s0 6 -3 9c1 5 11 14 11 14c4 4 9 6 14 8c0 5 0 11 2 17l2 6l5 4c5 3 8 9 13 15l5 7h9c3 0 6 0 8 -1h2h5l4 5l13 -1c1 0 2 1 3 1c3 1 7 3 13 3h5
c0 0 9 -3 14 -6c0 -5 3 -10 3 -10s8 -3 10 -7c3 -5 1 -16 1 -16c-1 -5 -3 -9 -5 -13c0 0 6 -2 6 -8c0 -7 -13 -17 -13 -17c-3 -4 -4 -9 -4 -18c71 15 136 51 189 105c-2 2 -5 5 -7 8c-1 1 -2 1 -2 2c-11 -3 -23 -5 -34 -5c-31 0 -49 14 -59 25l-3 3l-1 5
c-6 37 -33 47 -76 63c-27 9 -52 18 -73 35l-6 5v8c-1 13 -9 26 -25 39l-6 5l-1 8c-1 10 0 19 1 26c1 12 2 23 -2 31l-1 2l-1 2c-9 25 1 49 9 69c3 9 7 17 8 25l3 13l14 2h3c2 1 5 3 8 4c5 11 12 19 19 27c5 6 10 12 12 17l13 19l12 -2l3 2c8 5 17 8 25 10v17
c0 45 2 88 11 127l3 12l11 3c5 2 8 7 12 20c0 3 1 5 2 8l8 12l9 2c15 21 40 34 61 43v10l8 5c25 18 56 28 88 28c58 0 121 -30 165 -76l7 -7l-3 -11c-2 -9 3 -19 8 -29c0 -1 1 -2 1 -3l1 -2v-2c7 -32 1 -56 -14 -75l-8 -8l-12 3c-25 7 -39 30 -50 46c-11 19 -16 28 -25 28
c-1 0 -2 -1 -4 -1l-8 -1l-7 5c-12 8 -25 13 -40 13c-28 0 -50 -14 -61 -36l-4 -9l-9 -2c-19 -5 -32 -32 -30 -52c12 -18 27 -34 45 -50l4 -2c5 -4 13 -6 21 -9s19 -7 29 -14h1v0c11 -9 19 -19 25 -28c10 -12 18 -23 30 -27l7 -2l4 -7c5 -7 7 -14 9 -22c6 -16 11 -25 20 -31
l7 -3l2 -8c3 -11 6 -23 10 -35c10 -39 24 -84 7 -130c-8 -21 -22 -36 -37 -51c-4 -5 -9 -10 -13 -15c2 -2 3 -2 3 -3c4 -6 6 -15 6 -23c0 -2 1 -4 1 -6c7 -24 15 -53 4 -81c-6 -17 -15 -30 -25 -39c-9 -10 -17 -18 -20 -28l-3 -12l-12 -2c-9 -2 -20 -11 -27 -24l-5 -9l-9 -2
c-25 -6 -49 -21 -74 -37c-34 -23 -71 -45 -115 -45v0c-7 0 -14 0 -20 2c-10 -7 -20 -10 -32 -10zM161 265c30 -47 82 -66 137 -85c22 -8 47 -16 69 -27c13 21 25 45 37 77v1c1 1 -4 8 -7 11c-1 2 -2 4 -3 5c-4 5 -7 10 -10 15c-17 24 -35 51 -60 66c-8 -7 -21 -13 -35 -13
c-8 0 -16 1 -21 5c-6 3 -12 5 -17 7c-6 3 -11 6 -15 7l-4 -6l-9 -1c-16 -1 -26 -12 -42 -31c-6 -7 -10 -14 -16 -19c-1 -4 -2 -8 -4 -12z" />
    <glyph glyph-name="currency" unicode="&#xa4;" 
d="M56 87l-6 2c-11 4 -19 9 -25 15c-4 4 -6 8 -8 13c-9 7 -15 16 -19 22c-2 3 -4 7 -5 8l-14 9l8 16c6 13 15 21 25 27c7 6 14 11 16 18c0 0 8 20 11 23c5 1 13 -6 13 -6c2 2 4 3 6 4c1 3 3 7 5 11l1 2l2 2c1 1 2 2 2 3c0 0 1 9 -12 11c0 5 4 12 4 12c3 8 -2 17 -7 30
c-7 19 -15 42 -1 68c-3 21 7 41 15 56c6 9 11 20 12 29c0 0 4 23 8 26c11 3 16 -3 16 -3c4 13 -2 29 -12 51c-8 22 -19 46 -16 70l2 17l15 1h7c26 0 49 -8 70 -24c16 -11 28 -25 38 -43c15 1 24 3 28 10l8 12l14 -5c3 -1 6 -2 10 -2c7 0 16 2 23 4c10 2 21 4 33 4
c8 0 14 -1 22 -3h1l12 5l9 -3c12 -7 20 -10 28 -10c3 0 7 1 10 3c0 0 11 7 16 7c9 -4 8 -15 8 -15c1 0 4 -3 5 -4c1 0 1 0 2 -1c8 7 16 15 24 21c17 16 35 34 57 47c10 8 22 12 36 12c24 0 44 -12 64 -22c4 -2 7 -4 10 -6l12 -7l-2 -15c-3 -14 -11 -27 -18 -37
c-5 -7 -9 -14 -11 -19l-4 -10l-13 -2c-22 -3 -38 -21 -57 -40c-7 -11 -16 -21 -26 -31l5 -6l-4 -6c-2 -8 -3 -19 -4 -30c-8 -63 -16 -132 -67 -180c-1 -2 -2 -4 -3 -7v-1c3 -7 5 -15 6 -21c1 -4 2 -8 4 -9c0 -1 0 -1 1 -1l13 -4l1 -14c2 -22 -5 -42 -19 -58
c-10 -13 -23 -19 -40 -20h-8l-6 5c-5 3 -7 6 -13 10c-13 11 -29 23 -40 38c-1 -1 -4 -2 -9 -3c0 0 -18 -3 -27 -1c1 5 -3 9 -3 9c-2 0 -3 0 -5 1c-14 -5 -31 -6 -49 -6c-20 0 -44 2 -71 10h-4l-8 7c-12 -6 -21 -16 -30 -25c-7 -6 -14 -13 -21 -19c-2 -2 -4 -3 -5 -5
c-14 -14 -25 -22 -40 -25zM188 288v-1c6 -4 11 -9 17 -14c10 -10 18 -17 26 -20l4 9l29 -3l5 -3c15 4 35 14 34 33c0 0 -2 12 2 17c9 -1 20 3 20 3c1 0 4 2 8 7l4 8h12c3 7 4 10 4 11v7l7 6c4 2 7 5 11 7c3 25 5 50 -3 74c0 0 -24 3 -27 14c-1 6 4 13 4 13
c-13 5 -28 9 -42 9h-4l-3 -8l-17 -7l-13 -8l-7 3c-1 -3 -3 -4 -6 -6l-9 -3l-8 2c-1 0 -3 -2 -5 -3c-6 -4 -12 -9 -20 -12c-3 -6 -6 -11 -9 -15c-2 -3 -5 -7 -5 -9c-1 -1 -1 -1 0 -2c0 0 5 -10 4 -13c-2 -4 -13 -9 -13 -9c-11 -8 -12 -21 -13 -47v-9c0 0 2 -6 12 -4
c5 -9 1 -27 1 -27z" />
    <glyph glyph-name="quotesingle" unicode="'" horiz-adv-x="238" 
d="M207 439c-9 0 -17 4 -23 11c-2 3 -4 5 -5 8h-11l-6 10c-31 59 -14 118 2 170c8 26 15 51 17 75l1 16l17 2c4 0 9 1 14 1c34 0 64 -14 96 -29l8 -4l2 -9c3 -14 -1 -25 -4 -34c-1 -2 -3 -7 -3 -9l11 -11l-10 -13c-20 -30 -33 -63 -47 -99c-6 -15 -12 -31 -19 -46
c-3 -6 -6 -11 -10 -15c-1 -1 -3 -3 -3 -4l-1 -11l-10 -5c-5 -2 -10 -4 -16 -4z" />
    <glyph glyph-name="quotedblleft" unicode="&#x201c;" horiz-adv-x="500" 
d="M224 441c-11 0 -21 3 -31 5c-5 2 -11 4 -15 4l-17 2l-1 16c-2 31 -2 64 18 91v1l1 1c5 6 6 10 6 12v4l2 4c10 23 27 45 51 65l3 2l2 1c1 1 3 3 4 5c3 3 7 8 12 12l9 13l14 3l9 12l2 1c8 7 19 12 31 12c10 0 20 -3 27 -9l17 -11l-12 -17c-10 -13 -17 -28 -25 -44
c-8 -17 -17 -35 -29 -52c0 -5 -1 -10 -3 -14c0 -2 0 -4 -1 -5c0 0 2 -5 8 -9c1 -4 -6 -15 -6 -15c-3 -4 -4 -11 -5 -18c-1 -6 -3 -14 -5 -21v0l-1 -1c-5 -11 -14 -18 -20 -22c-2 -2 -5 -4 -6 -5l-1 -8l-7 -5c-9 -7 -19 -10 -31 -10v0zM398 451h-7l-9 1l-5 7c0 1 -2 2 -4 3
c-5 4 -15 11 -17 26c-14 32 -2 63 8 88c4 8 7 16 9 23l1 5l4 4c4 4 7 10 11 15c5 8 10 16 17 23l1 7l11 10c2 4 5 6 6 8l1 1l4 5l7 3l7 8l17 14h7c3 0 6 0 8 -1h2s14 -3 20 0c6 -11 0 -28 0 -28c1 -3 2 -6 2 -11v-4l-1 -3c-1 -2 -2 -3 -2 -5c-3 -8 -7 -17 -14 -26
c-2 -12 -7 -24 -14 -34v-4h1l2 -5l4 -1l2 -2c13 -10 14 -24 14 -32v-6l2 -6l-3 -6c-2 -5 -3 -10 -3 -15v-10l-8 -6c-4 -3 -7 -6 -8 -11l-2 -6l-6 -3c-18 -13 -40 -26 -65 -26v0z" />
    <glyph glyph-name="guillemotleft" unicode="&#xab;" 
d="M178 -41c-36 14 -47 43 -58 70c-7 14 -14 29 -25 39l-5 7v10v7v11c-29 48 -52 102 -44 160v4l2 4c29 41 62 87 107 119c11 26 31 42 47 58c17 16 33 29 38 48l3 9l9 3c11 4 20 13 29 24c5 7 11 15 19 22l4 4l6 1c3 0 7 1 11 1c29 0 52 -21 68 -37c4 -2 7 -5 10 -8l14 -12
l-11 -15c-33 -44 -72 -83 -111 -121c-42 -44 -86 -88 -121 -139c18 -58 50 -109 81 -156l5 -7l-2 -9c-6 -24 -12 -52 -24 -77l-5 -8l-9 -2c-2 0 -4 0 -7 -1c-6 -1 -9 -2 -11 -3l-8 -11zM232 183l-1 3c-6 43 2 77 21 100l3 3l14 7h2c21 45 58 80 93 112c29 27 59 55 78 88
l2 5l5 2c9 5 16 14 25 22c8 10 20 23 36 32l4 2h4h2c24 0 34 -20 40 -31c2 -4 5 -9 7 -9c0 0 13 -1 14 -9c2 -3 -3 -17 -3 -17c-26 -65 -72 -116 -118 -165l-1 -1l-8 -8l-6 1l-1 -1c-2 -5 -5 -11 -9 -16l-2 -2l-1 -2c-8 -7 -17 -13 -27 -18c-3 -3 -7 -9 -10 -15l-12 -21
l-2 -4l-10 -5c-3 -3 -6 -4 -8 -4l-3 -3c1 -6 6 -13 13 -22c3 -3 5 -6 7 -9c12 -14 28 -31 32 -55c5 -3 10 -7 14 -11c3 -5 5 -10 5 -16c13 -10 22 -24 25 -40c3 -29 -11 -60 -33 -76l-4 -3h-6c-12 -1 -21 -2 -29 -7c0 0 -9 -8 -12 -8c-4 1 -12 10 -12 10z" />
    <glyph glyph-name="guilsinglleft" unicode="&#x2039;" horiz-adv-x="333" 
d="M160 5c-1 2 -1 4 -2 5c-1 4 -3 10 -4 16v0s-6 5 -13 3c-3 5 -4 11 -4 11c0 3 -1 6 -1 9c-5 27 -9 43 -24 50l-13 8v5s-1 10 -8 15c2 6 10 9 10 9c0 1 -1 1 -1 1c-2 8 -3 16 -4 23c0 3 0 7 -1 9l-11 2l-4 11c-4 12 -4 24 -3 35c0 12 1 17 -3 22l-6 8l3 10c3 10 7 18 12 22
c3 4 5 6 8 9v7c0 0 -1 11 2 15s13 5 13 5c13 1 22 14 24 27l1 9l8 5c4 2 7 4 10 6c0 7 0 15 4 23l6 9l11 1c6 0 14 6 16 11c0 0 5 21 10 26c7 5 9 -5 9 -5c3 3 6 6 8 9l3 3l6 7l2 7s4 6 9 7c6 0 8 -6 8 -6l3 4l6 6s-4 6 -4 11c7 2 10 6 10 6s0 6 4 9c4 4 22 3 22 3v1
c3 11 10 20 13 25c1 2 3 4 4 5l4 5l6 2c4 1 7 2 11 2c13 0 22 -8 26 -12c2 -1 5 -3 6 -3l9 -3l4 -9c11 -31 -8 -54 -21 -70c-2 -3 -3 -6 -5 -9l-1 -1h-1c-4 -3 -8 -8 -12 -13c-12 -15 -24 -30 -42 -38c0 -2 -1 -5 -2 -8l-2 -6l-4 -3c-34 -30 -63 -68 -89 -103
c-4 -5 -7 -10 -11 -14c1 -5 4 -11 8 -15c6 -11 14 -27 11 -44c2 -1 3 -2 4 -3c3 -3 7 -6 10 -10l9 -8l-1 -1v0l3 -17c0 -3 0 -6 1 -8c4 -28 7 -47 24 -51c0 0 8 -1 10 -3c2 -3 3 -15 3 -15v-2c1 -2 1 -5 1 -8l3 -3l2 -6c2 -14 -2 -29 -12 -41c-6 -11 -18 -17 -31 -19
c-5 -7 -14 -11 -23 -11c-4 0 -9 1 -13 2c-1 0 -2 1 -3 1c0 0 -19 3 -23 9c-4 7 2 17 2 17z" />
    <glyph glyph-name="guilsinglright" unicode="&#x203a;" horiz-adv-x="333" 
d="M51 -36c-3 8 -2 16 -5 15c0 0 -8 -2 -12 0c-2 8 0 15 0 15c-1 1 -4 3 -6 5l-2 1l-10 7l2 13c4 15 14 27 23 38c4 8 10 15 11 22l2 9l11 6l-3 5l14 11c12 11 18 24 26 39c9 15 19 29 32 43c5 6 9 11 14 15c3 2 6 4 8 7v11l4 2s0 7 -2 14c2 6 17 12 17 12c3 1 5 6 9 14
s8 23 22 31c0 15 -5 28 -16 34l-11 6l1 13c1 19 -15 34 -32 50c0 0 -13 15 -12 19s8 6 8 6s-2 9 -11 10c0 4 2 8 2 8l-3 3v0s-10 -2 -17 3c-4 2 -5 16 -5 16c0 4 -3 10 -5 16c-6 16 -13 38 3 61l8 10l12 -2c31 -7 56 -15 76 -28l7 -3l2 -7c4 -12 12 -23 21 -35
c11 -14 25 -33 28 -57c17 -25 24 -52 29 -80c6 -18 10 -37 19 -54l5 -11l-7 -8c-1 -1 -2 -3 -3 -4l-8 -20s4 -13 -3 -19c-4 1 -11 0 -11 0l-11 -7s-3 -4 0 -7c-5 0 -6 -5 -6 -5c-8 -34 -32 -60 -54 -81c-7 -8 -14 -15 -21 -23l-1 -2s0 -15 -4 -24c-7 -1 -11 -6 -11 -6
c-4 -8 -10 -16 -15 -23c-6 -8 -11 -14 -15 -21l-10 -23c-7 -17 -17 -30 -30 -43l-12 -11s-24 24 -42 14z" />
    <glyph glyph-name="endash" unicode="&#x2013;" 
d="M159 204c-8 -1 -19 -2 -31 -2c-11 0 -21 1 -35 2c-44 3 -78 8 -107 17c0 0 -18 5 -18 11c-1 6 7 17 7 17c9 15 20 34 36 44c1 2 3 3 4 4s2 3 3 3c0 0 2 11 6 13c3 2 15 1 15 1h2c5 0 10 1 16 4l6 3l8 -2c4 -2 9 -2 17 -2h9h9h14l1 -4c9 2 16 2 22 2c8 0 13 0 20 -1
c6 -1 12 -1 18 -1h3l12 1l4 -1l17 5l8 -7c8 4 17 7 26 8c0 0 8 1 13 1c-1 -6 4 -11 4 -11h3c0 0 9 -3 10 -3c0 0 1 2 1 4c3 1 13 -1 13 -1c3 -1 5 -1 8 -1c8 -1 15 -2 23 -2c6 0 11 0 16 2c0 0 7 4 13 4c7 -1 6 -8 6 -8c5 2 9 5 13 8c0 0 7 6 12 6c4 1 11 -6 11 -6
c1 -1 4 -2 7 -2c4 0 10 2 14 5l10 7l11 -5c1 -1 4 -1 5 -2c4 -1 12 -2 18 -6c1 -1 2 -1 3 -2h1c7 5 16 9 26 12l6 4l3 -3c11 5 21 7 30 9c6 1 11 2 14 4c0 0 11 6 21 4c13 -7 8 -20 8 -20l11 -9l-9 -15c-1 -2 0 -4 0 -6l3 -12l-9 -8c-2 -2 0 -5 0 -5c-5 -15 -16 -29 -26 -40
l-4 -4l-4 -1c-7 -2 -13 -5 -18 -7l-6 -4l-6 1h-8c-9 0 -21 -2 -34 -4s-25 -4 -40 -4h-8h-1h-1c-10 2 -18 2 -30 2c-13 0 -25 0 -37 -1c-13 -1 -27 -2 -41 -2c-19 0 -37 2 -54 7c-8 -4 -18 -4 -25 -4h-15c-4 1 -8 1 -10 1c-7 0 -12 -1 -16 -3c0 0 -11 -5 -20 -4
c-6 2 -7 9 -7 9z" />
    <glyph glyph-name="dagger" unicode="&#x2020;" 
d="M179 -188v1s-7 -6 -15 -1c-3 3 -7 16 -7 16c-17 54 4 106 22 152c3 10 5 19 8 27c-3 22 1 46 17 62c-1 4 -3 8 -4 12l-4 8l4 8c17 37 23 76 30 118c5 38 12 80 28 119c-4 13 -3 28 -2 41c-8 -1 -17 -1 -25 -1c-16 0 -39 2 -57 17h-7c-13 0 -22 4 -27 14c-2 1 -4 3 -7 4
c-4 2 -10 5 -16 9l-3 2l-2 3c-10 15 -12 29 -13 43c-1 4 -1 9 -2 12c0 0 -3 15 0 19c6 7 20 3 20 3c6 0 12 4 15 7l5 6l9 -1c8 -1 21 -2 31 -10h3c8 2 19 5 30 5c9 0 17 -2 23 -5c16 8 34 9 49 9c3 4 5 11 7 20c1 5 3 10 5 15c-7 20 -4 41 9 57c-1 3 -1 6 -1 8
c-1 20 -3 42 5 64c-5 8 -7 18 -5 33c3 13 8 23 13 32l4 10l9 2c3 0 6 1 10 1c21 0 36 -11 48 -19c8 -6 16 -10 23 -12l14 -4v-16c0 -5 0 -10 -1 -15c-1 -49 -3 -100 -21 -148c3 -8 3 -17 2 -24l14 -2c7 -1 11 -3 17 -5c5 -2 10 -3 14 -3h1c8 4 17 9 27 9c29 3 56 6 86 6
c0 0 12 0 16 -3c2 -6 2 -18 2 -18c0 -6 6 -11 13 -12c0 0 10 -5 14 -8c1 -5 -2 -17 -2 -17c-1 -3 0 -7 2 -12c2 -8 5 -20 0 -34l-3 -7l-6 -3c-10 -7 -26 -14 -42 -14c-3 0 -6 0 -8 1c-2 -3 -7 -5 -7 -5l-12 1c-18 2 -38 2 -56 2c-31 0 -61 -2 -91 -8c-2 -8 -3 -17 -4 -27
c-1 -13 -1 -29 -9 -45c0 0 -1 -7 4 -13c-3 -8 -10 -11 -10 -11l-2 -15l-5 -4l5 -3s1 -17 -1 -19c-1 -4 -9 -11 -9 -11c3 -16 -1 -32 -4 -44c-2 -13 -5 -26 -3 -37c0 0 1 -8 0 -12c-2 -4 -10 -8 -10 -8c-10 -6 -6 -26 -5 -36l1 -2v-3c0 -3 0 -6 -1 -9v-3v-6l-1 -5
c-12 -18 -18 -39 -24 -62c-4 -11 -7 -23 -12 -36c0 0 7 -1 11 -7c-1 -6 -8 -18 -8 -18l-12 -31l-1 -2c-3 -5 -4 -9 -7 -11c4 -19 0 -37 -4 -52c-2 -11 -4 -22 -4 -31c0 0 0 -14 -4 -16c-4 -4 -17 -3 -17 -3h-4c-10 0 -21 -3 -33 -6c-3 0 -5 -1 -7 -2c0 0 -17 -5 -20 -1
c-3 5 -3 20 -3 20z" />
    <glyph glyph-name="daggerdbl" unicode="&#x2021;" 
d="M183 -196c-8 0 -15 2 -20 4c-2 1 -3 2 -4 2l-10 3l-3 8c-16 51 -3 102 11 147l-6 -3l-9 1l-4 -4l-8 5c-2 1 -4 2 -7 2c-4 0 -9 -1 -14 -2c-7 -2 -15 -3 -21 -3h-6h-3l-17 7v1v0h-9s-3 1 -4 1c0 0 -3 -11 -12 -9c-7 3 -15 12 -15 12c-1 2 -3 3 -4 5c-5 7 -13 18 -15 30
c0 0 -5 3 -7 7c0 14 6 21 6 21c-1 0 -1 1 -1 1l-4 9l4 7c2 3 4 6 6 8c0 0 -4 19 3 26c9 1 20 -1 20 -1c18 -4 41 -7 62 -7c12 0 23 1 33 3l2 1l10 6l20 4l3 -2c5 3 10 6 18 9l4 1h4v0h2h3c12 41 16 82 19 125c2 21 4 45 7 67l1 8l11 8c-1 12 3 22 6 32c2 11 2 15 1 18l-8 10
l6 11c2 7 4 13 7 20c-4 1 -6 2 -11 2c-6 0 -12 -1 -19 -2c-7 0 -14 -1 -22 -1c-11 0 -22 2 -32 6c-5 -1 -11 -1 -17 -1c-31 0 -59 15 -77 38l-8 11s8 15 -2 18c0 12 13 15 13 15c3 3 5 9 7 16l4 10l9 4c3 1 6 2 9 2c5 0 10 -1 13 -3c0 0 6 4 8 13c9 0 20 -11 20 -11
c1 -1 2 -2 5 -2s6 0 10 1c0 0 18 3 23 1c6 -2 3 -15 3 -15l7 -1c8 7 20 9 29 10c0 0 20 4 22 3s1 -5 1 -5l7 -3l11 11l8 2l2 10l8 8c5 16 6 34 8 51c2 22 4 43 9 65c1 14 3 32 16 48c-1 1 -1 2 -1 3c-1 5 -2 10 -2 16c0 0 0 15 4 18c3 3 20 0 20 0c25 -5 50 -22 61 -46
c9 -15 12 -32 8 -49c6 -14 1 -28 -5 -39l1 -3l-1 -16l-2 -14l-4 -6l1 -10l-5 -18l-5 -4v-3c0 0 6 3 9 2c4 0 8 -3 8 -3l21 1l2 -1c8 8 17 12 29 12c8 0 15 -1 22 -4l2 5l15 -4h3c6 0 15 -2 23 -7c8 2 16 2 21 2c9 1 16 1 22 4l11 4l9 -5c3 -3 6 -4 7 -7c2 -1 4 -3 6 -4
c0 0 10 4 14 1s7 -15 7 -15c1 -2 1 -3 1 -5l5 1l9 -33v-3c0 -9 -2 -16 -7 -22c0 0 4 -1 3 -6c-1 -2 -21 -13 -21 -13c-12 -9 -23 -13 -38 -13v0c-13 0 -24 3 -34 5c-6 2 -13 3 -19 4c-31 -11 -65 -12 -95 -14c-20 0 -36 -1 -54 -3l-2 -1l-5 -9l-2 -2c-1 -8 -4 -15 -6 -21
c-1 -4 -3 -9 -3 -11v0l10 -11l-6 -12c-13 -27 -18 -58 -12 -86l1 -5l-2 -5c-3 -7 -3 -12 -2 -14c0 0 3 -4 3 -10c-8 -3 -8 -11 -8 -11l6 -7l-4 -9l-3 -6c0 -2 -2 -5 -2 -7l1 -2l1 -4c1 -10 -2 -20 -4 -28c-3 -9 -3 -10 -1 -11c0 0 8 -3 9 -12c-4 -5 -3 -11 -3 -11
c4 1 7 1 11 1c14 1 29 2 41 9l2 2l3 1c4 2 11 3 19 3c6 0 13 -1 19 -1c5 -1 9 -1 13 -1s7 0 10 2c0 0 8 6 13 5c6 -1 18 -18 18 -18l1 -1c2 -4 5 -12 5 -12v-3l1 -1c2 -5 3 -12 3 -20l10 -3l-3 -18c-1 -1 -1 -3 -1 -4c0 0 11 -3 10 -13c-2 -3 -18 -14 -18 -14
c-2 -1 -3 -2 -5 -4c-9 -5 -19 -12 -32 -12c-3 0 -6 1 -9 2l-7 -12l-9 4s0 -8 -7 -12c-11 10 -16 5 -16 5s-4 -2 -4 -7c-8 -5 -32 3 -32 3l-3 1c-1 1 -2 1 -4 1c-3 0 -7 -1 -12 -2s-9 -2 -16 -2c-4 0 -8 0 -11 1c-6 -3 -11 -6 -16 -7c0 0 6 -4 7 -8c-18 -10 -21 -18 -21 -18
c-1 -1 -2 -5 -3 -7c-1 -4 -3 -10 -7 -16v-9c-1 -19 -4 -32 -8 -47c0 0 -2 -11 -5 -14c-3 -2 -11 -2 -11 -2c-1 -7 -4 -14 -7 -18c-1 -4 -3 -8 -4 -10c1 0 10 -11 9 -25c-20 -4 -39 -17 -39 -17s-7 5 -11 5c-4 1 -13 0 -13 0z" />
    <glyph glyph-name="periodcentered" unicode="&#xb7;" horiz-adv-x="278" 
d="M160 249c-25 5 -46 22 -56 47c-12 28 -10 60 6 85l1 2l2 1c5 5 10 9 16 13c7 5 13 10 16 15l6 11l13 -1c4 -1 8 -1 12 -1c23 -3 49 -5 72 -22l5 -4l2 -6c11 -35 -6 -65 -20 -90l-9 -18l-6 -12l-14 1c-2 0 -7 -4 -9 -6c-7 -6 -17 -14 -32 -15h-2h-3z" />
    <glyph glyph-name="paragraph" unicode="&#xb6;" 
d="M369 -205c-3 4 -5 9 -7 13c-6 9 -11 17 -17 24l-7 5l1 8c3 36 6 71 9 104c7 67 13 135 13 203v0c-24 -4 -45 -8 -66 -16v-7c0 -13 0 -30 -10 -45c1 -1 1 -2 1 -2l9 -11l-4 -13c-12 -22 -15 -47 -18 -75c-4 -42 -9 -89 -51 -121l-5 -5l-9 1c-44 9 -71 29 -78 59l-1 5l2 5
c20 61 32 128 35 196c-23 5 -42 11 -59 24c-21 15 -36 33 -49 57c-35 64 -35 154 -4 222c-3 6 -4 12 -4 19v7l5 7c4 4 12 12 11 15l-3 11l7 8c7 10 15 21 25 31c22 28 44 56 71 81c29 26 58 44 92 53l8 6l2 1c15 4 18 7 20 9l4 5l7 1c22 3 46 8 68 13c31 6 61 12 94 15
c6 6 16 8 27 8c19 0 36 -9 49 -18h5c36 0 69 -11 91 -32l1 -1l1 -1c12 -12 19 -28 22 -45s2 -35 -5 -50c0 0 -5 -10 -7 -11c-1 -1 -13 0 -13 0c-13 1 -21 7 -26 11c0 1 -2 3 -3 3c-10 4 -16 5 -21 6c-3 0 -6 1 -9 1c-12 2 -25 3 -38 3c-4 0 -7 1 -11 1
c-12 -6 -15 -22 -19 -47c0 -4 -1 -7 -1 -11c-2 -19 -3 -37 -3 -54c0 -15 -1 -30 -2 -45l-6 -78c-5 -68 -5 -135 -6 -202c0 -106 -1 -215 -20 -322l-3 -19l-17 2h-3c-5 0 -8 -1 -9 -2l-6 -8h-10c-4 0 -7 1 -10 2c-5 -4 -10 -7 -15 -10c0 0 -10 -4 -15 -4c-4 1 -10 10 -10 10z
M341 471c4 -45 -7 -87 -18 -128c-6 -30 -13 -60 -14 -88c2 0 4 0 6 1c12 1 25 3 38 5c15 16 17 46 17 76c0 42 8 83 16 123c2 18 2 37 1 58c-1 12 -1 26 -1 40c-5 3 -9 5 -12 10c-6 0 -9 -1 -14 -2c-10 -6 -10 -16 -9 -39c0 -16 1 -37 -10 -56zM212 471
c-25 -27 -43 -55 -56 -84c-23 -50 -23 -93 1 -129c5 1 10 1 15 1h18c7 23 9 51 7 77c-2 19 4 35 8 49c5 16 9 30 5 41l-4 13l11 9s1 3 0 7l-1 9l6 17z" />
    <glyph glyph-name="bullet" unicode="&#x2022;" horiz-adv-x="350" 
d="M117 204c-8 3 -10 -2 -20 2c0 16 -13 14 -13 14l-4 2c-15 11 -23 28 -22 48c0 14 5 29 10 43c4 11 7 19 8 27v5l3 4c6 8 7 20 4 29l-3 10l7 9c3 4 4 7 4 9l1 7l13 12v1l-1 14l20 14l2 7l51 26s10 6 15 7c3 1 13 -4 13 -4c13 8 27 9 38 10c8 1 16 2 21 5c0 0 7 6 13 5
c11 0 25 -12 25 -12l1 -11c12 -2 23 -8 33 -13c5 -2 9 -4 13 -5l13 -8v-16c-1 -5 2 -13 4 -20c3 -8 7 -18 6 -29c0 -5 -1 -11 -3 -16l11 -11l-5 -14c-6 -8 -11 -19 -16 -28c-12 -26 -25 -57 -61 -69c-29 -36 -75 -45 -115 -53c-14 -3 -27 -6 -38 -9c0 0 -8 -3 -11 -2
c-9 2 -9 8 -17 10z" />
    <glyph glyph-name="quotesinglbase" unicode="&#x201a;" horiz-adv-x="278" 
d="M51 -159c-9 0 -17 3 -26 8c0 0 -14 9 -14 14s10 15 10 15c21 26 34 57 43 90c-4 3 -7 4 -11 4c0 0 -11 1 -12 3c-1 4 -4 9 -4 9c-16 39 -8 86 18 116l1 2l2 1c6 5 12 9 19 13l9 6l1 1h1c1 1 3 2 4 3c21 12 42 26 70 26h6l5 -3c17 -12 28 -29 30 -51c2 -18 -2 -35 -5 -51
c-1 -8 -3 -16 -3 -23v-2l-1 -1c-4 -12 -10 -21 -15 -30c-2 -4 -5 -8 -7 -12c-2 -12 -7 -26 -14 -40l-1 -1v-1c-6 -10 -14 -16 -22 -22l-6 -6c-2 -3 -4 -7 -5 -12c-2 -6 -5 -12 -9 -19l-2 -2l-2 -2c-1 0 -3 -2 -4 -3c-14 -12 -32 -30 -56 -30v0z" />
    <glyph glyph-name="quotedblbase" unicode="&#x201e;" horiz-adv-x="500" 
d="M272 -159c-9 0 -17 3 -26 8c0 0 -14 9 -14 14s10 15 10 15c21 26 34 57 43 90c-4 3 -7 4 -11 4c0 0 -11 1 -12 3c-1 4 -4 9 -4 9c-16 39 -8 86 18 116l1 2l2 1c6 5 12 9 19 13l9 6l1 1h1c1 1 3 2 4 3c21 12 42 26 70 26h6l5 -3c17 -12 28 -29 30 -51c2 -18 -2 -35 -5 -51
c-1 -8 -3 -16 -3 -23v-2l-1 -1c-4 -12 -10 -21 -15 -30c-2 -4 -5 -8 -7 -12c-2 -12 -7 -26 -14 -40l-1 -1v-1c-6 -10 -14 -16 -22 -22l-6 -6c-2 -3 -4 -7 -5 -12c-2 -6 -5 -12 -9 -19l-2 -2l-2 -2c-1 0 -3 -2 -4 -3c-14 -12 -32 -30 -56 -30v0zM42 -145c-7 8 -11 17 -9 28
c1 6 4 12 6 16c0 0 -4 5 -5 13c2 7 10 13 10 13c18 15 30 37 33 61l-5 5l-12 13l1 29c-4 22 3 46 19 65c18 22 48 37 76 37c4 0 8 -1 12 -1l10 -2l4 -8c2 -1 4 -1 5 -1c5 -2 12 -3 18 -7c0 0 8 -5 12 -9c-5 -6 -2 -12 -2 -12l4 -1l1 -12c2 -27 -8 -51 -17 -73
c-4 -8 -7 -16 -10 -24c-8 -46 -43 -74 -74 -98c-8 -6 -15 -11 -22 -17l-12 -11l-34 -12z" />
    <glyph glyph-name="quotedblright" unicode="&#x201d;" horiz-adv-x="500" 
d="M367 434c-6 0 -13 2 -19 6c0 0 -12 6 -12 10c-1 4 3 15 3 15c4 9 10 17 15 25c4 7 8 13 10 19c-1 19 8 33 16 45c3 5 6 10 8 15l-7 11l-2 19l4 13c5 24 15 43 31 59l1 2l2 1c9 6 19 13 28 20c0 0 10 8 14 9c11 -1 17 -9 17 -9c9 2 18 4 28 5l9 1l6 -6
c12 -10 25 -29 20 -59c-3 -18 -11 -35 -19 -50c-2 -3 -3 -7 -5 -10l-1 -2l-1 -2c-5 -6 -9 -13 -13 -21c-12 -20 -26 -42 -50 -55c-5 -12 -15 -18 -22 -23c-3 -2 -8 -5 -9 -6l-2 -9l-9 -4c-2 -1 -5 -3 -8 -5c-8 -6 -19 -14 -33 -14zM175 458c-12 16 -3 32 1 39v0s-7 3 -4 11
c2 6 10 12 10 12c8 7 12 19 17 32c1 4 3 8 5 13c-4 7 -7 15 -7 23c-1 10 2 20 7 27c0 20 8 39 22 55c18 20 44 32 70 32c4 0 8 -1 12 -1l9 -2l4 -7c2 0 4 -1 5 -1c5 -1 11 -2 17 -6c0 0 8 -5 11 -10c0 -7 -4 -16 -4 -16c-1 -1 -1 -2 -2 -3c0 -1 -1 -2 -1 -3
c7 -14 3 -27 1 -37c-1 -3 -2 -7 -1 -9l1 -10l-6 -7c-5 -4 -8 -11 -12 -18c-3 -6 -6 -12 -9 -17l-2 -2l-1 -2c-3 -2 -6 -5 -9 -8c-9 -8 -18 -18 -30 -25c-7 -14 -18 -24 -28 -32c-6 -5 -12 -10 -16 -16l-1 -1l-1 -1c-8 -8 -17 -11 -24 -13c-3 -1 -6 -2 -7 -3
c0 0 -9 -6 -13 -5c-9 2 -14 11 -14 11z" />
    <glyph glyph-name="guillemotright" unicode="&#xbb;" 
d="M207 82c22 21 33 34 35 38c3 0 7 2 12 6l5 4l2 6c8 23 32 37 44 43l11 5l1 12c0 5 4 10 9 17c7 12 16 26 15 43c0 0 -2 16 -5 18s-9 1 -9 1c1 28 -10 59 -33 90c-1 34 -6 74 -31 105c-4 35 -31 73 -69 73c-3 0 -5 0 -8 -1c-7 5 -18 10 -32 10c-5 0 -10 -1 -18 -2l-16 -4
v-15c1 -40 16 -76 29 -109c13 -34 27 -67 26 -102v-6l4 -6c12 -15 18 -36 18 -57c-21 -18 -41 -39 -58 -58c-30 -32 -59 -63 -91 -88l-4 -2l-2 -5c-4 -9 -12 -17 -21 -25c-14 -13 -27 -26 -32 -49c0 0 -2 -14 3 -19c4 -5 16 -3 16 -3v0c3 0 4 -1 11 -12c5 -6 10 -14 17 -21
l8 -5l7 1c11 2 20 7 29 11c6 3 13 6 18 7c0 0 14 4 17 6c6 6 -1 10 -1 10c14 7 25 17 33 27s16 18 26 22l7 3l3 5c6 9 14 16 24 26zM544 248c8 -25 4 -43 -2 -52c-4 -9 -10 -17 -20 -22c-2 -8 -6 -15 -11 -20l-4 -5l-8 -1c-10 -2 -16 -10 -27 -25c-4 -4 -7 -9 -11 -13l-6 -6
h-10v0c-15 0 -31 -23 -41 -43l-6 -11l-11 1h-2c-9 0 -15 -7 -26 -23c-9 -14 -17 -27 -35 -35l-4 -20l-13 -3c-3 0 -6 -1 -10 -3c-7 -2 -16 -5 -27 -5h-5l-25 2l3 9h-4l-11 2l-5 11c-12 28 -7 65 12 94c19 26 38 31 39 31c8 8 16 16 22 25c16 16 31 32 50 46c1 1 3 2 5 3
c3 2 9 6 11 8l-1 4l3 5c9 20 26 35 45 47v7c2 7 4 13 9 17c-3 42 -27 76 -53 115c-17 22 -33 48 -45 74c-14 32 -18 63 -12 94c0 0 2 11 5 14c4 4 17 2 17 2v0v0l2 2l6 13l13 -1c67 -10 90 -63 111 -110c12 -26 24 -50 39 -67l7 -7l-2 -15v-5c10 -15 11 -33 12 -46
c1 -21 2 -27 10 -31c0 0 8 -5 10 -7c1 -4 -1 -14 -1 -14c-1 -7 1 -16 4 -26c1 -4 2 -8 3 -10z" />
    <glyph glyph-name="ellipsis" unicode="&#x2026;" horiz-adv-x="1000" 
d="M131 -33c-15 0 -28 5 -39 14c0 0 -8 9 -7 14c0 7 5 13 5 13c6 7 8 17 11 29c2 10 4 21 10 33c0 0 2 5 6 8c4 4 12 3 12 3c19 39 63 57 94 68c0 0 14 4 21 2c12 -6 5 -22 5 -22c4 -3 8 -6 12 -10c8 -10 11 -22 10 -34v-1l-1 -1c-7 -32 -16 -50 -27 -70l-4 -7l-7 -2
c-3 -1 -6 -3 -10 -5c-5 -3 -12 -6 -19 -8c-3 -5 -8 -11 -17 -14l-2 -1h-1c-5 -1 -11 -2 -18 -4c-10 -2 -23 -5 -34 -5zM493 -7c-2 0 -6 -2 -10 -3c-6 -3 -15 -7 -25 -7h-7l-6 5c-1 0 -2 1 -2 2c-8 5 -17 13 -24 33l-2 7l2 6c4 12 10 22 17 31c2 19 15 31 25 41
c5 5 11 11 13 15l2 5l4 4c14 9 30 9 43 11c11 0 18 1 23 6c0 0 10 8 14 8c5 0 14 -11 14 -11c11 -13 17 -30 16 -47c-1 -12 -5 -24 -12 -34l3 -8l-6 -9c-8 -11 -18 -25 -45 -39v0c-4 -2 -6 -5 -8 -9c0 0 -5 -7 -12 -10c-7 4 -17 3 -17 3zM784 -10c-13 0 -21 5 -26 10
c-2 1 -3 2 -5 3c0 0 -12 10 -12 15s8 15 8 15c1 2 2 3 2 3l-3 9l5 6c0 1 -1 3 -2 6v1v0c-4 14 2 26 5 34l2 2l1 1c12 18 31 29 47 39c12 7 23 14 31 23c0 0 8 10 14 11c5 1 14 -9 14 -9c2 -2 8 -2 14 -3c7 -1 15 -1 23 -4c0 0 16 -6 17 -10c1 -3 -7 -18 -7 -18
c-4 -8 -6 -20 -7 -32c-2 -17 -4 -37 -18 -55l-3 -2l-3 -2c-12 -8 -26 -13 -39 -18c-16 -6 -31 -12 -43 -21l-3 -3l-5 -1h-7v0z" />
    <glyph glyph-name="perthousand" unicode="&#x2030;" horiz-adv-x="1000" 
d="M108 -68h-4c0 0 -18 1 -27 8c8 12 11 23 11 23c1 4 1 8 -3 19c-2 8 -6 18 -6 29v9l7 6c18 15 30 35 42 56c14 23 28 46 50 65c1 1 1 2 2 3c17 32 37 72 78 88c31 49 67 99 119 133c15 40 50 66 81 89c17 29 43 54 81 76c2 4 4 7 5 9c1 0 1 1 1 1l1 1v1c1 1 2 3 3 5
c8 13 18 29 37 37c15 14 30 30 45 46c24 26 49 52 78 75c0 0 8 7 13 6c5 0 14 -9 14 -9c1 -1 4 -2 6 -2c7 -3 21 -8 27 -24c5 -15 -2 -26 -12 -42l-1 -1l-4 -4l-1 -13l-8 -5c-26 -18 -39 -35 -44 -53c0 0 -2 -11 -7 -13c-4 -3 -14 -2 -14 -2h-1c-2 0 -3 -1 -4 -1
c0 0 -4 -3 -5 -13c-3 -3 -15 -2 -15 -2v0v0c-2 -1 -5 -7 -7 -11c-6 -9 -14 -23 -29 -29c-12 -21 -31 -37 -48 -52c-21 -18 -39 -33 -45 -55l-3 -11l-11 -3c-5 -2 -11 -9 -11 -15l-1 -11l-9 -5c-4 -3 -9 -5 -13 -6c-1 -3 -2 -5 -2 -7v-10l-8 -6c-35 -25 -64 -61 -91 -95
c-3 -5 -7 -9 -10 -14l-7 -8l-9 1c0 -1 -1 -2 -2 -3c-3 -2 -7 -6 -12 -9c-12 -23 -28 -42 -43 -61c-18 -21 -34 -41 -43 -65l-5 -14s-2 -8 -1 -13c-1 -4 -17 -5 -17 -5c-1 -2 -3 -5 -4 -7c-12 -18 -26 -39 -43 -56c-21 -21 -45 -31 -71 -31v0zM730 -20c-5 0 -17 0 -28 8
c-13 2 -21 11 -26 17c-2 2 -3 4 -4 5c0 0 -9 7 -10 11c0 3 3 11 3 11c3 10 2 16 1 18c0 0 -9 8 -10 11c0 4 6 14 6 14l3 6l-1 1v3c-2 17 3 33 7 47c0 2 1 5 2 7c-3 -3 -5 -6 -9 -8c-5 -20 -13 -34 -23 -46h-1v0l-3 -3c-7 -7 -14 -14 -17 -21v-1l-1 -1
c-6 -10 -14 -17 -21 -24c-5 -4 -9 -7 -12 -11l-2 -4l-22 -13l-4 -1c-6 -1 -13 -4 -20 -8c-12 -7 -25 -14 -41 -14v0c-9 0 -18 3 -27 8l-11 4s3 5 1 10c-9 4 -22 0 -22 0l-3 17c-1 8 -3 16 -5 26c-7 29 -16 66 2 97c0 0 -6 -1 -6 7c1 2 10 14 10 14c2 2 3 8 4 13
c2 11 5 25 16 35c3 20 16 33 27 45c9 9 16 17 17 26c0 0 1 10 3 14c5 8 14 4 14 4c1 0 3 3 5 5c6 6 13 14 26 17c2 1 5 1 7 1h3v0c0 1 1 2 1 2l5 6l8 2c6 1 12 2 19 4c13 4 26 7 40 7c8 0 15 -1 22 -3c0 0 14 -5 23 -9c0 -7 -4 -9 -4 -9c3 -1 3 -1 6 -3l4 -2l3 -4
c6 -10 7 -21 6 -30c0 0 13 -6 14 -10c2 -3 -5 -16 -5 -16c0 -1 0 -4 1 -5v-5v-3s3 -15 3 -18c-1 -3 -6 -11 -6 -11v-9c2 5 5 10 7 14c1 14 7 26 13 35c2 5 5 9 6 12l3 8l8 3c1 1 3 2 4 3c3 2 6 5 9 7l4 11c5 13 15 23 29 28c9 3 17 4 26 4c10 17 30 27 48 30l11 1l7 -8
c1 -1 4 -2 6 -3c1 0 2 0 3 -1c7 3 14 4 22 4c24 0 48 -13 62 -35l3 -5v-6v-1c1 -2 1 -5 1 -8v-3l-1 -2c0 -1 1 -1 1 -2l2 -3l1 -3c1 -6 0 -12 0 -17c0 0 8 6 14 -4c0 -4 -6 -22 -6 -22c-2 -4 -3 -8 -4 -12c-4 -12 -7 -24 -15 -36c0 -6 -2 -12 -3 -15l3 -5l-5 -10
c-31 -71 -91 -116 -149 -159l-8 -6l-9 1h-1c-2 0 -7 -4 -11 -7c-7 -5 -15 -12 -25 -15h-1l-15 -4h-2h-3h-3zM764 141l2 -12v-4c-3 -13 -4 -26 -6 -40l11 5c9 6 17 11 25 16c10 19 26 35 48 45c4 11 11 24 24 32c3 5 6 9 8 20l1 11l1 4c-3 12 3 24 6 31c1 1 2 2 2 3s0 2 -1 2
c0 2 -1 3 -2 5c-5 1 -10 2 -16 2c-3 1 -7 1 -10 2c-7 -5 -16 -8 -27 -10l-6 -2c-7 -9 -15 -17 -21 -25l7 -10l-9 -12l-11 -11c-1 0 -1 -1 -2 -1c-2 -5 -5 -9 -7 -14c-7 -12 -13 -24 -17 -37zM546 196c-17 -34 -33 -72 -23 -105c3 1 6 3 9 5c41 27 69 69 78 118l-6 13h-1v2v0
v1l-2 20h-4c-3 0 -5 0 -7 -1s-5 -6 -8 -10c-5 -7 -10 -17 -21 -24c-3 -7 -8 -13 -15 -19zM190 360l-3 3c-3 2 -6 4 -9 7l-6 3c-18 9 -32 31 -32 53c0 3 0 7 1 10c-13 16 -11 33 -9 44c0 4 1 7 1 9v10l8 6c3 2 3 3 2 16c0 9 -1 20 3 32l1 3l2 2c3 3 5 6 7 8s6 6 7 8
c0 0 -3 8 -3 14c7 3 10 8 10 8v1c4 18 12 33 23 44l6 5h2l1 2l5 4c2 1 5 6 7 9c1 2 3 5 5 8c14 20 36 22 51 23c11 1 18 2 22 6c0 0 8 8 12 9c3 0 13 -8 13 -8c3 -2 7 -4 12 -4c4 0 8 1 11 3c0 0 14 7 17 6s10 -15 10 -15c0 -1 1 -2 6 -5l4 -2l2 -3c1 -1 1 -2 2 -3l1 -1
s8 -3 19 -2c5 -5 3 -24 3 -24c-1 -4 0 -9 2 -11c18 -9 20 -28 21 -39c0 -3 0 -7 1 -8l4 -8l-3 -8c-1 -1 -1 -2 -1 -3c-3 -8 -7 -17 -12 -26c0 0 6 -3 7 -11c0 -2 -9 -13 -9 -13c-7 -8 -11 -18 -16 -29c-2 -5 -5 -11 -8 -17l-2 -3l-2 -2c-3 -3 -7 -5 -10 -7
c-7 -17 -21 -27 -33 -36c-10 -7 -18 -13 -21 -21l-3 -7l-7 -4c-5 -2 -10 -6 -16 -10c-17 -10 -36 -22 -59 -23h-5l-3 1c-3 0 -8 -3 -10 -4c-3 -1 -6 -2 -9 -4c0 0 -8 -2 -10 -2s-10 6 -10 6zM265 587v-5l-3 -6c-12 -17 -44 -72 -30 -124c3 1 5 2 8 2c7 8 16 14 23 18
c2 1 4 2 5 3l10 6l4 -2c1 4 2 9 5 15c4 7 9 12 14 19c5 5 11 11 15 17c1 3 3 6 5 9c5 9 10 18 11 26l1 3l-2 5c-2 6 -4 13 -5 21c-7 3 -13 6 -20 11c-4 -1 -8 -4 -12 -7l-6 -5h-16c-1 -1 -2 -1 -2 -2c-2 -1 -4 -3 -5 -4z" />
    <glyph glyph-name="questiondown" unicode="&#xbf;" horiz-adv-x="611" 
d="M227 -239c-2 0 -5 -1 -8 -2l-14 -7l-8 12v1h-1c-1 -1 -2 -2 -3 -2c0 0 -10 -5 -21 -3c-3 10 -9 17 -9 17l-12 2s-9 4 -22 5c-6 8 -2 19 -2 19c-8 7 -14 16 -20 23c-6 8 -10 15 -16 17c0 0 -16 4 -17 7c0 3 4 18 4 18c-1 1 -2 1 -4 2c0 0 -9 2 -11 5c-3 3 -4 13 -4 13
c0 7 -3 17 -7 27c-6 15 -16 36 -7 60c-7 62 24 118 53 154l6 10l6 -1v0c5 6 10 10 15 14c2 1 4 3 5 4c0 0 9 7 14 8c6 3 9 -4 9 -4c24 17 47 32 72 46c13 7 23 13 35 20h1v1c10 4 19 5 25 5h7h4c2 0 5 0 6 1h1l1 1c11 4 14 20 15 41l-13 10l7 14c2 5 3 12 3 20v8l10 10l16 9
h3c25 0 43 -14 55 -26l15 -9l11 -6l-1 -12c-1 -8 3 -19 7 -28c4 -13 8 -26 8 -40c0 -15 -6 -29 -19 -41c-11 -20 -28 -32 -44 -44c-11 -7 -21 -13 -28 -20l-4 -5l-5 -2c-84 -16 -147 -61 -174 -123c-13 -38 11 -76 34 -109h2c79 0 152 59 176 138c2 5 -10 7 -15 19
c-1 15 16 22 16 22v0c1 0 2 4 3 7c3 6 6 13 12 21c0 0 7 7 14 6c6 0 13 -6 13 -6c11 -9 27 -11 42 -12l17 -1l5 -7s5 -10 16 -6c2 -11 -6 -20 -6 -20l2 -2l11 -11l-8 -11c-1 -3 -3 -5 -4 -6l10 -3l-2 -17c-1 -10 -4 -17 -7 -25c-4 -11 -5 -18 -5 -24l4 -13l-10 -7
c-4 -2 -7 -4 -11 -6c-3 -19 -17 -35 -33 -41c-14 -30 -37 -51 -62 -63l2 -11l-12 -7c-20 -11 -39 -16 -60 -19c-20 -5 -40 -9 -55 -21c0 0 -8 -9 -19 -7c-2 12 -10 13 -10 13zM354 377c-3 6 -12 7 -16 7h-19l-1 19v4c-1 14 -2 24 -9 30l-12 12l9 13c3 3 5 7 8 11
c16 26 32 53 63 69l13 6l8 -10s1 0 1 -1v0c4 1 8 2 13 2c17 0 32 -9 43 -23c10 -10 17 -26 18 -43c3 -30 -12 -56 -37 -63c-11 -15 -32 -42 -63 -43h-13z" />
    <glyph glyph-name="grave" unicode="`" horiz-adv-x="333" 
d="M291 551c-23 0 -41 8 -54 15c-27 14 -53 35 -69 62c-18 28 -26 59 -22 92l1 6l5 4c6 6 13 10 18 13c5 4 10 6 12 9l4 7l7 2c5 2 11 3 16 3c4 0 7 -1 9 -1l11 -2l3 -7l11 1h6c15 0 33 -5 41 -21c3 -4 5 -10 4 -16l5 -1l5 -4c19 -18 15 -41 11 -63c-1 -4 -1 -7 -1 -10
c1 -9 7 -21 16 -32l9 -10l-6 -12c-1 -1 -1 -2 -2 -2c-5 -10 -13 -28 -32 -33h-1h-2h-5z" />
    <glyph glyph-name="acute" unicode="&#xb4;" horiz-adv-x="333" 
d="M219 557c-7 0 -13 0 -19 1l-11 3l-4 10c-5 18 1 36 8 49c0 1 1 3 2 4l2 6l5 1c14 9 27 23 34 40c-1 19 10 39 28 50l4 2l3 1c1 0 4 2 6 3c3 2 11 7 22 8l1 1l15 14l38 2l3 -6l5 4l7 -2c5 -1 9 -2 12 -3h1c2 0 5 1 8 2c4 1 9 2 15 3c0 0 18 3 21 -3c4 -6 -4 -43 -4 -43v-2
c-16 -42 -49 -79 -96 -108l-4 -2l-4 -1c-5 0 -7 -2 -8 -3l-1 -2l-2 -1c-10 -9 -24 -13 -33 -16c-3 0 -5 -1 -7 -2c-13 -5 -30 -10 -47 -10v0z" />
    <glyph glyph-name="circumflex" unicode="&#x2c6;" horiz-adv-x="333" 
d="M114 539c-12 3 -25 9 -36 17l-5 3l-2 6c-5 17 5 31 10 38l3 3l-2 7l7 6c9 9 18 18 27 25l5 5h1l8 8c17 15 29 31 36 48c0 0 10 17 16 19c6 -1 10 -5 10 -5l2 2c3 5 7 10 10 15l3 5l5 3c5 4 14 6 23 6c13 0 25 -4 35 -8c5 -1 12 -1 18 -1c12 0 22 1 27 5l4 2h5
c11 0 20 -5 26 -13c4 -6 6 -12 7 -17c0 -1 1 -2 2 -3l2 -5v-5c0 -19 20 -36 38 -48c2 -2 5 -4 7 -6l6 -7l-1 -11c-1 -7 -2 -13 -4 -17c-1 -7 -3 -13 -2 -17l3 -11l-7 -8c-8 -9 -16 -11 -23 -15c-4 -2 -7 -4 -10 -5l-7 -6l-8 3c-19 6 -31 18 -41 29c-5 9 -10 16 -17 19l-17 7
l6 15c0 1 1 4 0 7h-6c-7 0 -15 -1 -22 -2c-5 -1 -10 -1 -15 -2c-16 -11 -28 -27 -41 -45l-5 -6l-8 -1c-8 -1 -14 -7 -22 -15c-2 -3 -5 -6 -8 -9c0 0 -5 -4 -9 -7c-3 3 -9 3 -9 3c-10 -1 -14 -13 -14 -13z" />
    <glyph glyph-name="tilde" unicode="&#x2dc;" horiz-adv-x="333" 
d="M247 572c-18 2 -38 14 -47 38c-3 3 -7 6 -14 7c-9 -4 -17 -7 -24 -10c-2 -1 -4 -2 -5 -2c-4 -4 -9 -7 -12 -11s-8 -8 -12 -12l-3 -2l-5 -1c-5 -1 -9 -2 -13 -2c-15 0 -27 6 -35 21l-4 7l3 8c4 13 9 22 16 34c6 14 17 24 29 30h1c5 6 13 17 24 19l9 8l12 1l6 4
c7 5 15 7 19 9c3 1 7 2 10 4l7 2l8 -1c1 0 3 -1 4 -1c9 -3 17 -7 26 -15c0 0 6 -1 9 3c4 1 12 -7 12 -7c3 -2 6 -5 9 -7c8 -6 12 -12 19 -19h1l13 -1l4 -2c5 1 10 3 15 3c9 1 18 3 23 10c8 12 14 23 18 35l2 3l3 2c8 8 17 12 29 12s22 -4 29 -12l3 -2l1 -2c1 0 2 -1 3 -2
l3 -3c0 0 9 -9 9 -15c-8 -6 -15 -20 -15 -20c-2 -23 -19 -42 -35 -55c-6 -15 -19 -25 -28 -33c-4 -3 -8 -6 -11 -9l-5 -4h-5c-3 0 -5 -1 -7 -1c-8 0 -12 -1 -16 -2c-9 -5 -19 -7 -28 -8c-4 -1 -16 -4 -25 -2c0 0 -4 1 -9 5c-7 -3 -21 -2 -21 -2z" />
    <glyph glyph-name="macron" unicode="&#xaf;" horiz-adv-x="333" 
d="M233 586c-14 5 -31 5 -44 5h-20c-8 0 -16 -1 -24 -1c-17 0 -38 1 -61 9l-9 4l-3 11c-6 31 15 51 32 64c6 6 12 12 16 17l4 5l5 2c30 8 60 13 94 13c26 0 54 -3 85 -9c6 0 12 2 17 4c10 3 21 6 32 6c9 0 16 -3 23 -7l12 6c0 0 11 5 14 4c2 0 10 -9 10 -9
c14 -18 9 -38 6 -52c-2 -6 -3 -13 -3 -16l3 -10l-6 -6c-22 -27 -53 -40 -96 -40c-19 0 -39 2 -55 4c-2 0 -3 0 -5 1c-1 -1 -2 -1 -3 -1c-3 -1 -7 -2 -9 -3l-7 -3z" />
    <glyph glyph-name="breve" unicode="&#x2d8;" horiz-adv-x="333" 
d="M204 578c-15 0 -30 1 -41 4l-14 3l-1 7h-12c-13 5 -22 17 -28 29c-9 1 -16 7 -19 16l-2 4l1 3c3 12 3 17 2 19l-10 5v12c0 4 0 8 1 10v8l-4 9l5 9c15 23 42 37 75 37h5l5 -3c17 -11 21 -28 23 -42c1 -3 2 -6 2 -8c10 -5 17 -10 23 -15c2 -3 4 -5 4 -7c5 -1 12 -2 18 -2v0
c10 0 21 3 31 7l1 2h3c4 0 7 3 14 8c7 7 15 17 28 22v0c4 2 10 11 16 20c2 3 4 4 7 8l3 4l5 2c7 3 15 5 21 5c12 0 26 -4 37 -13l8 -4l-1 -11c-1 -6 -1 -12 -2 -17c-1 -4 -2 -8 -2 -12l-1 -5l-2 -2c-44 -68 -124 -112 -199 -112v0z" />
    <glyph glyph-name="dotaccent" unicode="&#x2d9;" horiz-adv-x="333" 
d="M227 572c-24 5 -43 20 -53 43c-12 28 -10 62 6 88l1 2l1 1c5 7 12 11 18 15c6 5 10 7 11 11c0 0 4 10 8 12c6 1 13 1 13 1c3 -1 6 -1 10 -1c23 -3 50 -6 73 -23l4 -3l3 -6c13 -34 -3 -62 -16 -85c-4 -8 -9 -15 -11 -22c0 0 -5 -10 -8 -12c-7 1 -13 -1 -13 -1v0
c-2 0 -7 -3 -9 -6c-8 -5 -18 -13 -33 -14h-2h-3z" />
    <glyph glyph-name="dieresis" unicode="&#xa8;" horiz-adv-x="333" 
d="M308 576c-1 2 -4 5 -7 5l-16 1s3 20 -12 18c-2 10 4 21 4 21c0 1 1 3 1 4c0 2 1 4 1 5c0 0 -7 4 -6 13c3 4 10 13 10 13c6 5 10 12 15 20c10 15 23 35 48 39c6 7 11 15 15 24c0 0 3 10 9 15c17 0 25 -8 25 -8h2c26 0 46 -13 53 -34v-1l1 -1c8 -41 -22 -74 -39 -93l-6 -7
h-5c-15 -19 -36 -31 -55 -41c-3 -2 -6 -4 -9 -5c0 0 -15 -9 -19 -8c-4 2 -10 20 -10 20zM112 571c-16 10 -23 25 -28 37c-3 6 -5 12 -9 15c0 0 -10 7 -11 12s6 15 6 15l6 9c8 10 15 20 14 29l-1 11l9 7c11 9 21 20 32 34c0 0 7 9 14 10c8 -7 16 -8 16 -8h2h6c3 1 6 1 10 1
c6 0 11 -1 16 -3c0 1 1 1 2 1c2 0 4 1 6 2c0 0 17 3 29 0c-3 -11 2 -20 2 -20l6 -13s20 -1 22 -17c1 -7 -13 -18 -13 -18c-11 -10 -21 -22 -31 -34c-24 -28 -49 -57 -88 -71l-9 -3z" />
    <glyph glyph-name="ring" unicode="&#x2da;" horiz-adv-x="333" 
d="M226 560c-6 0 -19 2 -32 5l-16 -5l-5 6c-2 2 -5 4 -8 5c-8 5 -17 10 -23 19l-4 4l1 4c0 1 -1 3 -1 4c-2 4 -3 9 -4 15v2v2c0 7 1 12 2 17v1l-1 6l3 5l-2 4l4 12c1 1 2 4 2 7c2 5 5 14 12 15c0 0 0 2 1 5l1 4l2 3c5 6 10 10 14 13s6 5 6 7l2 9s5 1 7 2c4 2 4 5 4 5l15 1
c4 0 8 2 14 6c6 5 12 12 26 12h5l5 -1s7 4 9 11c4 3 10 -3 10 -3c0 -1 5 -1 8 -2c7 0 15 -1 24 -5l4 -2l2 -3c4 -1 7 -1 10 3c6 -4 8 -15 8 -15c4 -1 7 -2 10 -3c1 0 3 -1 4 -1c0 0 13 -4 14 -7c2 -4 -2 -10 0 -16c2 -5 5 -5 6 -7c2 -2 0 -16 0 -16c-1 0 -2 -5 -2 -12
c-3 -21 -6 -38 -21 -58v-2l-1 -1c-30 -32 -70 -55 -115 -55zM226 646v0c5 0 12 2 20 4c6 2 13 3 20 4c3 4 6 7 9 9v3c0 4 0 7 1 11v1c-1 0 -1 0 -1 -1c-3 0 -6 0 -11 -1l-7 -8h-10c-11 0 -21 -8 -21 -17v-5z" />
    <glyph glyph-name="cedilla" unicode="&#xb8;" horiz-adv-x="333" 
d="M86 -232c-26 0 -52 6 -72 16c0 0 -11 6 -12 10c0 4 6 16 6 16c4 8 4 18 5 27c0 12 0 25 3 39l2 4l5 2c10 8 25 12 38 12c12 0 23 -4 30 -12c3 -2 6 -5 7 -10c3 -1 6 -1 9 -1c15 0 35 9 51 20v4c-4 3 -7 3 -10 3h-1h-1c-8 1 -14 4 -20 6c-1 1 -3 2 -4 2c0 0 -7 -5 -13 -3
c-4 0 -11 11 -11 11l-1 1c-3 5 -9 14 -7 24v1l1 1c6 28 18 52 33 73l1 1l1 1c1 1 2 3 4 5c4 4 9 11 19 16l3 1l12 2h5c5 1 10 2 15 2c19 0 32 -9 42 -15l11 -5l-2 -12c-3 -15 -10 -26 -18 -33l6 -1l4 -2c26 -20 35 -48 28 -77c11 -37 -22 -67 -38 -81v0l-1 -1
c-3 -2 -6 -5 -9 -8c-12 -14 -31 -27 -53 -27c-5 0 -10 1 -16 2c-1 0 -2 -1 -3 -2c-4 -3 -8 -6 -15 -9l-2 -1h-3c-8 -1 -19 -2 -29 -2z" />
    <glyph glyph-name="hungarumlaut" unicode="&#x2dd;" horiz-adv-x="333" 
d="M42 585l6 21s-5 8 -3 17c2 5 12 9 12 9c9 4 9 8 9 11c0 15 0 39 20 50l4 3h5v0s3 2 7 13l2 6l24 17l3 1c5 2 9 3 14 4c6 1 11 2 14 5l6 6l12 -3c4 3 9 6 16 8v0c5 2 12 5 20 5h3l8 -2l8 -11l2 -1l10 -4l18 -16l-10 -14c-3 -4 -6 -9 -9 -14c-8 -14 -19 -31 -38 -38l-3 -6
c-2 -6 -4 -12 -9 -18l-1 -2h-2c-32 -30 -72 -55 -115 -78c0 0 -8 -5 -16 -6c-8 6 -17 37 -17 37zM242 557c-6 1 -37 13 -39 18s8 17 8 17c5 9 12 17 19 25c10 14 17 21 16 31l-1 12l19 11c5 13 16 26 30 36l2 3l3 7c9 21 29 27 41 32c7 3 13 5 17 8l8 8l11 -3c1 0 3 0 5 -1
c5 0 12 -1 19 -3l13 -5v-7c8 -1 15 -2 22 -5c0 0 13 -3 15 -5c2 -1 0 -14 0 -14c-2 -16 -11 -27 -18 -36c-4 -5 -7 -8 -7 -11l-1 -7l-6 -5c-12 -10 -24 -21 -37 -31c-27 -26 -55 -51 -95 -67l-13 -5l-5 7c-2 -1 -5 -3 -8 -6l-8 -7z" />
    <glyph glyph-name="ogonek" unicode="&#x2db;" horiz-adv-x="333" 
d="M151 -227h-2c-3 1 -7 1 -11 1c-3 1 -10 1 -18 4h-1s-24 5 -25 7c-2 2 1 8 1 8l-3 2c-1 1 -1 1 -1 2c-1 1 -3 2 -5 4c-19 8 -33 25 -38 43c-4 22 -2 40 0 51l1 2v2c1 1 1 5 1 8c0 6 0 16 5 21c-2 21 10 37 19 46c7 7 12 12 11 18l-1 12l7 7c1 1 4 3 6 4c9 5 19 9 32 13
l8 3l8 -7l12 -1l15 -10l9 -18l-1 -15v-5l-2 -2c-6 -9 -10 -20 -15 -31c-5 -10 -9 -16 -14 -26c-1 -16 10 -33 25 -39h2c10 0 16 3 21 10l2 3l3 2c3 1 6 4 9 6c8 7 19 15 30 19c0 0 14 2 16 1s6 -14 6 -14c1 0 3 -2 4 -4c5 -4 13 -13 14 -23v-4l-3 -10l1 -18l-2 -5
c-8 -13 -20 -27 -34 -38c-10 -10 -26 -16 -42 -17c-13 -7 -26 -12 -48 -12h-2z" />
    <glyph glyph-name="caron" unicode="&#x2c7;" horiz-adv-x="333" 
d="M171 560c-22 5 -24 26 -26 33c0 2 -1 5 -1 6l-2 5v5c0 5 -6 13 -11 20c-1 1 -2 2 -3 2l-3 5v1l-6 1l-4 4c-9 10 -12 20 -15 29v3v4c0 9 3 18 6 26c1 3 3 7 4 9l-4 11l9 9c8 6 16 10 23 14c4 2 8 3 10 5l6 6l10 -3c2 -1 5 -1 9 -1c8 -2 19 -3 26 -9l4 -3l2 -4
c6 -8 6 -17 5 -26c3 -2 6 -4 8 -5l14 -8l-5 -13c-1 -4 0 -9 3 -16c13 3 25 5 39 5h1c8 8 17 13 26 22c15 16 33 33 52 45l9 11l5 2c12 4 19 5 24 6h2l4 3l7 -1c12 -3 21 -8 30 -13c1 0 2 -1 3 -2c0 0 10 -6 11 -9c0 -3 -9 -37 -9 -37l-5 -2l-6 -8c-6 -6 -12 -10 -17 -14
c-4 -3 -8 -6 -10 -8l-2 -4l-4 -2c-5 -2 -8 -4 -11 -8v-1h-1c-6 -6 -11 -12 -17 -18c-10 -8 -18 -17 -24 -28c0 0 -10 -20 -12 -20c-6 0 -10 7 -10 7l-5 -7l-15 -1h-1c-4 -1 -8 -5 -13 -9c-3 -3 -7 -6 -11 -8l-10 -7l-10 5c-4 3 -10 5 -18 5c-14 0 -30 -5 -43 -11
c-3 0 -5 -1 -8 -2l-5 -2z" />
    <glyph glyph-name="emdash" unicode="&#x2014;" horiz-adv-x="1000" 
d="M-20 203l-24 6l-4 9c-8 22 5 34 9 38l1 1l6 8h9c11 0 22 10 35 19c4 4 9 5 14 8l7 6l8 -3c4 -1 6 -1 11 -1c10 0 21 2 32 5l2 1h1c7 1 12 2 17 2c9 2 15 3 22 3h1l14 -2l4 -3s1 -1 2 -1c9 3 19 6 30 6c6 0 11 -1 16 -3l2 -1l2 -1c4 -2 8 -3 13 -3c7 0 15 3 23 7
c1 0 2 1 3 1c0 0 13 8 21 7c6 -3 4 -9 4 -9l8 3s17 6 40 2c0 -8 8 -5 8 -5c7 1 14 4 17 8c0 0 7 7 11 7c5 0 14 -6 14 -6v0l2 1l3 1c7 2 14 4 19 4c7 0 14 -2 20 -4l8 5l1 1c10 5 19 6 26 6c4 0 8 0 12 -1h9c4 0 7 0 9 1c0 0 16 8 30 5c13 -2 25 3 25 3l4 -14v0c2 0 5 0 7 1
h6l12 2s17 2 22 0c3 -3 4 -7 4 -7c1 -1 3 -3 4 -5c3 2 7 4 11 6c0 0 9 6 13 6c12 0 11 -9 11 -9c4 1 6 3 9 4l21 9l4 1h5c7 -1 13 -4 16 -8h10c7 0 14 0 21 -1c6 0 11 -1 16 -1s10 1 14 2l18 5l8 -8c4 2 7 3 9 5l6 3l7 -2h6h9c4 1 8 1 12 1c7 0 13 -1 18 -3l5 -2h1
c4 1 8 2 11 3h4l4 -1h4c6 0 11 2 18 4c4 2 8 3 13 4l13 4l8 -11h1c7 0 12 1 17 4l9 6l9 -5c1 0 3 1 5 1c1 0 2 1 3 1l8 1l6 -5l2 -2l9 6l7 4l8 -1s0 -1 1 -1c2 0 5 2 9 4c2 1 3 2 5 2h2l2 1h6c6 0 11 -1 16 -1c2 -1 5 -1 6 -1c0 0 19 -5 21 -14s-10 -21 -10 -21
c-3 -3 -7 -5 -9 -6c-1 0 -1 -1 -1 -1c-1 -14 -16 -24 -22 -29c0 -1 -1 -1 -1 -1c-8 -11 -19 -19 -36 -23l-12 -21l-9 -2c-85 -12 -159 -18 -228 -18c-54 0 -103 4 -152 11c-49 -10 -92 -15 -132 -15c-19 0 -40 1 -60 4c-28 -4 -58 -6 -94 -6c-30 0 -61 2 -93 3
c-29 1 -61 3 -91 3c-41 0 -74 -3 -107 -8c0 0 -15 -1 -18 0c-6 4 -4 11 -4 11z" />
    <glyph glyph-name="AE" unicode="&#xc6;" horiz-adv-x="1000" 
d="M725 -35c-45 0 -92 5 -136 10c-36 4 -70 8 -102 9h-11l-6 10c0 1 -5 3 -8 4c-7 2 -19 8 -27 22v1l-1 1c-12 34 -8 68 -3 101c0 7 1 14 2 20v1l1 3c3 6 3 14 4 22c0 5 0 11 1 16c-12 3 -24 3 -37 3c-16 0 -32 0 -46 -2c-17 -1 -34 -2 -49 -2c-28 0 -49 3 -69 9
c-5 -7 -13 -20 -28 -22c0 0 0 -3 2 -7c-3 -13 -19 -29 -19 -29c-3 -2 -5 -5 -8 -9c-7 -9 -15 -19 -26 -26c-10 -11 -21 -21 -33 -32c-14 -14 -29 -27 -36 -46l-3 -8l-9 -4c-9 -4 -18 -8 -21 -14c0 0 -4 -14 -13 -15c-4 -1 -18 11 -18 11c-21 17 -39 44 -51 76
c0 0 -3 9 -2 13c2 7 10 10 10 10c3 2 7 7 11 13c7 9 15 21 28 27c0 1 1 2 1 3c1 3 1 5 2 7l2 9l11 4c2 1 5 1 7 2c8 23 25 41 49 45c8 14 18 28 27 38c13 18 26 34 33 51l5 13h13l8 19h16c1 7 0 13 -1 21l-2 16l14 6c34 14 52 46 69 80c17 31 32 60 60 83c8 23 25 45 56 63
l16 12s-2 10 0 13c1 4 14 9 14 9c15 4 26 16 37 30v0l-2 9l19 19c1 2 3 3 4 4c2 3 7 8 8 10c0 0 2 7 -2 17c5 5 17 8 17 8c3 1 8 3 14 5c11 4 23 10 36 10c7 8 20 17 40 17c6 0 12 -2 19 -4h1l36 -16l2 -7c4 -10 3 -22 2 -31c4 1 8 2 13 2c3 0 6 1 9 1l8 1l14 4l11 -4l11 -9
v0c33 6 68 6 100 6h14h12c24 0 51 0 79 4l46 6l8 -7h2c13 0 26 -2 39 -3c0 0 23 -3 28 -4c12 -7 8 -17 8 -17c6 -4 12 -12 16 -20l1 -2v-1c1 -3 2 -5 2 -8c1 -2 1 -4 2 -6l10 -7l-2 -14c0 -2 -4 -9 -5 -11l2 -3l-12 -15c-8 -10 -20 -18 -35 -25h-1l-2 -1
c-17 -2 -34 -3 -51 -3c-25 0 -47 1 -70 3c-22 2 -44 4 -66 4c-17 0 -34 -1 -48 -4l-9 -1l-7 7c-5 5 -11 7 -20 7c-7 0 -13 -1 -20 -2c-9 -1 -18 -3 -28 -3h-4v-8l-17 -1c-3 0 -7 -1 -11 -1c-6 -2 -13 -3 -20 -3c-10 0 -17 3 -24 7c-2 -1 -4 -2 -6 -2c-2 -6 -1 -12 0 -22
s2 -18 0 -29v-1l-1 -1c-3 -12 -7 -23 -11 -31c-6 -14 -11 -28 -12 -41c3 -6 6 -6 11 -6c7 0 15 1 24 3c10 2 20 4 32 4c7 0 14 -1 20 -3c13 4 28 6 44 6c15 0 33 -3 52 -7c11 5 24 6 34 6c6 0 13 -1 18 -1c6 -1 11 -1 17 -1c5 0 9 0 12 1l14 2c5 -2 5 -9 5 -9l19 -2
c3 0 6 1 9 1c7 0 14 -2 20 -6l13 -8l-2 -14l8 2l2 -5v0v0l2 -15c5 -24 -12 -48 -32 -61c-15 -10 -33 -16 -57 -21h-1v0c-4 0 -8 -1 -12 -1c-12 0 -23 3 -35 6c-5 1 -11 2 -16 3c-9 1 -18 1 -29 1c-26 0 -52 -2 -78 -4c-26 -1 -52 -3 -80 -3c-11 0 -19 0 -28 1v-9
c2 -14 4 -37 -13 -57l-3 -2l-5 -2c-3 0 -6 -1 -9 -2c-9 -24 -9 -49 -8 -77c1 -17 2 -35 0 -54c46 -5 90 -7 132 -7c71 0 142 6 207 20h4l4 -1c13 -3 23 -11 28 -22c4 -8 4 -17 4 -25c1 -4 1 -9 2 -12c0 -1 0 -1 1 -1c0 0 16 -5 15 -15c-1 -7 -14 -18 -14 -18
c-56 -39 -124 -58 -212 -58zM322 309h4c51 0 93 7 130 23c15 39 25 80 35 120c6 28 13 57 20 85c-1 3 -2 5 -2 8c-26 -20 -47 -51 -67 -80c-22 -31 -43 -62 -74 -86c-11 -23 -25 -44 -40 -62c-2 -3 -4 -6 -6 -8z" />
    <glyph glyph-name="ordfeminine" unicode="&#xaa;" horiz-adv-x="370" 
d="M325 334l-7 10c-2 7 -6 15 -11 22c-8 12 -17 25 -26 36l-5 6v7v4c-9 -15 -25 -31 -44 -43c-26 -21 -56 -31 -82 -31v0c-18 0 -33 4 -51 13l-6 4l-2 6c-4 8 -9 16 -12 26c-14 32 -30 66 -33 103v4l1 4c11 29 22 62 28 93l2 9l9 4c1 0 3 5 3 5l-3 8l7 7c3 3 7 6 11 8v9l9 6
c2 1 4 2 5 3c1 4 2 7 4 9c2 6 7 12 12 16c2 2 6 5 7 6c0 0 6 7 3 18c6 4 14 3 14 3l5 3c4 1 8 3 9 4h2c0 0 7 5 9 15c7 2 18 -2 18 -2c2 2 5 5 7 10l6 10h9h1c2 1 5 1 8 1h1l10 -1l5 7l11 -1c2 0 3 0 5 -1c5 0 8 0 15 -3c6 2 12 3 18 3c19 0 37 -9 51 -23
c8 -8 14 -17 16 -25c15 -4 27 -16 37 -25c4 -4 8 -7 10 -10l8 -6l-2 -11c-4 -26 -11 -48 -18 -73c-10 -28 -19 -59 -24 -86c0 0 14 0 22 9c9 1 15 -11 15 -11c1 1 4 1 5 1c4 0 8 0 11 -2l6 -3l3 -7c7 -12 3 -25 0 -35c-1 -4 -2 -8 -2 -11l1 -10l-9 -4
c-10 -7 -15 -20 -22 -32c-14 -21 -32 -50 -68 -55zM143 464c6 -4 10 -9 13 -13c7 4 13 8 17 12c24 12 47 26 63 45c18 36 36 63 61 84c2 6 4 12 6 17c3 9 7 18 10 29c-5 3 -9 7 -13 10s-8 7 -10 8h-2l-7 4h-5v0c-2 1 -4 1 -5 1c-10 0 -22 -10 -34 -20l-14 -12l-3 4
c-8 -12 -15 -23 -18 -38l-2 -8l-7 -5c-22 -14 -28 -47 -32 -78l-2 -14c-5 -5 -12 -4 -12 -4c0 -4 -1 -7 -2 -11s-2 -7 -2 -11z" />
    <glyph glyph-name="Lslash" unicode="&#x141;" horiz-adv-x="611" 
d="M199 -17h-6h-2c-4 -5 -11 -9 -18 -10l-4 -1l-9 1l-5 -6l-6 -2c-9 -3 -21 -7 -32 -7c-16 0 -30 7 -38 21l-1 4l-1 2c-4 32 4 53 11 70c0 34 7 69 21 99l-13 13l8 12c3 5 6 13 9 21c2 6 4 13 6 20c-6 -6 -14 -10 -24 -12c0 0 -14 -4 -24 -19c-10 9 -11 29 -11 29l-5 4
c-15 9 -16 25 -17 35v8c0 0 -2 8 -1 11c0 2 9 9 9 9c-1 6 0 14 6 21l3 4l5 2c1 1 4 3 7 6c4 4 9 8 16 9c5 9 12 15 18 21c4 5 9 9 10 12c0 0 4 15 8 16c4 3 13 -2 13 -2c1 1 2 1 3 2c4 6 9 15 17 20c0 6 0 12 1 18v7l4 2v6l8 7c21 25 17 60 14 74l-2 13l15 8v5l1 2v8
c0 5 1 10 4 15l-9 5l13 11s1 4 -4 7c3 18 16 28 16 28c2 31 8 58 21 82l-2 5v4c0 14 9 21 14 26c1 0 2 2 2 2l4 8l9 2c3 1 5 2 8 2c14 0 25 -8 33 -13c4 -3 8 -6 11 -6c0 0 15 1 19 -3c3 -3 -1 -19 -1 -19c-4 -15 -8 -30 -12 -43c-7 -32 -15 -61 -13 -92l1 -15l-8 -2
c1 -14 -1 -27 -4 -38c23 20 50 39 75 56l2 2l2 1c5 0 10 1 14 1c17 0 25 -8 33 -15c3 -3 8 -7 10 -7l13 -1l7 -23l4 -17l-10 -16l-6 -2c-2 0 -5 -2 -7 -4c-4 -3 -8 -6 -13 -8l-1 -11l-7 -5c-7 -5 -10 -8 -11 -9v-14l-19 -6v-3l-17 -10l-3 -4l-4 -11l-9 -4c-2 -1 -4 -1 -6 -2
c-4 -1 -8 -3 -10 -4l-3 -4l-10 -3h-1l-2 -12l-10 -2c-10 -2 -19 -10 -30 -18c-4 -4 -8 -7 -12 -11c-1 -2 -3 -5 -6 -8c-4 -6 -10 -12 -19 -17c-3 -12 -6 -25 -8 -38c-5 -23 -9 -49 -18 -72c3 -38 -6 -75 -17 -109c0 -2 -1 -4 -1 -6c6 0 12 -1 18 -1c3 -1 9 -1 13 -1h3
c11 2 21 4 31 6v0l1 1c22 5 49 7 78 7c26 0 54 -2 79 -4c17 -1 35 -2 51 -3h5l5 -3c1 -1 4 -3 6 -4c0 0 8 16 17 14c2 -12 9 -17 9 -17s19 1 22 11c8 -7 5 -31 5 -31c0 -4 -1 -8 -1 -13c0 -20 0 -49 -28 -64c0 0 -13 -8 -16 -8c0 2 -4 4 -4 4h-3c-2 1 -5 1 -7 2
c-5 -3 -11 -6 -19 -6c-3 0 -8 1 -15 4c-5 0 -10 -1 -15 -1h-5l-7 1v0c-4 -2 -7 -3 -11 -3c-6 0 -12 2 -17 6l-2 2l-2 2c-2 3 -3 4 -8 4s-11 -1 -17 -2c-7 -2 -16 -3 -25 -3c-7 0 -13 1 -19 3l-7 -8l-9 1c-2 1 -5 1 -8 1c-9 0 -19 -2 -29 -3c-5 -2 -12 -3 -18 -4l-6 -1l-4 2
h-7s-2 -10 -13 -15c-7 12 -17 11 -17 11z" />
    <glyph glyph-name="Oslash" unicode="&#xd8;" horiz-adv-x="778" 
d="M56 -51c-3 3 -8 3 -9 4l-2 -2s-7 6 -18 4c-6 12 0 32 0 32l6 9c-4 19 -2 37 7 57c9 21 25 38 37 49l7 7l6 -1l5 12l6 2c21 10 24 17 24 22c-2 9 -4 16 -5 23c-5 17 -8 31 -10 47v3v2c4 21 3 44 3 66c-1 36 -2 76 14 111l-2 2l-1 6c-2 18 7 33 13 45c4 7 7 13 7 17
c0 0 0 12 4 15c8 1 12 4 12 4c5 15 14 26 22 37l9 15l-5 21l7 6c11 11 20 24 31 37c14 18 28 39 50 54l13 12l3 -1c4 3 11 8 17 10c7 12 15 21 25 27l9 6l11 -7l8 4l9 3c6 8 16 17 39 17c5 0 11 0 16 -1c3 6 7 11 11 15l9 8l10 -4h3h8c4 1 8 1 12 1c6 0 12 -1 18 -4l8 7
s4 1 9 1c4 0 11 -3 11 -3c1 0 2 -1 3 -1c3 -2 8 -4 14 -8c5 1 11 1 16 1c46 0 85 -20 107 -52l2 -3v-4c1 -2 1 -5 1 -7h9l3 -7c9 -10 17 -20 24 -31c6 -10 12 -20 18 -27c11 9 25 21 43 21c0 0 3 5 2 14c8 6 19 1 19 1c5 4 10 8 14 10c3 2 5 2 7 4l3 3l5 1c3 0 6 1 9 1
c11 0 20 -4 27 -7c3 -1 7 -3 9 -3l17 -3s-1 -9 4 -17c4 -6 12 -7 12 -7l-2 -18c-8 -28 -28 -42 -47 -52c-11 -7 -20 -14 -26 -22l-5 -8l-8 -1c-19 -2 -36 -13 -48 -28l16 -5l-9 -22c-3 -5 -1 -12 2 -23c1 -7 3 -14 4 -21v-7l-8 -11v-2c2 -4 5 -11 5 -19v-2v-2
c-9 -40 -21 -94 -28 -150v-1l-1 -2c-4 -12 -12 -24 -24 -33l-3 -11c-9 -39 -36 -63 -60 -85c-17 -14 -30 -27 -40 -43l-3 -4l-4 -2c-8 -5 -17 -10 -24 -14c-16 -7 -32 -14 -43 -27l-7 -9l-12 4c-1 0 -2 1 -3 1h-2c-21 -18 -44 -23 -67 -26c-16 -3 -33 -5 -46 -14l-9 -7l-9 5
c-4 2 -8 5 -12 7c-8 -3 -18 -4 -27 -4c-17 0 -34 7 -45 16h-3c-9 0 -21 4 -31 11h-1c-2 0 -5 0 -7 -1h-10h-4l-3 2c-10 4 -19 11 -25 16c-3 1 -6 2 -8 2c-6 0 -10 -3 -16 -6c-10 -7 -21 -16 -32 -25c-21 -19 -47 -43 -83 -45c0 0 -7 -1 -11 0c-4 2 -3 8 -6 12zM343 85
c9 -4 20 -4 32 -4c7 0 12 0 19 -1c37 24 68 42 98 56c26 14 42 37 61 61c12 16 23 30 36 44c3 12 9 21 15 29c3 4 7 9 8 13l1 1v1c14 32 17 67 20 103c1 8 2 16 2 23c-5 -4 -9 -9 -15 -15c-12 -12 -26 -25 -43 -29c-10 -12 -21 -21 -33 -30c-8 -5 -15 -11 -19 -17l1 -7
l-11 -16l-3 -2c-11 -9 -23 -11 -32 -13h-2c-5 -7 -11 -12 -17 -17c-13 -13 -25 -26 -30 -41l-5 -9l-21 -4c-14 -18 -30 -31 -48 -42l-5 -5s6 -6 15 -5c2 -9 -9 -29 -9 -29c-8 -9 -18 -15 -25 -21c-5 -3 -10 -7 -12 -10l-2 -3l-3 -3c-3 -2 -6 -4 -9 -5c5 -4 11 -6 15 -6
c3 0 5 1 8 2l5 4zM231 228c2 -3 4 -5 5 -6c16 11 30 28 44 46c21 25 44 51 78 66v0l5 16l17 10l17 7c4 11 12 17 19 23c3 3 7 6 8 8l3 6l4 3c13 6 25 15 37 26c12 13 28 27 48 34l1 3l15 22l8 -1c7 6 14 8 20 9c1 4 2 7 4 11c3 3 7 7 11 10c0 0 -4 5 -2 11s14 14 14 14
c2 1 4 2 6 4c1 0 3 1 4 2c-2 2 -3 4 -5 6c-9 6 -19 17 -22 34c-21 15 -43 22 -70 22c-80 0 -163 -69 -185 -92l-9 -8l-6 2c-3 -4 -7 -7 -10 -11c-9 -14 -13 -21 -11 -29l1 -8l-5 -5c-43 -65 -60 -149 -44 -235z" />
    <glyph glyph-name="OE" unicode="&#x152;" horiz-adv-x="1000" 
d="M253 -36c-7 5 -18 8 -28 11c-15 4 -33 7 -48 20v0l-7 8l-8 8c-16 15 -32 28 -44 47l-1 1v0c-10 16 -21 33 -28 54l-3 7l4 7v1c1 1 1 2 2 3c-9 27 -8 54 -6 80v2v2c2 8 3 15 4 24s2 18 4 27l-2 2l-6 18l5 8c13 20 14 45 15 72c0 8 0 17 1 27l1 8l6 5c13 11 16 31 20 51
c0 3 1 5 1 7c0 0 2 11 4 18c9 5 18 2 18 2c13 29 24 52 43 79c-1 9 2 21 9 32l6 9h10h1c13 23 35 39 54 55c14 9 27 19 37 31l5 7h10h3c14 0 27 6 40 12c15 6 31 13 48 15h2h2c15 -2 31 -2 45 -2c29 0 56 -1 84 -7c26 -7 48 -20 63 -40c5 3 8 5 12 8l6 5h7h13
c81 0 171 15 281 46l2 1h2c5 0 10 1 16 1c8 0 15 -1 23 -1c7 0 14 -1 20 -1c10 0 19 1 27 3l11 3l7 -8c19 -19 33 -38 42 -59l3 -7l-2 -6c-7 -23 -23 -39 -42 -43c-13 -15 -34 -25 -56 -25c-4 0 -8 1 -12 1l-5 1l-5 3c-9 8 -18 11 -30 11c-16 0 -34 -5 -52 -11
c-22 -6 -42 -12 -65 -12c-9 0 -16 1 -23 3c-12 -5 -28 -10 -44 -10c-4 0 -8 0 -12 1c0 0 0 -9 -7 -11c-8 5 -23 5 -23 5c-2 0 -6 -2 -10 -4v-1c-14 -40 -23 -82 -33 -126c-4 -19 -8 -37 -11 -57c5 2 11 4 18 4c8 0 15 -3 20 -7c8 2 13 3 21 3c13 0 25 -2 37 -5
c8 -2 17 -4 26 -4c3 0 6 0 8 1h2h1c12 0 23 6 37 13c13 7 27 14 44 17h2h1c23 -1 40 -13 48 -34c6 -14 7 -32 7 -47c0 -5 0 -10 1 -15l1 -15l-14 -6c-54 -20 -112 -21 -165 -22c-46 -2 -90 -3 -131 -14c-3 -19 -7 -39 -21 -54c1 -20 -5 -36 -11 -52c-5 -16 -9 -26 -8 -36
c22 1 41 5 64 9c29 5 60 9 90 9c17 0 30 -2 44 -3c23 7 46 8 66 8c7 0 14 0 22 -1h24c11 0 19 0 28 2l23 3v-16l20 -7l-6 -19c-4 -14 -11 -29 -19 -47l-4 -7l-6 -2c-35 -15 -78 -23 -123 -23c-8 0 -17 0 -26 1c-7 0 -14 -2 -22 -5c-6 -2 -16 -5 -27 -6v0h-1
c-10 0 -19 2 -25 4c-6 1 -11 3 -16 3c-27 -2 -51 -10 -78 -18c-17 -5 -36 -10 -54 -14v0c-6 -1 -12 -1 -17 -1c-27 0 -53 11 -72 33l-4 7c-11 -7 -23 -13 -34 -18c-14 -8 -27 -15 -38 -24l-10 -9l-12 6c-1 1 -2 1 -4 1c-3 0 -9 -3 -15 -5c-10 -4 -20 -8 -31 -8h-5
c-5 -2 -11 -3 -16 -3c-7 0 -13 1 -17 2c-2 1 -4 1 -5 1c0 0 -1 -7 -9 -10c-4 0 -15 9 -15 9zM265 68h4v0c9 0 19 1 29 2c6 0 13 1 19 2c10 6 23 9 35 11c6 0 11 1 14 3c25 12 39 25 51 40v0l1 1c22 23 41 50 52 82c5 16 10 31 16 47c16 49 31 100 37 152c1 19 5 40 9 60
c7 36 13 70 5 102c-22 21 -45 42 -71 42c-4 0 -9 0 -15 -2c-13 -5 -26 -15 -37 -25c-11 -9 -23 -18 -37 -24c-6 -5 -12 -7 -20 -7c-9 0 -17 3 -23 7c-77 -97 -124 -218 -135 -342c11 -16 12 -35 14 -48c1 -16 2 -27 9 -34l15 -12l-9 -9c8 -8 13 -18 18 -27
c7 -13 12 -19 19 -21z" />
    <glyph glyph-name="ordmasculine" unicode="&#xba;" horiz-adv-x="365" 
d="M193 333c-7 1 -14 4 -19 6c-5 1 -10 3 -12 3h-1l-7 -4l-9 4c-39 24 -74 63 -92 113l-2 6l2 5c2 9 3 20 4 33c2 17 3 37 9 56l-3 8l5 7c4 9 9 18 15 27c14 19 27 40 31 62c0 0 1 7 3 9s11 4 11 4c4 0 9 2 14 5c2 0 3 1 4 1c14 22 31 36 54 48c21 13 49 19 74 19
c30 0 56 -7 79 -20c0 0 11 -7 15 -19c11 6 22 2 22 2l4 -17c1 -4 2 -9 3 -13c2 -15 5 -26 12 -33l8 -8l-2 -11c-3 -13 -4 -20 -2 -30l2 -7l-3 -7c-6 -11 -7 -21 -9 -35c-3 -23 -6 -45 -24 -65c-10 -28 -29 -50 -49 -66c-12 -13 -23 -25 -30 -39l-4 -5l-7 -2
c-11 -3 -22 -7 -31 -13c-19 -10 -38 -20 -59 -24h-3h-3zM192 569c-22 -21 -33 -58 -30 -88c1 -17 11 -31 26 -41c5 2 11 5 18 8c1 1 2 2 3 2c3 4 9 7 15 9c9 5 19 7 26 12c18 25 75 99 35 148l-7 10l1 12c-5 -2 -4 -1 -9 -4c-7 -3 -12 -7 -21 -9c-5 -16 -17 -28 -32 -36
l-1 -7l-16 -16h-8z" />
    <glyph glyph-name="ae" unicode="&#xe6;" horiz-adv-x="889" 
d="M91 -35c-28 13 -49 36 -59 67c-17 51 -2 112 19 149l3 6l4 2s0 7 3 10s13 4 13 4c5 2 8 5 9 10c0 0 1 12 5 17c3 5 15 1 15 1c3 4 6 7 10 11c3 2 7 5 9 8l8 11l13 -4c32 29 69 50 114 64c38 13 82 19 129 20c7 18 14 35 22 49c5 13 11 28 12 40c0 10 -3 11 -6 12h-1v1
c-3 2 -6 2 -10 2c-7 0 -14 -2 -22 -4c-8 -1 -18 -4 -29 -4c-4 0 -8 0 -12 1c-21 -5 -44 -11 -61 -24c-29 -21 -60 -31 -93 -43c0 0 -1 -1 -3 -1c-2 -5 -6 -8 -10 -11c-1 -1 -3 -2 -3 -3c0 0 -2 -12 -7 -14c-5 -3 -18 0 -18 0h-13h-6h-9c-7 0 -15 0 -24 3c0 0 -11 2 -13 9
c-3 7 2 18 2 18c2 8 3 17 3 27c1 9 1 20 3 31l2 7l7 4c2 1 5 2 7 3c9 6 21 13 33 14c1 4 2 9 5 14l3 5l6 2c7 3 14 5 20 7c25 8 41 15 49 32c0 0 4 10 10 13c5 2 15 -3 15 -3c2 -1 3 -2 5 -3l3 5l12 11l9 -1c3 0 6 -1 8 -1c5 0 8 1 9 2l5 17l25 -5l7 1c1 0 1 1 2 1
c2 2 4 5 6 7l6 8h10c9 0 16 -3 22 -9c9 6 22 10 36 13l7 1l6 -4c7 -5 19 -10 32 -14c16 -6 32 -12 46 -22c12 -7 20 -17 24 -28l3 3l15 9l14 4l13 3h10l4 -2c2 0 5 1 7 2c4 1 9 3 15 3c8 7 17 11 30 14l17 3l3 -8h6c9 0 16 -2 24 -4c6 -1 12 -2 17 -2h4c0 0 16 2 21 1
c-1 -8 2 -12 2 -12c35 -1 71 -20 81 -54c26 -5 36 -29 43 -44c5 -12 9 -22 14 -25l9 -4l2 -8c8 -33 -1 -62 -20 -80l-3 -3l-3 -1c-63 -22 -128 -48 -188 -70c-59 -24 -120 -46 -180 -69c0 -1 0 -3 -1 -4c-1 -10 -3 -21 -9 -32v-6c3 -6 6 -13 6 -21c6 -6 16 -13 38 -13
c13 0 29 3 44 6c56 16 96 36 130 61c2 6 5 12 7 19l3 8l8 4c6 4 13 10 22 21l7 9l12 -1c20 -3 33 -18 44 -28l12 -12l10 -10l-7 -15l4 -4l2 -2l4 -7l-1 -8c-2 -9 -5 -16 -8 -21c-1 -2 -2 -5 -2 -6l2 -11l-11 -8c-4 -2 -8 -5 -12 -7c-81 -52 -173 -111 -273 -111v0
c-27 0 -51 5 -76 13c-3 0 -6 -1 -9 -2c-2 0 -5 0 -5 -1h-3h-3c-28 5 -39 25 -46 40c-2 3 -3 6 -5 9c-70 -39 -156 -59 -270 -60h-4zM144 95c5 -12 11 -15 21 -15c8 0 17 2 26 4c12 2 23 4 35 4h4c15 7 31 10 48 12c11 3 24 6 36 10c0 6 0 12 2 18s5 11 8 14l-1 4v4
c1 16 5 26 6 35c1 4 2 8 2 10l1 4l3 4c0 1 1 2 2 3c2 3 4 6 7 10l-5 8l1 6c-59 -8 -118 -38 -165 -85l-3 -3l-3 -1c-12 -6 -25 -19 -31 -33zM646 420c-40 0 -81 -19 -111 -47c-13 -15 -29 -36 -35 -67c3 3 7 6 12 7l2 1h1c18 3 35 13 54 23c8 5 17 9 27 14l8 4l8 -3v0v0
c2 0 6 1 8 1c4 1 10 3 16 3h2c17 17 38 24 58 30c5 2 10 3 15 4l4 10h-3c-4 0 -9 1 -13 1h-1l-2 1c-9 3 -15 8 -20 11c-1 2 -3 3 -4 4c-7 2 -16 3 -26 3z" />
    <glyph glyph-name="dotlessi" unicode="&#x131;" horiz-adv-x="278" 
d="M124 -46c-19 1 -33 6 -44 13h-3l-19 2l-19 11l4 14c3 13 5 24 7 38c2 12 4 25 6 35l2 9l5 2l-8 13l12 11c4 3 5 9 6 19c0 3 1 6 1 10v0v2c3 18 7 38 20 56v0v2l-3 21l4 6c2 4 3 6 3 8l-4 9l7 10c1 1 1 7 1 11c0 7 1 20 9 31c-1 8 -1 15 -1 20v9l6 5l-1 6l4 8v6l1 10v6
l7 7l6 8l4 6l1 4v10l3 12l4 13l2 3l-3 4l3 8c2 9 5 16 8 22c4 9 8 18 8 27l1 10l8 6c16 8 34 11 49 14l20 4l5 -17h1l17 -13v-17l3 -3v-8c0 -10 -3 -20 -5 -28c-2 -4 -3 -8 -3 -11c4 -10 5 -20 1 -31c-3 -7 -7 -13 -13 -17c-6 -22 -8 -46 -10 -70c-4 -43 -8 -89 -33 -129
c0 -4 -1 -9 -1 -11c-2 -18 -4 -38 -10 -55v0v0c-6 -18 -11 -37 -4 -48l6 -9l-5 -10c-3 -5 -6 -10 -11 -14l-4 -15c-4 -21 -18 -34 -30 -44c-2 -1 -4 -3 -6 -5l-6 -7z" />
    <glyph glyph-name="lslash" unicode="&#x142;" horiz-adv-x="278" 
d="M109 -13c-9 10 -15 23 -19 37c0 0 -6 -10 -18 -1c-2 4 3 27 3 27c1 4 2 7 3 11c3 14 6 26 4 37v4l1 4c2 8 4 16 7 23c7 19 12 39 10 56l-2 -2l-6 -14l-16 3c-1 1 -2 1 -3 1h-1l-16 -9l-8 18c-5 8 -8 17 -9 27c-17 -1 -25 11 -25 11l6 15c3 9 4 19 5 30v7l1 11l24 9l1 1
l2 4v0c0 1 1 3 2 5c1 3 2 7 5 11l8 14l13 -4c1 0 2 1 3 1s1 1 2 1l3 4c4 10 11 16 15 21c4 3 6 5 6 7c0 0 6 11 7 17c7 3 16 -1 16 -1l6 7l5 6c0 8 2 16 3 22c1 3 2 8 2 10l-1 4v4c1 12 3 26 7 38c2 9 5 18 6 27v1l1 1v14c0 7 0 14 3 22v1v1c1 3 3 6 4 8c1 4 3 7 3 9v8l2 2
l-4 6l12 14c-4 25 4 45 11 66c5 19 10 35 6 52l-2 19s13 0 19 4c6 3 8 12 8 12l17 -8c6 -3 12 -7 18 -10l9 -6s20 -2 23 -6c3 -5 -6 -26 -6 -26c6 -13 2 -29 -1 -41c-2 -11 -4 -16 -1 -19l5 -8l-3 -10c-2 -6 -5 -10 -9 -13c8 -17 3 -37 -2 -52c-2 -8 -4 -13 -4 -19l10 -12
s12 2 13 9c5 0 29 -37 29 -37l-2 -4l1 -1c13 -17 9 -36 7 -46c-1 -4 -2 -8 -2 -10l-1 -11l-14 -8c-4 -6 -11 -15 -19 -17c0 -2 -1 -4 -2 -7l-1 -4l-3 -4l-7 -7c-7 -9 -16 -19 -27 -26c-4 -3 -7 -8 -11 -13c-5 -5 -10 -10 -14 -15c-1 -9 -3 -17 -4 -23c-2 -11 -4 -21 -3 -30
l1 -13l-3 -2v-6c0 -32 -11 -61 -20 -85c2 -18 0 -36 -8 -49l2 -5l-4 -6c5 -5 9 -12 10 -22v-8l-5 -7c-2 -2 -2 -8 -2 -13c-1 -12 -2 -29 -15 -41l-13 -12l-14 11v0c-4 0 -9 -2 -13 -4l-15 -11z" />
    <glyph glyph-name="oslash" unicode="&#xf8;" horiz-adv-x="611" 
d="M56 -68c-18 0 -33 3 -45 9l-11 6l2 14l3 9l-1 2c-10 16 -3 30 1 38c1 2 2 5 2 6l-2 11l30 21c3 18 15 34 30 42c0 1 -1 2 -1 3c-5 10 -9 20 -13 32l-1 2v2c0 4 -1 7 -1 10c-3 25 -6 50 3 76c-6 10 -4 20 -2 27v1l-7 5l7 14c3 7 5 14 8 20c4 15 9 31 20 45c-1 2 -2 4 -2 8
v11l9 6c12 7 18 21 25 35c3 9 8 18 13 27l8 11l7 -1l5 6l6 7l4 1c4 2 7 4 11 5l-2 7l7 7c28 29 62 41 89 48l1 1s0 6 5 8c13 -6 28 -3 32 -2c7 3 12 5 21 5c3 0 7 0 10 -1c18 6 36 9 57 9c33 0 65 -8 89 -18c7 7 15 12 23 16c6 4 14 9 19 15l1 2l2 1l6 6l21 18l2 1l18 9h17
h4c7 3 16 7 28 7c6 0 11 -1 17 -3l7 -3l2 -3s1 -6 10 -4c3 -9 -2 -20 -2 -20l5 -1l1 -13c3 -8 9 -24 -5 -37l-4 -6h-7c-3 0 -8 -3 -13 -5c-8 -4 -17 -9 -28 -9c-7 -6 -15 -13 -23 -19c-10 -8 -17 -13 -21 -18c0 0 2 -7 14 -8c2 -8 0 -16 0 -16c-1 -4 -2 -10 -4 -16
c2 -3 3 -6 4 -10c1 -7 0 -12 -1 -17l8 -1l3 -15c1 -7 4 -13 8 -21c7 -10 14 -26 13 -46v-2l-1 -2c-1 -5 -4 -14 -14 -20c0 -2 -1 -3 -1 -5c-1 -5 -2 -11 -4 -17l-1 -1v0c-1 -4 -2 -9 -2 -13c-1 -7 -1 -15 -4 -22c1 -9 -2 -17 -4 -22c0 -2 -1 -4 -1 -4l-3 -14l-11 -8l-3 -3
c-4 -4 -8 -9 -16 -11c0 -1 -1 -2 -1 -3c-1 -8 -4 -20 -15 -30l-2 -2l-4 -2c-3 -1 -5 -4 -9 -9c-4 -8 -9 -16 -21 -21l-7 -4l-5 2c-8 -9 -18 -16 -25 -23c-9 -7 -18 -13 -23 -19l-2 -3l-3 -2c-4 -3 -9 -7 -13 -11l-2 -4l-5 -8h-15c-5 0 -10 0 -15 1c-25 -17 -57 -20 -84 -20
c-6 0 -13 1 -19 1h-15c-10 -1 -21 -2 -33 -2c-9 0 -17 1 -25 2l-3 1l-3 1c-3 1 -5 3 -7 5l-1 -2l-13 5c-6 3 -12 7 -18 11l-4 -8c-7 -12 -16 -22 -25 -32c-8 -9 -14 -18 -19 -27l-4 -8l-11 -2c-10 -1 -18 -2 -26 -2zM229 111c11 -3 23 -5 34 -5c27 0 53 7 82 14
c6 2 12 4 19 6c10 7 18 15 27 26c11 14 23 30 41 39l2 17l11 1l4 12l8 2s1 0 2 1v0c1 4 3 8 5 10c5 16 4 22 2 29c-4 14 -2 28 6 44c-4 6 -4 13 -4 19c-8 7 -13 16 -15 23c-3 -4 -7 -8 -12 -12c-19 -15 -37 -31 -43 -53l-4 -7l-9 -3c-13 -5 -25 -17 -30 -33l-2 -6l-3 -3
c-2 0 -4 -1 -6 -3c-4 -3 -8 -7 -13 -10c-11 -18 -26 -30 -38 -41c-16 -13 -31 -26 -38 -42l-2 -6l-7 -2c-7 -3 -12 -9 -17 -17zM159 192c1 0 1 0 1 1c4 10 12 18 18 23c2 3 5 6 6 8c0 0 5 5 2 14c6 7 15 7 15 7c0 1 1 3 2 4c1 3 3 6 4 10l1 1l4 5c12 15 18 20 27 27l7 6
l9 -1v0c4 0 12 8 12 15v5l2 4c7 13 20 21 29 28c3 3 6 5 6 6l3 3l8 2l6 10l2 1c2 7 6 13 12 21c7 8 16 15 25 20c-7 1 -14 2 -22 2c-13 0 -22 -3 -30 -10l-7 -9l-9 3c-1 0 -3 -1 -4 -2c-6 -3 -13 -7 -22 -7c-2 0 -5 1 -7 1c-25 -13 -47 -36 -62 -58c0 -16 -11 -30 -18 -39
c-4 -7 -4 -13 -5 -22v-6l-1 -5l-7 -11v-3c0 -5 1 -11 -2 -17v0c-2 -3 -3 -6 -4 -8v-2v-7c0 -6 0 -13 -1 -20v0z" />
    <glyph glyph-name="oe" unicode="&#x153;" horiz-adv-x="944" 
d="M182 -37c-7 2 -12 6 -16 8c-2 1 -4 3 -5 3c0 0 -7 0 -12 -7c-8 6 -13 19 -13 19v0h-8h-14l-3 10l-8 -3l-4 7c-39 29 -42 74 -44 110c-1 10 -2 19 -3 26v2v2c0 9 0 18 1 27c0 39 1 79 20 117l1 1v1c4 5 7 10 11 15c2 3 5 6 7 8c-2 6 -2 15 5 21c4 6 9 11 12 15
c4 3 7 6 8 8c5 7 9 16 14 24c8 15 17 33 30 47l1 1l2 1c2 1 5 2 8 4c14 9 27 18 36 31l6 8h9c17 1 32 10 39 24l4 10l12 2c17 3 31 6 39 17l4 5l7 1c9 2 17 4 24 5c17 2 32 3 42 12l9 10l13 -8c2 -2 7 -2 11 -2h4h4h6h4c13 0 32 0 43 -13c1 -2 2 -3 3 -5
c29 -6 50 -26 70 -50l3 3c44 28 90 56 144 69l8 2l7 -4c1 -1 3 -1 7 -1h7c3 1 8 1 12 1c5 0 9 0 14 -1c48 -7 88 -30 126 -54c7 -4 15 -9 22 -13l10 -4v-11c0 -1 2 -4 3 -7c2 -4 4 -9 6 -15l1 -3v-2c1 -22 -6 -37 -13 -48l4 -2l-5 -14c-19 -64 -77 -94 -127 -121
c-15 -9 -31 -18 -46 -26l-2 -1l-2 -1c-8 -4 -19 -7 -29 -11c-31 -11 -63 -22 -88 -38l-8 -5l-8 3c-5 1 -10 1 -15 1c-11 0 -24 -3 -38 -7c-13 -3 -28 -7 -45 -8c-3 -20 2 -40 14 -58c12 -17 29 -29 50 -31c16 3 31 12 48 21c16 9 30 18 48 24l2 2c15 16 34 33 61 35
c11 13 26 20 41 27c11 4 21 8 30 17c0 0 14 17 18 20c5 2 8 -4 8 -4c32 28 70 56 117 66l21 3l3 -20c0 -3 2 -7 5 -12l6 -8l-3 -9c-8 -27 -28 -44 -45 -56c-12 -12 -25 -23 -31 -37l-3 -7l-10 -2c-15 -5 -29 -17 -44 -31c-15 -13 -32 -29 -56 -36c-2 -3 -3 -7 -4 -10l-4 -7
l-7 -3c-22 -7 -42 -19 -66 -34c-36 -22 -73 -46 -119 -46c-10 0 -21 2 -32 5c-5 -1 -10 -1 -15 -1v0c-33 0 -65 16 -92 44c-13 17 -26 36 -36 59c-22 -23 -50 -45 -77 -64c-41 -26 -80 -40 -118 -40c-6 0 -12 1 -18 1l-5 -9zM186 73h8c22 0 47 6 69 12c2 0 3 1 4 1
c10 7 19 15 28 22c41 35 84 72 116 115c3 27 12 54 22 79c11 35 23 70 14 103c-12 7 -27 11 -45 11c-28 0 -63 -11 -102 -33c0 -2 -2 -4 -3 -5c-2 -3 -5 -8 -10 -13l-2 -3l-3 -1c-60 -30 -104 -80 -119 -139v0c-13 -52 -5 -109 23 -149zM555 265c2 0 3 0 5 -1l11 8h6
c52 3 97 28 145 55c25 13 52 28 79 40c4 10 10 16 15 23c4 5 7 10 9 15c-20 21 -45 31 -79 31c-52 0 -112 -27 -149 -67c-7 -34 -21 -62 -35 -89c-3 -5 -5 -10 -7 -15z" />
    <glyph glyph-name="germandbls" unicode="&#xdf;" horiz-adv-x="611" 
d="M74 -86c-2 3 -5 6 -8 10c-1 0 -2 1 -3 1s-1 0 -2 -1c0 0 -11 -2 -17 2c-4 8 -5 28 -6 28c0 0 -8 2 -13 9c-2 8 3 16 3 16c7 17 9 33 12 53c2 21 4 40 11 61c-2 10 0 17 2 23c1 2 1 4 1 6l1 11s4 4 2 6c-1 3 -5 5 -5 5l7 14c8 20 11 41 15 63c4 21 7 41 15 63
c0 0 -11 2 -13 13l8 11c6 10 7 23 9 37c1 15 3 34 13 51c-1 1 -1 4 -1 8c0 5 2 9 4 14l-1 7c-3 25 7 48 15 67c2 4 4 9 6 14l-3 14l8 8c5 5 8 13 8 25v6l3 5c1 2 3 5 5 8c2 5 4 10 8 15v0c2 2 4 5 6 8c5 9 10 19 21 27v0l4 3l1 3l23 20c5 10 12 19 22 29l3 2l2 1
c2 2 6 4 10 7c5 4 10 7 16 11l11 8l18 8l7 -2c3 0 6 -1 9 -2c16 14 34 17 50 19c13 2 23 3 29 7c0 0 6 4 13 4c7 1 11 -5 11 -5h2h6h7c5 0 9 0 14 -2l9 -2l3 -7c3 0 7 1 11 1c6 2 12 3 18 3h4l5 -1l7 -5l9 -1l6 -4c4 -1 8 -2 10 -3c1 0 2 -1 2 -1l4 1l5 -4
c10 -6 15 -13 17 -20c0 0 6 1 8 0l6 -6c15 -20 24 -42 26 -63c0 -1 1 -2 2 -3c3 -5 9 -12 10 -23v-2v-3c-2 -6 -1 -13 -1 -22c1 -4 1 -9 1 -14v-9c-3 -7 -14 -10 -14 -10c-4 -36 -17 -65 -41 -85c-20 -44 -61 -65 -97 -85c-11 -6 -20 -12 -30 -17l-2 -15l-9 -3
c5 -4 13 -8 23 -12c15 -7 34 -15 47 -31c35 -17 46 -58 53 -87c0 -4 1 -7 2 -11l4 -13l-10 -8c-9 -7 -12 -21 -10 -33l1 -8l-5 -6c-4 -7 -8 -15 -12 -24c-10 -22 -20 -46 -47 -58c-7 -17 -22 -25 -31 -30c-6 -3 -13 -5 -15 -8l-5 -7l-9 -1h-4h-2l-2 -12h-15
c-16 0 -30 0 -42 -3h-2h-2c-37 0 -71 11 -96 31l-11 7l3 11l-4 2l-23 29l5 8c-1 2 -2 3 -3 5c-7 7 -14 17 -13 32v5l4 5c7 11 18 25 35 32l15 7l3 -6c5 4 12 8 21 9l11 1l5 -4c1 0 3 1 6 2c0 0 10 3 13 3c4 0 10 -10 10 -10c1 -2 3 -5 4 -6c0 0 12 -8 11 -14
c-6 -7 -7 -18 -8 -20c6 -4 13 -6 21 -6c28 0 63 34 71 61v1v0c4 15 -6 27 -23 45c-2 2 -5 5 -7 8c-3 -1 -6 -1 -8 -1c-21 0 -38 10 -49 26h-1h-6l-7 2l-5 6c-5 4 -12 10 -17 17c-11 11 -22 21 -31 33c-10 17 -13 35 -9 52l1 3l1 2c5 9 11 15 16 19c3 3 6 5 7 7
c0 0 1 11 9 13c8 1 15 0 15 0c1 -1 2 -1 3 -1c0 0 0 -1 1 -1l12 7l15 4l3 1c12 5 24 14 36 23c17 12 34 24 58 29c11 8 19 21 29 35c10 11 21 27 34 38c0 5 0 10 1 14c0 11 0 24 3 36c-12 40 -55 47 -80 47c-32 0 -71 -12 -95 -30c-22 -19 -39 -40 -42 -61l-1 -9l-8 -5
c-14 -9 -23 -27 -21 -43l1 -8l-4 -7c0 -1 -1 -4 -2 -7c-2 -6 -4 -12 -9 -18c-4 -37 -10 -72 -17 -105c-6 -33 -12 -66 -16 -97c-1 -10 0 -22 2 -33c1 -8 2 -18 2 -29v-5l-3 -5c-3 -6 -6 -12 -11 -18c-5 -16 -7 -32 -10 -47c-3 -17 -6 -35 -11 -50c-2 -10 -4 -22 -6 -34
c-3 -19 -6 -41 -14 -60c-9 -24 -27 -41 -50 -48l-11 -2z" />
    <glyph glyph-name="Ydieresis" unicode="&#x178;" horiz-adv-x="667" 
d="M164 -39c-1 10 -8 18 -17 23l-15 8l5 16c7 15 20 22 30 27c3 1 5 3 7 4c17 29 43 57 69 73c5 19 16 34 27 45c6 8 12 16 15 25l5 12l13 1c8 14 20 27 30 41l16 16c-5 6 -11 13 -18 21c-23 27 -49 58 -54 98c-8 16 -17 30 -26 47c-32 61 -68 123 -90 191c-1 4 -3 8 -5 13
c-8 19 -18 45 -6 71l5 12h13c2 0 4 0 7 1c3 0 7 1 11 1c6 0 12 -1 17 -3c7 1 14 1 21 1c43 0 59 -20 67 -37v0v0c5 -14 6 -27 8 -38c3 -25 5 -40 19 -47l7 -5l1 -8c4 -25 15 -45 28 -70c10 -19 20 -41 26 -62c19 -15 29 -34 38 -49c5 -11 8 -21 14 -29c20 18 36 38 51 61
c9 13 18 25 28 36l6 8h4c4 8 8 14 12 20c7 8 11 12 11 19l1 15l14 3c6 2 9 10 11 24v3l1 3l2 3c9 14 22 24 33 31c6 4 11 8 15 12c8 15 18 28 27 39c13 16 24 33 31 50l4 8l10 2c4 1 7 2 11 2c8 0 13 -2 19 -4c4 -1 7 -2 10 -2l12 -1l5 -10c13 -35 1 -65 -10 -92
c-3 -6 -5 -11 -7 -17v-1l-1 -1c-20 -48 -56 -85 -89 -124c-25 -25 -49 -51 -68 -81c-1 -5 -2 -10 -4 -15c0 -2 -1 -2 -1 -4l-1 -4l-1 -3c-15 -21 -32 -40 -47 -55c-20 -24 -40 -43 -53 -68l-2 -9l-4 -8l-2 -1c-6 -10 -14 -18 -22 -25c-6 -6 -12 -12 -15 -17
c-20 -29 -43 -55 -64 -83c-14 -15 -28 -33 -40 -51v0v-1c-4 -4 -9 -7 -12 -10c-5 -4 -9 -7 -11 -11l-4 -11l-12 -1c-5 -1 -10 -5 -19 -17c-5 -5 -11 -12 -19 -17l-8 -7l-9 4c-1 1 -2 1 -4 1c-4 0 -10 -2 -16 -4s-13 -4 -21 -5l-18 -2zM522 757c-1 2 -4 5 -7 5l-16 1
s3 20 -12 18c-2 10 4 21 4 21c0 1 1 3 1 4c0 2 1 4 1 5c0 0 -7 4 -6 13c3 4 10 13 10 13c6 5 10 12 15 20c10 15 23 35 48 39c6 7 11 15 15 24c0 0 3 10 9 15c17 0 25 -8 25 -8h2c26 0 46 -13 53 -34v-1l1 -1c8 -41 -22 -74 -39 -93l-6 -7h-5c-15 -19 -36 -31 -55 -41
c-3 -2 -6 -4 -9 -5c0 0 -15 -9 -19 -8c-4 2 -10 20 -10 20zM326 752c-16 10 -23 25 -28 37c-3 6 -5 12 -9 15c0 0 -10 7 -11 12s6 15 6 15l6 9c8 10 15 20 14 29l-1 11l9 7c11 9 21 20 32 34c0 0 7 9 14 10c8 -7 16 -8 16 -8h2h6c3 1 6 1 10 1c6 0 11 -1 16 -3c0 1 1 1 2 1
c2 0 4 1 6 2c0 0 17 3 29 0c-3 -11 2 -20 2 -20l6 -13s20 -1 22 -17c1 -7 -13 -18 -13 -18c-11 -10 -21 -22 -31 -34c-24 -28 -49 -57 -88 -71l-9 -3z" />
    <glyph glyph-name="trademark" unicode="&#x2122;" horiz-adv-x="1000" 
d="M887 697c0 0 7 -10 7 -15c0 -4 -8 -10 -8 -10c-17 -18 -21 -43 -23 -70c-4 -24 -6 -52 -22 -74v-34l-2 -4c-1 -3 -3 -5 -5 -7l3 -1l-5 -12c-2 -5 -5 -11 -9 -16c2 -5 3 -10 3 -15v-5l-4 -5c-2 -3 -5 -5 -7 -7c0 -14 -3 -28 -9 -38l2 -1l-6 -19c-2 -9 -6 -18 -10 -25
c0 0 -1 -5 12 -14c-3 -14 -15 -19 -15 -19c-3 -2 -6 -7 -9 -15l-7 -15l-16 5s-8 -10 -13 -10c-6 0 -19 8 -19 8l-4 5s-10 0 -18 10c3 8 -1 12 -1 12l-2 5c-16 31 -8 62 0 87c5 18 10 35 7 49l-1 5l2 5c2 6 4 11 6 17c3 8 4 13 7 20c-1 -1 -3 -2 -4 -3
c-4 -14 -12 -23 -20 -28c-3 -5 -5 -10 -8 -16c-16 -34 -32 -72 -68 -97c-2 -8 -7 -14 -16 -18c-8 -5 -17 -7 -24 -8c-2 -1 -4 -1 -5 -1l-17 -5l-5 18c-3 8 -10 17 -18 27c-5 6 -10 11 -14 18l-2 5l1 7c3 29 3 57 0 86c0 14 -3 41 -5 49c-1 -8 -3 -16 -5 -25
c-1 -1 -2 -2 -1 -3c6 -17 1 -29 1 -29c-24 -22 -27 -52 -30 -87c-2 -23 -4 -45 -10 -67l-2 -5l-5 -4c-10 -8 -22 -16 -37 -18l-10 -3l-4 7l-13 -3l-8 13c-28 39 -19 86 -13 129c2 9 4 19 5 29l-3 10l6 14c3 4 9 10 13 12c1 7 3 13 5 18c1 5 3 10 2 12l-2 12s-5 -1 -8 3
c1 12 12 23 12 23l2 2c0 0 -9 5 -5 12s18 18 18 18v11v2c-4 -1 -9 -1 -15 -1c-28 -3 -52 -5 -75 -16c1 -26 -3 -63 -21 -92l5 -21l-5 -8c-9 -13 -13 -30 -16 -46c-3 -17 -7 -34 -16 -49c7 -34 -4 -71 -30 -104l-11 -14l-9 6l-3 -1c-8 -4 -15 -6 -21 -6c-12 0 -18 6 -21 9
c-2 4 -5 10 -4 19c-2 4 -3 9 -2 16l-4 9c-8 17 -7 32 -5 45c1 7 1 14 0 20l-1 7l8 15l6 1c5 27 12 51 19 77c8 28 16 55 21 85c-1 -1 -2 -2 -4 -2c-19 -10 -42 -21 -64 -21c-6 0 -9 1 -17 2c-2 5 -2 10 -2 10l-13 3c-7 12 -17 31 -19 46c-5 26 6 41 16 50l6 6h7
c5 0 12 0 19 -4c17 11 33 17 51 23c23 6 42 13 58 28l8 8l10 -3h2c5 -1 11 -2 17 -6c21 9 41 11 61 12c17 2 36 3 51 10c0 0 11 5 16 4c8 0 7 -8 7 -8c11 4 22 7 35 7s24 -2 37 -9l6 2l11 -5c44 -18 61 -56 77 -90c4 -8 7 -16 11 -23l5 -10l-7 -10c9 -17 13 -36 16 -55
c9 8 13 16 10 26c0 0 -4 13 2 21c10 2 19 4 19 4c5 2 6 3 8 12c0 0 1 14 4 21c7 1 13 -4 13 -4h1c-1 10 4 17 7 21l11 15s12 -2 23 17c0 0 8 4 13 8c2 1 4 2 6 4l-3 13l9 7c6 6 13 12 21 17c0 2 1 5 1 7c0 0 1 8 5 12c7 0 14 3 14 3c1 2 2 5 3 9c0 0 3 11 6 14s14 3 14 3
c33 -2 50 -27 64 -45c4 -6 7 -11 11 -15z" />
    <glyph glyph-name="zcaron" unicode="&#x17e;" horiz-adv-x="500" 
d="M392 -20c-12 0 -25 4 -37 10c-6 -1 -11 -2 -16 -2c-12 0 -24 2 -36 5c-7 1 -14 3 -22 3c-6 0 -11 -1 -15 -3l-7 -3l-7 1c-10 3 -25 4 -41 4c-22 0 -49 -3 -72 -6c-27 -4 -52 -8 -79 -8c-13 0 -28 2 -41 3c0 0 -13 2 -15 7c-2 4 3 20 3 20c6 12 9 22 9 30v8l5 6
c21 22 37 45 52 72c17 22 33 47 51 67l3 3l4 1c22 10 37 31 55 50c13 17 25 31 44 45c18 35 53 59 82 81c21 14 37 28 55 45c-25 5 -56 7 -87 7c-33 0 -61 -2 -88 -4h-5c-8 -1 -15 -4 -23 -10l-6 -4l-5 1c-2 1 -4 1 -7 2c-8 1 -16 2 -23 2h-5l-10 -1l-5 10
c-10 17 -2 34 2 44c1 2 2 4 2 6l-4 12l21 20l6 1c7 0 13 0 19 1c14 0 29 0 40 8l4 3l4 1c26 6 53 9 88 9c54 0 105 -9 158 -18c11 3 23 4 33 4c32 0 55 -16 63 -43l2 -8l-4 -7c-6 -14 -17 -23 -28 -30c-12 -6 -18 -11 -21 -19l-1 -8l-6 -3c-56 -33 -102 -80 -151 -129
c-25 -24 -45 -45 -71 -68c0 -5 -1 -11 -5 -16l-2 -2l-3 -2c-21 -19 -49 -43 -70 -72v0c3 0 4 1 4 2c0 0 6 4 11 6c3 1 5 0 5 0c23 -4 48 -5 73 -6c54 -2 111 -4 161 -34c4 2 9 4 14 5c0 0 7 1 10 0s7 -6 7 -6c5 -5 9 -11 11 -21h3l5 -26l-3 -25l-13 -3c-8 -1 -18 -4 -27 -7
c-13 -5 -31 -11 -48 -11zM254 560c-22 5 -24 26 -26 33c0 2 -1 5 -1 6l-2 5v5c0 5 -6 13 -11 20c-1 1 -2 2 -3 2l-3 5v1l-6 1l-4 4c-9 10 -12 20 -15 29v3v4c0 9 3 18 6 26c1 3 3 7 4 9l-4 11l9 9c8 6 16 10 23 14c4 2 8 3 10 5l6 6l10 -3c2 -1 5 -1 9 -1c8 -2 19 -3 26 -9
l4 -3l2 -4c6 -8 6 -17 5 -26c3 -2 6 -4 8 -5l14 -8l-5 -13c-1 -4 0 -9 3 -16c13 3 25 5 39 5h1c8 8 17 13 26 22c15 16 33 33 52 45l9 11l5 2c12 4 19 5 24 6h2l4 3l7 -1c12 -3 21 -8 30 -13c1 0 2 -1 3 -2c0 0 10 -6 11 -9c0 -3 -9 -37 -9 -37l-5 -2l-6 -8
c-6 -6 -12 -10 -17 -14c-4 -3 -8 -6 -10 -8l-2 -4l-4 -2c-5 -2 -8 -4 -11 -8v-1h-1c-6 -6 -11 -12 -17 -18c-10 -8 -18 -17 -24 -28c0 0 -10 -20 -12 -20c-6 0 -10 7 -10 7l-5 -7l-15 -1h-1c-4 -1 -8 -5 -13 -9c-3 -3 -7 -6 -11 -8l-10 -7l-10 5c-4 3 -10 5 -18 5
c-14 0 -30 -5 -43 -11c-3 0 -5 -1 -8 -2l-5 -2z" />
    </font>
</defs>
</svg>
